<svg width="157" height="32" viewBox="0 0 157 32" fill="none" xmlns="http://www.w3.org/2000/svg">
<path d="M29.6626 23.6211L30.9034 20.8689C32.2345 21.8389 34.2197 22.5156 36.1145 22.5156C38.2803 22.5156 39.1601 21.794 39.1601 20.8237C39.1601 17.8684 29.9785 19.899 29.9785 14.0333C29.9785 11.3488 32.1442 9.11523 36.6334 9.11523C38.6186 9.11523 40.649 9.58908 42.1154 10.5138L40.9875 13.2886C39.5211 12.4539 38.0098 12.0481 36.611 12.0481C34.4454 12.0481 33.6105 12.8599 33.6105 13.8527C33.6105 16.7629 42.7923 14.7552 42.7923 20.5529C42.7923 23.1923 40.6039 25.4484 36.0921 25.4484C33.588 25.4486 31.0612 24.7039 29.6626 23.6211Z" fill="#FF785B"/>
<path d="M52.356 24.5927C51.6339 25.1116 50.5737 25.3597 49.5134 25.3597C46.6258 25.3597 44.9791 23.8933 44.9791 21.0055V10.3574H48.4982V13.3127H51.4987V16.02H48.4982V20.9604C48.4982 21.9979 49.0397 22.5624 49.9874 22.5624C50.5063 22.5624 51.0249 22.4042 51.4312 22.1106L52.356 24.5927Z" fill="#FF785B"/>
<path d="M53.0541 19.1104C53.0541 15.4557 55.874 12.8613 59.732 12.8613C63.5894 12.8613 66.3871 15.4557 66.3871 19.1104C66.3871 22.7649 63.5894 25.3595 59.732 25.3595C55.8742 25.3595 53.0541 22.7649 53.0541 19.1104ZM62.8224 19.1104C62.8224 17.0124 61.4915 15.7491 59.732 15.7491C57.9724 15.7491 56.6187 17.0124 56.6187 19.1104C56.6187 21.2085 57.9724 22.4717 59.732 22.4717C61.4915 22.4717 62.8224 21.2085 62.8224 19.1104Z" fill="#FF785B"/>
<path d="M76.2662 12.8613V16.1102C75.9733 16.0871 75.7475 16.0649 75.4768 16.0649C73.5367 16.0649 72.2508 17.1251 72.2508 19.4486V25.1791H68.7316V13.0421H72.0927V14.6437C72.9503 13.4705 74.3939 12.8613 76.2662 12.8613Z" fill="#FF785B"/>
<path d="M87.4104 21.3663L89.2829 23.3968C88.1548 24.6824 86.4629 25.3595 84.2746 25.3595C80.0785 25.3595 77.3491 22.7201 77.3491 19.1104C77.3491 15.4783 80.1012 12.8613 83.846 12.8613C87.2751 12.8613 90.0949 15.1172 90.1175 18.9977L81.1389 20.7346C81.658 21.9299 82.7857 22.5394 84.3649 22.5394C85.6507 22.5396 86.5758 22.156 87.4104 21.3663ZM80.8005 18.7497L86.711 17.5988C86.3726 16.358 85.3124 15.5235 83.846 15.5235C82.0862 15.5235 80.8682 16.6967 80.8005 18.7497Z" fill="#FF785B"/>
<path d="M105.705 19.1104C105.705 22.9231 103.065 25.3595 99.659 25.3595C98.1476 25.3595 96.9068 24.8857 96.0043 23.8931V29.5555H92.4854V13.0419H95.8465V14.4405C96.7265 13.3802 98.035 12.8613 99.6592 12.8613C103.065 12.8613 105.705 15.2977 105.705 19.1104ZM102.14 19.1104C102.14 17.0124 100.81 15.7491 99.05 15.7491C97.2903 15.7491 95.9594 17.0124 95.9594 19.1104C95.9594 21.2085 97.2903 22.4717 99.05 22.4717C100.81 22.4717 102.14 21.2085 102.14 19.1104Z" fill="#FF785B"/>
<path d="M117.209 21.3663L119.081 23.3968C117.953 24.6824 116.261 25.3595 114.073 25.3595C109.877 25.3595 107.147 22.7201 107.147 19.1104C107.147 15.4783 109.9 12.8613 113.644 12.8613C117.073 12.8613 119.893 15.1172 119.916 18.9977L110.937 20.7346C111.456 21.9299 112.584 22.5394 114.163 22.5394C115.449 22.5396 116.374 22.156 117.209 21.3663ZM110.599 18.7497L116.509 17.5988C116.171 16.358 115.111 15.5235 113.644 15.5235C111.885 15.5235 110.666 16.6967 110.599 18.7497Z" fill="#FF785B"/>
<path d="M134.646 8.43945V25.1787H131.284V23.7801C130.405 24.84 129.119 25.3592 127.495 25.3592C124.065 25.3592 121.426 22.9228 121.426 19.1101C121.426 15.2974 124.065 12.861 127.495 12.861C128.983 12.861 130.247 13.3349 131.127 14.3274V8.43945H134.646ZM131.194 19.1101C131.194 17.0121 129.841 15.7488 128.103 15.7488C126.344 15.7488 124.99 17.0121 124.99 19.1101C124.99 21.2082 126.344 22.4714 128.103 22.4714C129.841 22.4714 131.194 21.2082 131.194 19.1101Z" fill="#FF785B"/>
<path d="M137.464 9.38655C137.464 8.28124 138.344 7.42383 139.652 7.42383C140.961 7.42383 141.84 8.23568 141.84 9.31855C141.84 10.4919 140.961 11.3491 139.652 11.3491C138.344 11.3493 137.464 10.492 137.464 9.38655ZM137.893 13.0411H141.412V25.1782H137.893V13.0411Z" fill="#FF785B"/>
<path d="M157 13.0419V25.179H153.639V23.7804C152.759 24.8403 151.473 25.3595 149.849 25.3595C146.419 25.3595 143.78 22.9231 143.78 19.1104C143.78 15.2977 146.419 12.8613 149.849 12.8613C151.338 12.8613 152.601 13.3352 153.481 14.3278V13.0419H157ZM153.548 19.1104C153.548 17.0124 152.195 15.7491 150.458 15.7491C148.698 15.7491 147.345 17.0124 147.345 19.1104C147.345 21.2085 148.698 22.4717 150.458 22.4717C152.195 22.4717 153.548 21.2085 153.548 19.1104Z" fill="#FF785B"/>
<path d="M20.2285 21.6486C19.601 18.011 17.499 8.97114 16.7924 7.18383C16.5312 6.52327 15.7117 6.72661 15.961 8.51392C16.3927 11.6071 18.0295 17.1474 18.5659 20.5955C18.9538 23.0894 18.356 23.929 17.4574 24.475C13.0792 27.1352 7.81422 29.4074 4.82152 30.6267C2.81657 31.4436 5.2104 31.7733 5.65282 31.6243C9.97563 30.1692 16.3687 26.6383 18.0671 25.8051C20.27 24.7244 20.4165 22.7394 20.2285 21.6486Z" fill="#FF785B"/>
<path d="M5.22963 4.2105C5.22963 4.2105 4.76177 1.31821 7.01628 0.828738C8.11926 0.589488 8.8287 1.26617 9.08524 1.98941C9.17186 2.23381 9.99003 2.71963 9.89776 1.67484C9.80947 0.679269 8.78414 -0.186788 7.13815 0.0350052C4.51919 0.38748 4.05882 3.11816 4.36324 4.08414C4.66783 5.04995 5.22963 4.2105 5.22963 4.2105Z" fill="#FF785B"/>
<path d="M16.9587 21.4834C16.9587 19.7879 16.9489 22.7586 13.6335 4.1922C13.6335 4.1922 13.3009 2.28019 11.4721 2.69585C10.2918 2.96403 3.32523 6.3536 3.32523 6.3536C3.32523 6.3536 2.32766 7.01865 1.99514 8.01622C1.66262 9.01379 0 29.1314 0 29.1314C0 29.1314 0 30.2953 1.66262 29.7965C3.32523 29.2977 15.1298 23.9773 15.1298 23.9773C15.1298 23.9773 16.9587 23.146 16.9587 21.4834ZM7.6635 18.972C6.47389 19.6326 5.30225 19.8188 4.67345 19.4974L5.0753 18.2689C5.65921 18.5507 6.65263 18.4375 7.65335 17.8818C8.99841 17.1352 9.57068 16.2114 9.56337 15.4293C9.54258 13.2365 4.8422 17.2382 4.81061 13.9042C4.79748 12.5192 5.72006 10.8209 7.76558 9.68515C8.67719 9.17905 9.62472 8.93664 10.2743 9.0916L9.91734 10.3213C9.2345 10.1976 8.46521 10.3928 7.77605 10.7753C6.45311 11.5097 5.89231 12.4657 5.89963 13.248C5.92041 15.4406 10.6208 11.4518 10.652 14.7477C10.6649 16.1196 9.71999 17.8303 7.6635 18.972Z" fill="#FF785B"/>
</svg>
