<svg width="72" height="72" viewBox="0 0 72 72" fill="none" xmlns="http://www.w3.org/2000/svg">
<path d="M28.5 60H7.50001C5.019 60 3 57.981 3 55.5V22.5C3 21.672 3.672 21 4.5 21H55.5001C56.3281 21 57.0001 21.672 57.0001 22.5V28.68C57.0001 29.508 56.3281 30.18 55.5001 30.18C54.6721 30.18 54.0001 29.508 54.0001 28.68V24H6V55.5C6 56.325 6.672 57 7.50001 57H28.5C29.328 57 30 57.672 30 58.5C30 59.328 29.328 60 28.5 60Z" fill="white"/>
<path d="M37.5 33H22.5C21.672 33 21 32.328 21 31.5C21 30.672 21.672 30 22.5 30H37.5C38.328 30 39 30.672 39 31.5C39 32.328 38.328 33 37.5 33Z" fill="white"/>
<path d="M58.5001 24H1.5C0.672001 24 0 23.328 0 22.5V10.5C0 9.672 0.672001 9 1.5 9H58.5001C59.3281 9 60.0001 9.672 60.0001 10.5V22.5C60.0001 23.328 59.3281 24 58.5001 24ZM3 21H57.0001V12H3V21Z" fill="white"/>
<path d="M58.5003 12C58.1163 12 57.7323 11.853 57.4383 11.562L48.8793 3H11.1212L2.56219 11.562C1.97719 12.147 1.02619 12.147 0.441192 11.562C-0.143809 10.977 -0.143809 10.026 0.441192 9.44101L9.4412 0.441001C9.7202 0.159 10.1012 0 10.5002 0H49.5003C49.8993 0 50.2803 0.159 50.5623 0.438001L59.5623 9.43801C60.1473 10.023 60.1473 10.974 59.5623 11.559C59.2683 11.853 58.8843 12 58.5003 12Z" fill="white"/>
<path d="M52.5 72C41.748 72 33 63.252 33 52.5C33 41.748 41.748 33 52.5 33C63.252 33 72 41.748 72 52.5C72 63.252 63.252 72 52.5 72ZM52.5 36C43.401 36 36 43.404 36 52.5C36 61.596 43.401 69 52.5 69C61.599 69 69 61.596 69 52.5C69 43.404 61.599 36 52.5 36Z" fill="white"/>
<path d="M52.5 63C51.672 63 51 62.328 51 61.5V43.5C51 42.672 51.672 42 52.5 42C53.328 42 54 42.672 54 43.5V61.5C54 62.328 53.328 63 52.5 63Z" fill="white"/>
<path d="M61.5 54H43.5C42.672 54 42 53.328 42 52.5C42 51.672 42.672 51 43.5 51H61.5C62.328 51 63 51.672 63 52.5C63 53.328 62.328 54 61.5 54Z" fill="white"/>
</svg>
