<svg width="79" height="75" viewBox="0 0 79 75" fill="none" xmlns="http://www.w3.org/2000/svg">
<path d="M60.3601 11.1809C60.3944 11.1834 60.4287 11.1859 60.4636 11.1859C60.5228 11.1859 60.582 11.1809 60.6399 11.1728C62.191 11.2045 63.4324 12.4696 63.4343 14.0207C63.4343 14.7256 64.0057 15.297 64.7106 15.297C65.4154 15.297 65.9869 14.7256 65.9869 14.0207C65.9837 11.4837 64.2176 9.28887 61.7398 8.74296V7.51652C61.7398 6.8117 61.1684 6.24023 60.4636 6.24023C59.7587 6.24023 59.1873 6.8117 59.1873 7.51652V8.80091C56.5674 9.50137 54.8723 12.0359 55.2257 14.7249C55.579 17.414 57.8711 19.4244 60.5832 19.4244C62.158 19.4244 63.4343 20.7013 63.4343 22.2761C63.4343 23.8503 62.158 25.1272 60.5832 25.1272C59.0084 25.1272 57.7321 23.8503 57.7321 22.2761C57.7321 21.5713 57.1607 20.9998 56.4558 20.9998C55.751 20.9998 55.1795 21.5713 55.1795 22.2761C55.1827 24.7215 56.8254 26.8609 59.1873 27.4959V28.8943C59.1873 29.5992 59.7587 30.1706 60.4636 30.1706C61.1684 30.1706 61.7398 29.5992 61.7398 28.8943V27.5545C64.4351 26.9643 66.253 24.4379 65.9557 21.6947C65.6591 18.9514 63.3427 16.8724 60.5832 16.8731C59.052 16.8737 57.7938 15.6647 57.7334 14.1348C57.6735 12.6048 58.8333 11.3005 60.3601 11.1815V11.1809Z" fill="white"/>
<path d="M60.6567 0C52.8052 0 46.1047 5.12323 43.5945 11.9833H11.9172C11.2155 11.9833 10.6459 12.6158 10.6409 13.3169L10.3393 58.0892H1.30994C0.605115 58.0892 0 58.5996 0 59.3056V64.9872C0.0162028 70.3361 4.22895 74.7302 9.57216 74.972V75H48.9776V74.9626C49.2966 74.9744 49.4281 75 49.63 75H49.6575C55.1876 74.9913 59.6665 70.5056 59.6665 64.9754V36.249C59.9855 36.2664 60.3233 36.2757 60.6536 36.2757C70.6452 36.2757 78.7759 28.1294 78.7759 18.1373C78.7759 8.14569 70.6489 0 60.6567 0ZM10.0576 72.4474H10.0495C5.92091 72.4418 2.57127 69.1034 2.55258 64.9742V60.6418H39.5649V64.9561C39.5668 67.6196 40.6306 70.1728 42.5201 72.0505C42.6541 72.1844 42.8205 72.2879 42.9607 72.4474H10.0576ZM57.1139 64.9742C57.1145 69.0959 53.7773 72.4393 49.6562 72.4474H49.6319C45.4939 72.4399 42.1381 69.0947 42.1175 64.9573V59.3056C42.1281 58.9791 42.0035 58.6631 41.7723 58.4326C41.5411 58.202 41.2251 58.078 40.8992 58.0892H12.8919L13.1848 14.5359H42.8859C42.6597 15.7043 42.5425 16.8909 42.5363 18.0805C42.5338 20.5963 43.0585 23.0841 44.0768 25.3843H32.0219C31.3164 25.3843 30.7456 25.9558 30.7456 26.6606C30.7456 27.3654 31.3164 27.9369 32.0219 27.9369H45.4615C48.0945 32.0773 52.3035 34.9639 57.1139 35.9299V64.9742ZM60.6567 33.7238C52.0592 33.7238 45.0889 26.7541 45.0895 18.1559C45.0895 9.55783 52.0592 2.5881 60.6573 2.5881C69.2548 2.5881 76.2246 9.55845 76.2246 18.1559C76.2152 26.7497 69.2511 33.7144 60.6567 33.7238Z" fill="white"/>
<path d="M23.8284 33.8779C21.5756 33.8779 19.7434 35.6521 19.7434 37.8333C19.7434 40.0145 21.5756 41.7887 23.8284 41.7887C26.0812 41.7887 27.914 40.0145 27.914 37.8333C27.914 35.6521 26.0812 33.8779 23.8284 33.8779ZM23.8284 39.2361C22.9827 39.2361 22.296 38.6067 22.296 37.8333C22.296 37.0593 22.9834 36.4305 23.8284 36.4305C24.6734 36.4305 25.3614 37.0599 25.3614 37.8333C25.3614 38.6067 24.6734 39.2361 23.8284 39.2361Z" fill="white"/>
<path d="M30.7467 37.828C30.7467 38.5329 31.3175 39.1043 32.023 39.1043H49.0385C49.7433 39.1043 50.3148 38.5329 50.3148 37.828C50.3148 37.1232 49.7433 36.5518 49.0385 36.5518H32.023C31.3175 36.5518 30.7467 37.1232 30.7467 37.828Z" fill="white"/>
<path d="M23.8284 22.7837C21.5756 22.7837 19.7434 24.5585 19.7434 26.7397C19.7434 28.9208 21.5756 30.6951 23.8284 30.6951C26.0812 30.6951 27.914 28.9208 27.914 26.7397C27.914 24.5585 26.0812 22.7837 23.8284 22.7837ZM23.8284 28.1425C22.9827 28.1425 22.296 27.5131 22.296 26.7397C22.296 25.9663 22.9834 25.3363 23.8284 25.3363C24.6734 25.3363 25.3614 25.9657 25.3614 26.7397C25.3614 27.5131 24.6734 28.1431 23.8284 28.1431V28.1425Z" fill="white"/>
<path d="M23.8284 44.9717C21.5756 44.9717 19.7434 46.7459 19.7434 48.9271C19.7434 51.1082 21.5756 52.8824 23.8284 52.8824C26.0812 52.8824 27.914 51.1082 27.914 48.9271C27.914 46.7459 26.0812 44.9717 23.8284 44.9717ZM23.8284 50.3298C22.9827 50.3298 22.296 49.701 22.296 48.9271C22.296 48.1537 22.9834 47.5243 23.8284 47.5243C24.6734 47.5243 25.3614 48.1537 25.3614 48.9271C25.3614 49.7004 24.6734 50.3298 23.8284 50.3298Z" fill="white"/>
<path d="M49.0385 47.7192H32.023C31.3175 47.7192 30.7467 48.2907 30.7467 48.9955C30.7467 49.7004 31.3175 50.2718 32.023 50.2718H49.0385C49.7433 50.2718 50.3148 49.7004 50.3148 48.9955C50.3148 48.2907 49.7433 47.7192 49.0385 47.7192Z" fill="white"/>
</svg>
