<svg width="55" height="62" viewBox="0 0 55 62" fill="none" xmlns="http://www.w3.org/2000/svg">
<path d="M47.7492 0H6.9237C3.10606 0 0 3.10606 0 6.9237V51.0917C0 53.0665 1.60642 54.6729 3.58122 54.6729H19.2589C19.9182 54.6729 20.4526 54.1385 20.4526 53.4791C20.4526 52.8198 19.9182 52.2854 19.2589 52.2854H3.58122C2.9228 52.2854 2.38748 51.7501 2.38748 51.0917V6.9237C2.38748 4.42244 4.42244 2.38748 6.9237 2.38748H42.5252C41.468 3.60361 40.8255 5.18951 40.8255 6.9237V45.3939C40.8255 46.4953 39.9297 47.3911 38.8283 47.3911C37.9675 47.3911 37.206 46.8422 36.9332 46.0257L35.1342 40.6278C34.6264 39.1039 33.2056 38.0803 31.5996 38.0803C29.5451 38.0803 27.8739 39.7516 27.8739 41.8057V42.7355H21.6864C21.0271 42.7355 20.4927 43.2703 20.4927 43.9292C20.4927 44.5886 21.0271 45.1229 21.6864 45.1229H27.8739V51.0618C27.8739 52.8244 28.2175 54.5432 28.8955 56.1697L30.6516 60.3846C30.8428 60.843 31.2863 61.1195 31.754 61.1195C31.9069 61.1195 32.0627 61.0902 32.2124 61.0277C32.8213 60.774 33.1091 60.075 32.8554 59.4665L31.0993 55.2516C30.5434 53.9175 30.2613 52.5078 30.2613 51.0623V41.8061C30.2613 41.068 30.8615 40.4678 31.5996 40.4678C32.1764 40.4678 32.6871 40.8353 32.8694 41.3827L34.6684 46.7807C35.2662 48.5736 36.9379 49.7785 38.8283 49.7785C41.2461 49.7785 43.213 47.8117 43.213 45.3939V24.9273L44.8082 26.5192C47.6545 29.36 49.2218 33.1394 49.2218 37.1603V49.8499C49.2218 53.1369 48.4771 56.4439 47.0688 59.4138C46.7863 60.0093 47.0404 60.7213 47.6359 61.0039C48.2313 61.2865 48.9434 61.0328 49.226 60.4369C50.7848 57.1494 51.6092 53.4885 51.6092 49.8499V37.1603C51.6092 32.5005 49.793 28.1215 46.4948 24.8293L43.213 21.5536V20.413H51.0916C53.0664 20.413 54.6729 18.8066 54.6729 16.8317V6.9237C54.6729 3.10606 51.5673 0 47.7492 0V0ZM52.2854 16.8317C52.2854 17.4897 51.7501 18.0255 51.0916 18.0255H43.213V6.9237C43.213 4.42244 45.2479 2.38748 47.7492 2.38748C50.2504 2.38748 52.2854 4.42244 52.2854 6.9237V16.8317Z" fill="white"/>
<path d="M24.4711 52.2852C24.1568 52.2852 23.849 52.4129 23.6271 52.6349C23.4051 52.8573 23.2773 53.1651 23.2773 53.4789C23.2773 53.7932 23.4051 54.1009 23.6271 54.3229C23.849 54.5449 24.1568 54.6726 24.4711 54.6726C24.7849 54.6726 25.0927 54.5449 25.3151 54.3229C25.5371 54.1009 25.6648 53.7932 25.6648 53.4789C25.6648 53.1651 25.5371 52.8573 25.3151 52.6349C25.0927 52.4129 24.7849 52.2852 24.4711 52.2852Z" fill="white"/>
<path d="M16.4342 8.83475C16.4342 7.51837 15.3631 6.44727 14.0467 6.44727H8.79422C7.47737 6.44727 6.40674 7.51837 6.40674 8.83475V14.0872C6.40674 15.4036 7.47737 16.4747 8.79422 16.4747H14.0467C15.3631 16.4747 16.4342 15.4036 16.4342 14.0872V8.83475ZM14.0467 14.0872H8.79422V8.83475H14.0467L14.0481 14.0872C14.0481 14.0872 14.0476 14.0872 14.0467 14.0872Z" fill="white"/>
<path d="M16.4342 23.159C16.4342 21.8426 15.3631 20.7715 14.0467 20.7715H8.79422C7.47737 20.7715 6.40674 21.8426 6.40674 23.159V28.4114C6.40674 29.7278 7.47737 30.7989 8.79422 30.7989H14.0467C15.3631 30.7989 16.4342 29.7278 16.4342 28.4114V23.159ZM14.0467 28.4114H8.79422V23.159H14.0467L14.0481 28.4114C14.0481 28.4114 14.0476 28.4114 14.0467 28.4114Z" fill="white"/>
<path d="M14.0467 35.0957H8.79422C7.47737 35.0957 6.40674 36.1663 6.40674 37.4832V42.7352C6.40674 44.052 7.47737 45.1227 8.79422 45.1227H14.0467C15.3631 45.1227 16.4342 44.052 16.4342 42.7352V37.4832C16.4342 36.1663 15.3631 35.0957 14.0467 35.0957ZM14.0467 42.7352H8.79422V37.4832H14.0467L14.0481 42.7352C14.0481 42.7352 14.0476 42.7352 14.0467 42.7352Z" fill="white"/>
<path d="M35.3748 16.4734C36.0341 16.4734 36.5685 15.939 36.5685 15.2797C36.5685 14.6203 36.0341 14.0859 35.3748 14.0859H27.1454C26.486 14.0859 25.9517 14.6203 25.9517 15.2797C25.9517 15.939 26.486 16.4734 27.1454 16.4734H35.3748Z" fill="white"/>
<path d="M21.6864 16.4734C22.0007 16.4734 22.3085 16.3457 22.5304 16.1237C22.7524 15.9017 22.8802 15.5935 22.8802 15.2797C22.8802 14.9659 22.7524 14.6576 22.5304 14.4357C22.3085 14.2137 22.0007 14.0859 21.6864 14.0859C21.3712 14.0859 21.0644 14.2137 20.8424 14.4357C20.6195 14.6576 20.4927 14.9659 20.4927 15.2797C20.4927 15.5935 20.6195 15.9017 20.8424 16.1237C21.0644 16.3457 21.3712 16.4734 21.6864 16.4734Z" fill="white"/>
<path d="M21.6864 30.7976H35.3748C36.0342 30.7976 36.5685 30.2633 36.5685 29.6039C36.5685 28.9445 36.0342 28.4102 35.3748 28.4102H21.6864C21.0275 28.4102 20.4927 28.9445 20.4927 29.6039C20.4927 30.2633 21.0275 30.7976 21.6864 30.7976Z" fill="white"/>
</svg>
