<svg width="72" height="72" viewBox="0 0 72 72" fill="none" xmlns="http://www.w3.org/2000/svg">
<path d="M70.5938 38.8125H54.5625V13.7344C54.5625 13.3462 54.4051 12.9947 54.1507 12.7402L54.1506 12.7401L41.8224 0.411891C41.5679 0.157359 41.2163 0 40.8281 0H1.40625C0.629719 0 0 0.629578 0 1.40625V29.6897C0 30.4664 0.629719 31.096 1.40625 31.096C2.18278 31.096 2.8125 30.4664 2.8125 29.6897V2.8125H39.4218V13.7344C39.4218 14.5111 40.0515 15.1407 40.8281 15.1407H51.75V38.8125H14.3438C13.5672 38.8125 12.9375 39.4421 12.9375 40.2188V69.1875H2.8125V42.346C2.8125 41.5693 2.18278 40.9397 1.40625 40.9397C0.629719 40.9397 0 41.5693 0 42.346V70.5938C0 71.3704 0.629719 72 1.40625 72H70.5938C71.3703 72 72 71.3704 72 70.5938V40.2188C72 39.4421 71.3703 38.8125 70.5938 38.8125ZM42.2343 12.3282V4.80122L49.7611 12.3282H42.2343ZM69.1875 69.1875H15.75V41.625H69.1875V69.1875Z" fill="white"/>
<path d="M1.40625 37.4243C1.77609 37.4243 2.13891 37.2738 2.40033 37.0123C2.66189 36.7507 2.8125 36.3879 2.8125 36.0181C2.8125 35.6468 2.66203 35.2854 2.40033 35.0238C2.13891 34.7609 1.77609 34.6118 1.40625 34.6118C1.03641 34.6118 0.673594 34.7609 0.412031 35.0238C0.150469 35.2854 0 35.6468 0 36.0181C0 36.3879 0.150328 36.7507 0.412031 37.0123C0.673594 37.2738 1.03641 37.4243 1.40625 37.4243Z" fill="white"/>
<path d="M19.9685 60.8203C22.2561 60.8203 24.1169 62.6813 24.1169 64.9687C24.1169 65.7454 24.7467 66.375 25.5232 66.375H59.4138C60.1903 66.375 60.8201 65.7454 60.8201 64.9687C60.8201 62.6813 62.681 60.8203 64.9685 60.8203C65.745 60.8203 66.3748 60.1907 66.3748 59.4141V51.3984C66.3748 50.6218 65.745 49.9922 64.9685 49.9922C62.681 49.9922 60.8201 48.1312 60.8201 45.8437C60.8201 45.0671 60.1903 44.4375 59.4138 44.4375H25.5232C24.7467 44.4375 24.1169 45.0671 24.1169 45.8437C24.1169 48.1312 22.2561 49.9922 19.9685 49.9922C19.192 49.9922 18.5623 50.6218 18.5623 51.3984V59.4141C18.5623 60.1907 19.192 60.8203 19.9685 60.8203ZM21.3748 52.662C24.0867 52.1034 26.2281 49.9621 26.7867 47.25H58.1502C58.7089 49.9621 60.8502 52.1034 63.5621 52.662V58.1505C60.8502 58.7091 58.7087 60.8504 58.1502 63.5625H26.7867C26.228 60.8504 24.0867 58.7091 21.3748 58.1505V52.662Z" fill="white"/>
<path d="M42.469 60.75C45.4155 60.75 47.8127 58.3528 47.8127 55.4062C47.8127 52.4597 45.4155 50.0625 42.469 50.0625C39.5225 50.0625 37.1252 52.4597 37.1252 55.4062C37.1252 58.3528 39.5225 60.75 42.469 60.75ZM42.469 52.875C43.8647 52.875 45.0002 54.0105 45.0002 55.4062C45.0002 56.802 43.8647 57.9375 42.469 57.9375C41.0733 57.9375 39.9377 56.802 39.9377 55.4062C39.9377 54.0105 41.0733 52.875 42.469 52.875Z" fill="white"/>
<path d="M9.28125 32.625H17.0163C17.7929 32.625 18.4226 31.9954 18.4226 31.2188C18.4226 30.4421 17.7929 29.8125 17.0163 29.8125H9.28125C8.50472 29.8125 7.875 30.4421 7.875 31.2188C7.875 31.9954 8.50472 32.625 9.28125 32.625Z" fill="white"/>
<path d="M23.4854 31.2188C23.4854 31.9954 24.1151 32.625 24.8916 32.625H44.6844C45.461 32.625 46.0907 31.9954 46.0907 31.2188C46.0907 30.4421 45.461 29.8125 44.6844 29.8125H24.8916C24.1149 29.8125 23.4854 30.4422 23.4854 31.2188Z" fill="white"/>
<path d="M9.28125 14.625H14.4894C15.266 14.625 15.8957 13.9954 15.8957 13.2188C15.8957 12.4421 15.266 11.8125 14.4894 11.8125H9.28125C8.50472 11.8125 7.875 12.4421 7.875 13.2188C7.875 13.9954 8.50472 14.625 9.28125 14.625Z" fill="white"/>
<path d="M30.273 14.625C31.0495 14.625 31.6792 13.9954 31.6792 13.2188C31.6792 12.4421 31.0495 11.8125 30.273 11.8125H22.3645C21.588 11.8125 20.9583 12.4421 20.9583 13.2188C20.9583 13.9954 21.588 14.625 22.3645 14.625H30.273Z" fill="white"/>
<path d="M9.28125 23.6255H30.3839C31.1604 23.6255 31.7901 22.9959 31.7901 22.2192C31.7901 21.4426 31.1604 20.813 30.3839 20.813H9.28125C8.50472 20.813 7.875 21.4426 7.875 22.2192C7.875 22.9959 8.50472 23.6255 9.28125 23.6255Z" fill="white"/>
<path d="M44.6841 23.6255C45.4606 23.6255 46.0903 22.9959 46.0903 22.2192C46.0903 21.4426 45.4606 20.813 44.6841 20.813H38.1479C37.3714 20.813 36.7417 21.4426 36.7417 22.2192C36.7417 22.9959 37.3714 23.6255 38.1479 23.6255H44.6841Z" fill="white"/>
</svg>
