<svg width="62" height="74" viewBox="0 0 62 74" fill="none" xmlns="http://www.w3.org/2000/svg">
<path d="M61.7417 30.7231C61.7417 28.9811 60.9697 27.4169 59.7513 26.3513C60.9697 25.2858 61.7417 23.7217 61.7417 21.9796C61.7417 18.7769 59.1359 16.1711 55.9332 16.1711H54.6858C53.9956 16.1711 53.3393 16.3183 52.7452 16.581V5.4999C52.7454 2.46728 50.2781 0 47.2455 0H23.0524C20.0198 0 17.5525 2.46728 17.5525 5.4999V17.0112C16.0971 15.3953 14.156 14.261 11.8809 13.8122C10.0211 13.4475 8.24547 14.9266 8.24547 16.8154V34.4406C8.24547 36.662 7.85023 38.8286 7.07052 40.88C5.84012 44.118 4.38027 49.0188 4.29421 54.2042L0.282746 59.6126C0.099277 59.8602 0 60.1603 0 60.4685V72.1233C0 72.9168 0.643363 73.56 1.43672 73.56H23.989C24.4129 73.56 24.815 73.3729 25.088 73.0487L30.0143 67.1983C32.3609 66.9287 40.734 65.646 45.3433 60.7356H47.2455C50.2781 60.7356 52.7454 58.2683 52.7454 55.2357V53.6083C53.3395 53.8711 53.9956 54.0182 54.686 54.0182H55.9333C59.1361 54.0182 61.7418 51.4125 61.7418 48.2097C61.7418 46.4676 60.9699 44.9035 59.7514 43.838C60.9699 42.7726 61.7418 41.2083 61.7418 39.4662C61.7418 37.7242 60.9699 36.1601 59.7514 35.0946C60.9697 34.0293 61.7417 32.4651 61.7417 30.7231ZM54.686 19.0447H55.9333C57.5518 19.0447 58.8684 20.3613 58.8684 21.9798C58.8684 23.5981 57.5518 24.9147 55.9333 24.9147H54.686C53.616 24.9147 52.7454 24.0441 52.7454 22.9741V20.9854C52.7454 19.9152 53.616 19.0447 54.686 19.0447ZM37.8539 2.87344V3.1911C37.8539 4.67537 36.6464 5.88293 35.1621 5.88293C33.6778 5.88293 32.4704 4.67537 32.4704 3.1911V2.87344H37.8539ZM49.8719 55.2358C49.8719 56.684 48.6937 57.8623 47.2455 57.8623H23.0524C21.6042 57.8623 20.426 56.684 20.426 55.2358V47.6749C20.426 46.8814 19.7826 46.2382 18.9893 46.2382C18.1959 46.2382 17.5525 46.8814 17.5525 47.6749V55.2358V55.2361C17.5525 58.2687 20.0198 60.7358 23.0523 60.7358H40.8379C36.0223 63.8096 29.2595 64.3887 29.1779 64.3953C28.7946 64.4255 28.4393 64.6079 28.1916 64.9022L23.3205 70.6866H2.87358V60.9433L6.88102 55.5404C7.06449 55.2928 7.16377 54.9927 7.16377 54.6845C7.16377 49.7585 8.57376 45.0137 9.75676 41.9009C10.6607 39.5223 11.1191 37.0123 11.1191 34.4407V16.8154C11.1191 16.7079 11.2166 16.6103 11.3265 16.6316C15.0505 17.3662 17.5525 20.6959 17.5525 24.917V35.0325C17.5525 35.826 18.1959 36.4692 18.9893 36.4692C19.7826 36.4692 20.426 35.826 20.426 35.0325V24.917V5.4999C20.426 4.05169 21.6042 2.87344 23.0524 2.87344H29.5968V3.1911C29.5968 6.25978 32.0934 8.75637 35.162 8.75637C38.2307 8.75637 40.7272 6.25978 40.7272 3.1911V2.87344H47.2453C48.6936 2.87344 49.8718 4.05169 49.8718 5.4999V55.2358H49.8719ZM58.8682 48.21C58.8682 49.8284 57.5516 51.145 55.9332 51.145H54.6858C53.6159 51.145 52.7452 50.2744 52.7452 49.2045V47.2157C52.7452 46.1457 53.6159 45.2752 54.6858 45.2752H55.9332C57.5516 45.2749 58.8682 46.5916 58.8682 48.21ZM58.8682 39.4665C58.8682 41.0848 57.5516 42.4015 55.9332 42.4015H54.6858C53.6159 42.4015 52.7452 41.5308 52.7452 40.4609V38.4722C52.7452 37.4021 53.6159 36.5316 54.6858 36.5316H55.9332C57.5516 36.5316 58.8682 37.8482 58.8682 39.4665ZM54.686 33.6582C53.616 33.6582 52.7454 32.7875 52.7454 31.7176V29.7289C52.7454 28.6588 53.616 27.7883 54.686 27.7883H55.9333C57.5518 27.7883 58.8684 29.1049 58.8684 30.7234C58.8684 32.3417 57.5518 33.6583 55.9333 33.6583H54.686V33.6582Z" fill="white"/>
<path d="M38.5738 41.1694H31.7107C28.9713 41.1694 26.7427 43.3981 26.7427 46.1375C26.7427 48.8769 28.9713 51.1055 31.7107 51.1055H38.5738C41.3132 51.1055 43.5418 48.8769 43.5418 46.1375C43.5418 43.3981 41.3133 41.1694 38.5738 41.1694ZM38.5738 48.2319H31.7107C30.5557 48.2319 29.6161 47.2923 29.6161 46.1373C29.6161 44.9823 30.5557 44.0427 31.7107 44.0427H38.5738C39.7287 44.0427 40.6684 44.9823 40.6684 46.1373C40.6684 47.2923 39.7287 48.2319 38.5738 48.2319Z" fill="white"/>
<path d="M45.0512 19.7411C44.9738 19.0104 44.3573 18.4559 43.6225 18.4559H39.8553V17.3941C39.8553 14.8064 37.7501 12.7012 35.1624 12.7012C32.5747 12.7012 30.4696 14.8064 30.4696 17.3941V18.4559H26.6608C25.926 18.4559 25.3095 19.0104 25.2321 19.7411L23.7954 33.2875C23.7524 33.6926 23.8834 34.0969 24.156 34.3999C24.4284 34.7028 24.8167 34.8758 25.2242 34.8758H45.0594C45.4668 34.8758 45.855 34.7028 46.1276 34.3999C46.4 34.0971 46.5312 33.6926 46.4882 33.2875L45.0512 19.7411ZM33.3431 17.3941C33.3431 16.3908 34.1593 15.5746 35.1624 15.5746C36.1657 15.5746 36.9819 16.3908 36.9819 17.3941V18.4559H33.3431V17.3941ZM26.8212 32.0022L27.9532 21.3292H30.4698V22.7578C30.4698 23.5513 31.1132 24.1945 31.9065 24.1945C32.6999 24.1945 33.3432 23.5513 33.3432 22.7578V21.3292H36.982V22.7578C36.982 23.5513 37.6254 24.1945 38.4187 24.1945C39.2121 24.1945 39.8554 23.5513 39.8554 22.7578V21.3292H42.3303L43.4623 32.0022H26.8212Z" fill="white"/>
<path d="M20.331 40.7195C20.0343 39.9955 19.1759 39.6428 18.4545 39.9422C17.7316 40.2424 17.3776 41.0946 17.6774 41.8186C17.9767 42.5411 18.8311 42.8958 19.5538 42.5958C20.2751 42.2963 20.632 41.442 20.331 40.7195Z" fill="white"/>
</svg>
