<svg width="74" height="74" viewBox="0 0 74 74" fill="none" xmlns="http://www.w3.org/2000/svg">
<path d="M24.7287 56.1608C24.7101 56.0691 24.6829 55.9788 24.647 55.8913C24.6112 55.8054 24.5668 55.7222 24.5152 55.6448C24.4636 55.566 24.4034 55.4929 24.3375 55.427C24.2716 55.3611 24.1985 55.3009 24.1196 55.2493C24.0423 55.1977 23.9591 55.1533 23.8717 55.1174C23.7857 55.0816 23.6954 55.053 23.6037 55.0358C23.4188 54.9985 23.2282 54.9985 23.0448 55.0358C22.9531 55.053 22.8628 55.0816 22.7754 55.1174C22.6894 55.1533 22.6062 55.1977 22.5289 55.2493C22.45 55.3009 22.3769 55.3611 22.311 55.427C22.2451 55.4929 22.1849 55.566 22.1333 55.6448C22.0803 55.7222 22.0373 55.8054 22.0015 55.8913C21.9656 55.9788 21.937 56.0691 21.9198 56.1608C21.9011 56.2525 21.8911 56.3471 21.8911 56.4402C21.8911 56.5334 21.9011 56.628 21.9198 56.7197C21.937 56.8114 21.9656 56.9017 22.0015 56.9877C22.0373 57.0751 22.0803 57.1582 22.1333 57.2356C22.1849 57.3144 22.2451 57.3875 22.311 57.4535C22.3769 57.5194 22.45 57.5796 22.5289 57.6312C22.6062 57.6829 22.6894 57.7273 22.7754 57.7632C22.8628 57.799 22.9531 57.8277 23.0448 57.8449C23.1365 57.8635 23.2311 57.8735 23.3243 57.8735C23.4174 57.8735 23.512 57.8635 23.6037 57.8449C23.6954 57.8277 23.7857 57.799 23.8717 57.7632C23.9591 57.7273 24.0423 57.6828 24.1196 57.6312C24.1985 57.5796 24.2716 57.5194 24.3375 57.4535C24.4034 57.3875 24.4636 57.3144 24.5152 57.2356C24.5668 57.1582 24.6112 57.0751 24.647 56.9877C24.6829 56.9017 24.7101 56.8114 24.7287 56.7197C24.7474 56.628 24.7574 56.5334 24.7574 56.4402C24.7574 56.3471 24.7474 56.2525 24.7287 56.1608Z" fill="white"/>
<path d="M65.9233 56.6024C65.9178 56.588 65.912 56.5739 65.906 56.5598C64.587 53.4733 61.4934 52.3325 57.8323 53.5829L47.8479 56.344C47.2706 54.5958 45.8308 53.1082 43.7948 52.3527C43.7822 52.3481 43.7696 52.3435 43.7569 52.3392L32.7817 48.6142C31.8683 47.4335 29.0069 44.4121 23.6494 44.4121C19.9053 44.4121 16.5932 46.9806 14.6983 49.7802H1.43314C0.641616 49.7802 0 50.4218 0 51.2134V69.2819C0 70.0735 0.641616 70.7151 1.43314 70.7151H9.95415C10.7457 70.7151 11.3873 70.0735 11.3873 69.2819V68.0446H15.3833C16.1748 68.0446 16.8164 67.4029 16.8164 66.6114V66.199C19.1459 66.4022 19.912 66.844 22.0514 68.0777C23.6967 69.0264 26.1833 70.4603 30.6613 72.4737C30.6821 72.483 30.7031 72.4919 30.7242 72.5002C31.5836 72.8383 33.2637 73.3694 35.335 73.3694C36.7768 73.3694 38.4084 73.1118 40.0832 72.3527L62.1522 64.451C62.1915 64.4369 62.2302 64.4212 62.268 64.4037C64.3771 63.4333 67.5202 60.6984 65.9233 56.6024ZM8.52101 67.8486H2.86628V52.6463H8.52101V67.8486ZM13.9502 65.1781H11.3873V52.6463H13.9502V65.1781ZM61.1228 61.7749L39.0636 69.673C39.0443 69.6799 39.018 69.6902 38.999 69.698C38.9796 69.7059 38.9603 69.7142 38.9412 69.7229C35.869 71.1348 32.9487 70.2896 31.8042 69.8446C27.4787 67.8982 25.1701 66.567 23.4833 65.5943C21.1381 64.242 20.008 63.5902 16.8164 63.3267V51.7839C18.1749 49.5574 20.8093 47.2782 23.6495 47.2782C28.5202 47.2782 30.584 50.4462 30.6651 50.574C30.8401 50.8587 31.1091 51.0732 31.4254 51.1805L42.8153 55.0463C44.6344 55.729 45.5957 57.2868 45.1539 58.8404C44.9499 59.5578 44.4787 60.1528 43.8272 60.5159C43.1813 60.8757 42.4346 60.9647 41.7229 60.7678L28.883 56.6988C28.1281 56.4596 27.3229 56.8775 27.0839 57.6321C26.8447 58.3866 27.2626 59.1921 28.0171 59.4313L40.8794 63.5072C40.893 63.5115 40.9066 63.5157 40.9204 63.5196C41.4339 63.6656 41.9567 63.7378 42.4763 63.7378C43.4277 63.7378 44.3685 63.4955 45.2224 63.0197C46.5427 62.2841 47.4975 61.0782 47.9108 59.6243C47.9438 59.5082 47.973 59.3921 47.9984 59.276L58.7588 56.2951C60.3129 55.7643 62.353 55.573 63.2613 57.6649C64.2014 60.1209 61.7579 61.4719 61.1228 61.7749Z" fill="white"/>
<path d="M51.4582 18.8483C51.4396 18.7566 51.4123 18.6663 51.3751 18.5788C51.3392 18.4929 51.2962 18.4097 51.2432 18.3323C51.1916 18.2535 51.1314 18.1804 51.0655 18.1145C50.9996 18.0486 50.9265 17.9884 50.8477 17.9368C50.7703 17.8852 50.6872 17.8408 50.6012 17.8049C50.5137 17.7691 50.4235 17.7405 50.3332 17.7233C50.1483 17.686 49.9577 17.686 49.7728 17.7233C49.6811 17.7405 49.5908 17.7691 49.5048 17.8049C49.4174 17.8408 49.3343 17.8852 49.2569 17.9368C49.1781 17.9884 49.105 18.0486 49.039 18.1145C48.9731 18.1804 48.9129 18.2535 48.8613 18.3323C48.8097 18.4097 48.7653 18.4929 48.7295 18.5788C48.6937 18.6663 48.665 18.7566 48.6478 18.8483C48.6292 18.94 48.6191 19.0346 48.6191 19.1277C48.6191 19.2209 48.6292 19.3155 48.6478 19.4072C48.665 19.4989 48.6937 19.5892 48.7295 19.6752C48.7653 19.7626 48.8097 19.8457 48.8613 19.9231C48.9129 20.0019 48.9731 20.075 49.039 20.141C49.105 20.2069 49.1781 20.2671 49.2569 20.3187C49.3343 20.3703 49.4174 20.4147 49.5048 20.4505C49.5908 20.4864 49.6811 20.5136 49.7728 20.5322C49.8645 20.5508 49.9591 20.5609 50.0523 20.5609C50.1454 20.5609 50.24 20.5508 50.3332 20.5322C50.4235 20.5136 50.5137 20.4864 50.6012 20.4505C50.6872 20.4147 50.7703 20.3703 50.8477 20.3187C50.9265 20.2671 50.9996 20.2069 51.0655 20.141C51.1314 20.075 51.1916 20.0019 51.2432 19.9231C51.2962 19.8457 51.3392 19.7626 51.3751 19.6752C51.4123 19.5892 51.4396 19.4989 51.4582 19.4072C51.4768 19.3155 51.4854 19.2209 51.4854 19.1277C51.4854 19.0346 51.4768 18.94 51.4582 18.8483Z" fill="white"/>
<path d="M71.9433 4.85372H63.4223C62.6308 4.85372 61.9892 5.49533 61.9892 6.28685V7.52423H57.9932C57.2016 7.52423 56.56 8.16584 56.56 8.95736V9.36982C54.2306 9.16646 53.4644 8.72477 51.3252 7.49112C49.68 6.54238 47.1933 5.10853 42.7152 3.09511C42.6944 3.08565 42.6735 3.07691 42.6521 3.0686C41.1945 2.49506 37.3742 1.3666 33.2939 3.21578L27.5269 5.28065L22.6659 0.41973C22.1062 -0.13991 21.1988 -0.13991 20.6391 0.41973L4.67999 16.3787C4.16377 16.8951 4.06474 17.7904 4.67999 18.4056L31.9507 45.6764C32.3871 46.1129 33.409 46.2449 33.9776 45.6764L48.5476 31.1065C48.9264 31.1392 49.3195 31.1568 49.727 31.1568C53.4712 31.1568 56.7832 28.5883 58.6779 25.7889H71.9433C72.7348 25.7889 73.3765 25.1472 73.3765 24.3557V6.28685C73.3765 5.49533 72.7348 4.85372 71.9433 4.85372ZM21.6524 3.45985L24.9188 6.72625C23.9478 7.32674 22.8252 7.64805 21.6524 7.64805C20.4793 7.64805 19.3569 7.32688 18.386 6.72625L21.6524 3.45985ZM10.9867 20.6586L7.72025 17.3921L10.9867 14.1257C11.5871 15.0966 11.9085 16.2192 11.9085 17.3921C11.9085 18.565 11.5873 19.6876 10.9867 20.6586ZM32.9643 42.6361L29.6984 39.3703C31.6923 38.1398 34.2359 38.1398 36.2299 39.3703L32.9643 42.6361ZM38.2948 37.3057C35.1279 35.0084 30.8007 35.0084 27.6337 37.3057L13.0514 22.7232C14.1705 21.184 14.7747 19.3351 14.7747 17.3921C14.7747 15.4489 14.1707 13.6002 13.0514 12.061L16.3214 8.79112C17.8606 9.91026 19.7093 10.5145 21.6525 10.5145C23.5957 10.5145 25.4444 9.91026 26.9836 8.79112L30.0834 11.8909C29.4145 11.9896 28.7623 12.21 28.1541 12.549C27.1268 13.1213 26.3208 13.9785 25.8189 15.0155C24.2023 15.3149 22.7057 16.0975 21.5317 17.2714C18.3465 20.4567 18.3465 25.6394 21.5318 28.8247C23.1243 30.4172 25.2163 31.2136 27.3084 31.2136C29.4003 31.2136 31.4924 30.4173 33.0851 28.8247C34.1212 27.7885 34.8471 26.515 35.2107 25.1272L40.0495 26.7694C39.5048 29.2929 40.0627 31.9476 41.5677 34.0328L38.2948 37.3057ZM29.5816 23.2161C29.5942 23.2207 29.6068 23.2253 29.6196 23.2296L32.4853 24.2022C32.2689 25.1789 31.7792 26.0769 31.0583 26.7979C28.9906 28.8654 25.6262 28.8657 23.5587 26.7979C21.491 24.7303 21.491 21.366 23.5587 19.2983C24.0574 18.7993 24.646 18.4093 25.2874 18.1449C25.5519 20.3465 27.1371 22.3089 29.5816 23.2161ZM43.6327 31.9677C43.0795 31.0662 42.7665 30.0374 42.717 28.9873C43.4035 29.4836 44.2425 29.9699 45.2445 30.3558L43.6327 31.9677ZM56.5599 23.7843C55.2015 26.0111 52.5672 28.2903 49.727 28.2903C49.1955 28.2903 48.6975 28.2524 48.2319 28.1851C48.23 28.1848 48.2282 28.1845 48.2263 28.1842C45.1313 27.7346 43.4664 25.9756 42.9177 25.2791C42.8885 25.2361 42.7639 25.0731 42.7454 25.0461C42.5785 24.7477 42.3047 24.5078 41.9556 24.3892L30.561 20.5219C28.7427 19.8395 27.7815 18.2824 28.222 16.7294C28.2223 16.7284 28.2226 16.7274 28.2229 16.7264C28.2233 16.7253 28.2236 16.724 28.2239 16.7228C28.4287 16.0077 28.899 15.4145 29.5491 15.0524C30.1949 14.6925 30.9414 14.6032 31.6534 14.8006L44.4933 18.8694C45.248 19.1089 46.0534 18.6907 46.2924 17.9361C46.5315 17.1816 46.1137 16.3761 45.3592 16.137L35.1474 12.9009L35.0582 12.8118C35.0574 12.8109 35.0565 12.8099 35.0555 12.8091L29.7686 7.52222L34.3128 5.89503C34.3282 5.88945 34.3471 5.88242 34.3623 5.87626C34.3662 5.87468 34.3736 5.87182 34.3773 5.87024C34.3968 5.86236 34.416 5.85405 34.4351 5.8453C37.5072 4.43338 40.4273 5.2785 41.572 5.72363C45.8976 7.66998 48.2064 9.00122 49.8932 9.97389C52.2384 11.3263 53.3684 11.978 56.5599 12.2415V23.7843ZM61.9892 22.9223H59.4263V10.3905H61.9892V22.9223ZM70.5102 22.9223H64.8555V7.71999H70.5102V22.9223Z" fill="white"/>
</svg>
