<svg width="63" height="67" viewBox="0 0 63 67" fill="none" xmlns="http://www.w3.org/2000/svg">
<path d="M25.9969 24.6652C25.4475 24.6652 24.9467 24.3042 24.7705 23.7852C24.5983 23.2808 24.7629 22.7056 25.1745 22.3674C25.5984 22.02 26.2156 21.979 26.6815 22.2681C27.1341 22.5486 27.3741 23.1001 27.2683 23.6221C27.1468 24.2206 26.609 24.6652 25.9969 24.6652Z" fill="white"/>
<path d="M20.1581 24.6653H15.6991C14.9836 24.6653 14.4028 24.085 14.4028 23.369C14.4028 22.6535 14.9836 22.0728 15.6991 22.0728H20.1581C20.874 22.0728 21.4543 22.6535 21.4543 23.369C21.4543 24.085 20.874 24.6653 20.1581 24.6653Z" fill="white"/>
<path d="M36.7642 24.6653H31.882C31.166 24.6653 30.5857 24.085 30.5857 23.369C30.5857 22.6535 31.166 22.0728 31.882 22.0728H36.7642C37.4802 22.0728 38.0605 22.6535 38.0605 23.369C38.0605 24.085 37.4802 24.6653 36.7642 24.6653Z" fill="white"/>
<path d="M61.5427 37.4013H52.041V10.2233C52.041 7.37403 49.7224 5.05594 46.8732 5.05594H32.5272C31.8051 2.13985 29.1518 0 26.0205 0C22.8887 0 20.2359 2.13985 19.5139 5.05594H5.16785C2.31809 5.05594 0 7.37403 0 10.2233V61.201C0 64.0502 2.31809 66.3688 5.16785 66.3688H61.5427C62.2582 66.3688 62.839 65.7885 62.839 65.0725V38.6976C62.839 37.9821 62.2587 37.4013 61.5427 37.4013ZM33.1844 37.4013C32.4684 37.4013 31.8881 37.9821 31.8881 38.6976V41.1392H15.6995C14.9835 41.1392 14.4032 41.72 14.4032 42.4355C14.4032 43.1515 14.9835 43.7318 15.6995 43.7318H31.8881V50.6729H15.6995C14.9835 50.6729 14.4032 51.2531 14.4032 51.9691C14.4032 52.6846 14.9835 53.2654 15.6995 53.2654H31.8881V57.9431H8.42573V13.4817H14.7977C16.0413 15.9157 18.5746 17.5862 21.4907 17.5862H30.5504C33.4664 17.5862 35.9997 15.9157 37.2433 13.4817H43.6153V37.4013H33.1844ZM43.4117 39.9938H51.3154V49.0135L47.8013 47.7527C47.66 47.7021 47.5117 47.6768 47.3638 47.6768C47.2155 47.6768 47.0676 47.7021 46.9263 47.7527L43.4117 49.0135V39.9938ZM49.4485 10.2233V37.4013H46.2078V12.1854C46.2078 11.4694 45.627 10.8891 44.9116 10.8891H38.017C38.0459 10.6213 38.0611 10.3499 38.0611 10.0749V7.64847H46.8732C48.293 7.64847 49.4485 8.80347 49.4485 10.2233ZM20.6243 7.64847C21.3124 7.64847 21.8806 7.11073 21.9185 6.42411C22.038 4.27515 23.8396 2.59253 26.0205 2.59253C28.2009 2.59253 30.0025 4.27515 30.122 6.42411C30.1605 7.11073 30.7286 7.64847 31.4162 7.64847H35.4686V10.0749C35.4686 12.787 33.2624 14.9936 30.5504 14.9936H21.4907C18.7781 14.9936 16.5719 12.787 16.5719 10.0749V7.64847H20.6243ZM2.59253 61.201V10.2233C2.59253 8.80347 3.74752 7.64847 5.16785 7.64847H13.9794V10.0749C13.9794 10.3499 13.9946 10.6213 14.0235 10.8891H7.12946C6.41348 10.8891 5.8332 11.4694 5.8332 12.1854V59.2393C5.8332 59.9553 6.41348 60.5356 7.12946 60.5356H31.8881V63.7763H5.16785C3.74752 63.7763 2.59253 62.6213 2.59253 61.201ZM60.2465 63.7763H34.4807V39.9938H40.8192V50.8551C40.8192 51.2769 41.0243 51.6729 41.3696 51.9154C41.7144 52.158 42.156 52.2177 42.553 52.0755L47.3638 50.3503L52.1742 52.0755C52.3165 52.1266 52.4643 52.1519 52.6117 52.1519C52.8755 52.1519 53.1363 52.0714 53.358 51.9154C53.7029 51.6729 53.9079 51.2774 53.9079 50.8556V39.9938H60.2465V63.7763Z" fill="white"/>
<path d="M36.7644 34.199H15.6991C14.9831 34.199 14.4028 33.6182 14.4028 32.9027C14.4028 32.1867 14.9831 31.6064 15.6991 31.6064H36.7649C37.4804 31.6064 38.0612 32.1867 38.0612 32.9027C38.0607 33.6187 37.4804 34.199 36.7644 34.199Z" fill="white"/>
</svg>
