<svg width="76" height="86" viewBox="0 0 76 86" fill="none" xmlns="http://www.w3.org/2000/svg">
<path d="M38.7992 46.9872C38.6405 46.9529 38.4776 46.9467 38.3167 46.9707C36.705 46.7831 35.4891 45.4194 35.4863 43.7973C35.4863 43.02 34.8561 42.3897 34.0787 42.3897C33.3013 42.3897 32.671 43.02 32.671 43.7973C32.6752 46.5061 34.487 48.8788 37.0988 49.5956V51.0033C37.0988 51.7806 37.7291 52.4109 38.5064 52.4109C39.2838 52.4109 39.9141 51.7806 39.9141 51.0033V49.6809C42.9287 49.0499 44.9776 46.2422 44.6608 43.1788C44.3432 40.1153 41.7623 37.7874 38.6824 37.7867C36.9173 37.7867 35.4863 36.3557 35.4863 34.5906C35.4863 32.8256 36.9173 31.3945 38.6824 31.3945C40.4475 31.3945 41.8785 32.8256 41.8785 34.5906C41.8785 35.368 42.5088 35.9983 43.2861 35.9983C44.0635 35.9983 44.6938 35.368 44.6938 34.5906C44.6896 31.7464 42.6971 29.2934 39.9141 28.7064V27.4252C39.9141 26.6479 39.2838 26.0176 38.5064 26.0176C37.7291 26.0176 37.0988 26.6479 37.0988 27.4252V28.7923C34.1942 29.5855 32.3246 32.4056 32.7247 35.39C33.1247 38.3743 35.6712 40.602 38.6824 40.6013C40.4241 40.6013 41.8448 41.9959 41.8764 43.7369C41.9087 45.4779 40.5396 46.924 38.7992 46.9872Z" fill="white"/>
<path d="M18.2705 39.3029C18.2705 50.5764 27.4092 59.7151 38.6827 59.7151C49.9563 59.7151 59.095 50.5764 59.095 39.3029C59.095 28.0293 49.9563 18.8906 38.6827 18.8906C27.4147 18.903 18.2836 28.0348 18.2705 39.3029ZM38.6827 21.7059C48.4015 21.7059 56.2797 29.5841 56.2797 39.3029C56.2797 49.0217 48.4015 56.8998 38.6827 56.8998C28.9639 56.8998 21.0858 49.0217 21.0858 39.3029C21.0968 29.5889 28.9688 21.7169 38.6827 21.7059Z" fill="white"/>
<path d="M66.0341 63.1846L55.0073 68.3945C53.4849 65.5628 50.5644 63.7606 47.3505 63.6699L37.1712 63.3901C35.5594 63.3441 33.9779 62.9358 32.5448 62.1955L31.509 61.6587C26.2056 58.8943 19.8842 58.9012 14.5863 61.6766L14.6509 59.3301C14.6722 58.5527 14.0598 57.9053 13.2824 57.8839L2.12026 57.5767C1.34289 57.5554 0.696114 58.1678 0.674807 58.9452L0.000539542 83.4401C-0.0207675 84.2175 0.591641 84.865 1.36901 84.8863L12.5312 85.1935H12.5697C13.3326 85.1935 13.9567 84.5866 13.9773 83.8244L14.0096 82.6525L16.9095 81.0998C18.0477 80.4874 19.3783 80.3417 20.6217 80.6936L37.9382 85.5537C37.9685 85.5626 37.9987 85.5695 38.0296 85.5763C39.2813 85.8382 40.5569 85.9695 41.8354 85.9688C44.5434 85.9702 47.2199 85.3866 49.6812 84.2567C49.7417 84.2292 49.8001 84.1969 49.8558 84.1605L74.9632 67.9203C75.5886 67.5155 75.7907 66.6941 75.4243 66.0453C73.5603 62.7378 69.426 61.478 66.0341 63.1846ZM2.85363 82.1108L3.45023 60.4298L11.7978 60.6594L11.2012 82.3411L2.85363 82.1108ZM48.4131 81.7424C45.3552 83.1226 41.9398 83.5034 38.653 82.8319L21.3833 77.9841C19.4395 77.435 17.359 77.6625 15.5809 78.6185L14.099 79.4124L14.4956 64.9971C19.1914 61.8739 25.2137 61.5529 30.2147 64.1586L31.2505 64.6954C33.061 65.6301 35.0576 66.1456 37.0942 66.2047L47.2742 66.4845C50.1335 66.5669 52.5618 68.6028 53.1419 71.4044L37.9788 70.9858C37.2014 70.9645 36.5546 71.5776 36.5326 72.3542C36.5113 73.1316 37.1244 73.7791 37.9011 73.8004L54.6348 74.2609H54.674C55.4362 74.2602 56.0596 73.6533 56.0802 72.8917C56.0974 72.28 56.052 71.6676 55.9441 71.0655L67.2541 65.7215C67.2651 65.7167 67.2761 65.7112 67.2871 65.7057C68.8913 64.894 70.8309 65.1655 72.1506 66.3869L48.4131 81.7424Z" fill="white"/>
<path d="M40.0912 14.9326V1.55999C40.0912 0.782622 39.4609 0.152344 38.6835 0.152344C37.9062 0.152344 37.2759 0.782622 37.2759 1.55999V14.9326C37.2759 15.71 37.9062 16.3403 38.6835 16.3403C39.4609 16.3403 40.0912 15.71 40.0912 14.9326Z" fill="white"/>
<path d="M50.6488 14.9335V8.59905C50.6488 7.82168 50.0185 7.19141 49.2411 7.19141C48.4638 7.19141 47.8335 7.82168 47.8335 8.59905V14.9335C47.8335 15.7108 48.4638 16.3411 49.2411 16.3411C50.0185 16.3411 50.6488 15.7108 50.6488 14.9335Z" fill="white"/>
<path d="M29.5321 14.9335V8.59905C29.5321 7.82168 28.9018 7.19141 28.1244 7.19141C27.3471 7.19141 26.7168 7.82168 26.7168 8.59905V14.9335C26.7168 15.7108 27.3471 16.3411 28.1244 16.3411C28.9018 16.3411 29.5321 15.7108 29.5321 14.9335Z" fill="white"/>
</svg>
