<svg width="79" height="57" viewBox="0 0 79 57" fill="none" xmlns="http://www.w3.org/2000/svg">
<path d="M18.3412 40.6104C14.0064 40.6104 10.4812 44.1355 10.4812 48.4703C10.4812 52.8051 14.0064 56.3303 18.3412 56.3303C22.676 56.3303 26.2011 52.8051 26.2011 48.4703C26.2011 44.1355 22.6758 40.6104 18.3412 40.6104ZM18.3412 53.7102C15.4512 53.7102 13.1012 51.3601 13.1012 48.4703C13.1012 45.5804 15.4514 43.2304 18.3412 43.2304C21.2309 43.2304 23.5811 45.5806 23.5811 48.4703C23.5811 51.3601 21.2309 53.7102 18.3412 53.7102Z" fill="white"/>
<path d="M62.8784 40.6104C58.5436 40.6104 55.0184 44.1355 55.0184 48.4703C55.0184 52.8051 58.5436 56.3303 62.8784 56.3303C67.2132 56.3303 70.7384 52.8051 70.7384 48.4703C70.7384 44.1355 67.2132 40.6104 62.8784 40.6104ZM62.8784 53.7102C59.9885 53.7102 57.6385 51.3601 57.6385 48.4703C57.6385 45.5804 59.9886 43.2304 62.8784 43.2304C65.7683 43.2304 68.1183 45.5806 68.1183 48.4703C68.1183 51.3601 65.7683 53.7102 62.8784 53.7102Z" fill="white"/>
<path d="M78.3928 33.3515L66.6028 15.0115C66.3618 14.6367 65.9465 14.4102 65.501 14.4102H51.0912C50.3668 14.4102 49.7812 14.997 49.7812 15.7201V48.4699C49.7812 49.1944 50.3668 49.7799 51.0912 49.7799H56.3311V47.1598H52.4011V17.0302H64.7858L75.981 34.4452V47.1601H69.431V49.78H77.291C78.0154 49.78 78.6009 49.1945 78.6009 48.4701V34.0601C78.6011 33.8098 78.5291 33.5622 78.3928 33.3515Z" fill="white"/>
<path d="M57.6403 31.4399V22.2699H68.1203V19.6499H56.3303C55.6059 19.6499 55.0204 20.2368 55.0204 20.9598V32.7498C55.0204 33.4742 55.6059 34.0597 56.3303 34.0597H75.9802V31.4397H57.6403V31.4399Z" fill="white"/>
<path d="M51.0898 5.24023H1.30994C0.586888 5.24023 0 5.82712 0 6.55018V48.4701C0 49.1945 0.586888 49.78 1.30994 49.78H11.79V47.16H2.62004V7.86012H49.7798V47.16H24.8898V49.78H51.0898C51.8142 49.78 52.3997 49.1945 52.3997 48.4701V6.55018C52.3997 5.82712 51.8142 5.24023 51.0898 5.24023Z" fill="white"/>
<path d="M9.16917 41.9199H1.3092V44.54H9.16917V41.9199Z" fill="white"/>
<path d="M49.7807 41.9199H27.5107V44.54H49.7807V41.9199Z" fill="white"/>
<path d="M77.2889 41.9199H72.049V44.54H77.2889V41.9199Z" fill="white"/>
<path d="M51.09 10.48H5.24011V13.1H51.09V10.48Z" fill="white"/>
<path d="M19.6501 47.1597H17.03V49.7797H19.6501V47.1597Z" fill="white"/>
<path d="M64.1893 47.1597H61.5692V49.7797H64.1893V47.1597Z" fill="white"/>
<path d="M23.5801 0H5.24011V2.62004H23.5801V0Z" fill="white"/>
<path d="M2.62016 0H0.00012207V2.62004H2.62016V0Z" fill="white"/>
</svg>
