<svg width="51" height="41" viewBox="0 0 51 41" fill="none" xmlns="http://www.w3.org/2000/svg">
<path d="M25.2957 25.0056C32.2008 25.0056 37.7985 19.4079 37.7985 12.5028C37.7985 5.5977 32.2008 0 25.2957 0C18.3905 0 12.7928 5.5977 12.7928 12.5028C12.7928 19.4079 18.3905 25.0056 25.2957 25.0056Z" fill="#313131"/>
<path fill-rule="evenodd" clip-rule="evenodd" d="M31.977 9.54636C31.9372 9.05366 31.6797 8.60494 31.2755 8.32155C30.8791 8.03676 30.4743 7.76263 30.0627 7.4996C28.4165 8.25301 26.3132 9.33057 24.6156 10.221C24.0312 10.5248 23.658 11.1217 23.6399 11.7802C23.6186 12.6346 23.6071 13.4894 23.6052 14.3442L22.3211 12.2261L21.037 13.0643C21.0445 12.2534 21.0699 11.4426 21.1116 10.6318C21.1449 9.98951 21.5145 9.41253 22.084 9.11293C23.8692 8.17337 26.0655 7.01477 27.77 6.18171C27.1977 5.88118 26.6147 5.60057 26.0234 5.34079C25.6084 5.16528 25.1403 5.16528 24.7254 5.3394C22.8569 6.10299 21.0727 7.0583 19.402 8.19096C18.9982 8.46139 18.7365 8.89899 18.6898 9.38243C18.5124 11.2389 18.4744 13.1055 18.5763 14.9679C18.6027 15.4222 18.8176 15.8445 19.1695 16.1335C20.7759 17.513 22.5466 18.6892 24.4411 19.6343C24.9106 19.8552 25.4552 19.8491 25.9192 19.619C27.7992 18.6702 29.5917 17.5579 31.2755 16.2942C31.6598 16.0154 31.9043 15.5834 31.9441 15.1101C32.0942 13.2583 32.1043 11.3986 31.977 9.54636Z" fill="white"/>
<path fill-rule="evenodd" clip-rule="evenodd" d="M48.362 33.2298C48.362 32.4032 47.4437 31.7202 46.381 31.7202C45.3173 31.641 44.3912 32.4393 44.3125 33.503C44.3078 33.5646 44.306 33.6276 44.3074 33.6892C44.3074 34.8834 45.1205 35.6451 46.381 35.6451C47.4831 35.6451 48.3625 34.9621 48.3625 34.1096L48.362 33.2298ZM46.0791 30.0147C46.8987 29.9763 47.7026 30.2426 48.3365 30.7621H48.3629V27.5859H50.3046V37.1668H48.5074V36.4842H48.4805C47.8586 37.0992 47.0038 37.4187 46.1314 37.3636C44.1564 37.4669 42.4723 35.9494 42.3681 33.9744C42.3634 33.8795 42.3625 33.7845 42.3648 33.6887C42.3343 31.6901 43.9309 30.0439 45.9309 30.0129C45.98 30.0129 46.03 30.0133 46.0791 30.0147ZM33.8189 30.2115H35.6957V30.8682H35.7226C36.3704 30.2986 37.2095 29.9934 38.0717 30.0147C40.0398 30.0147 41.4049 31.3141 41.4049 33.2034V37.1673H39.4628V33.453C39.4628 32.3903 38.7673 31.7461 37.6522 31.7461C36.7061 31.654 35.8629 32.3453 35.7708 33.2918C35.7652 33.3451 35.7624 33.3988 35.762 33.453V37.1668H33.8194V30.2115H33.8189ZM30.89 32.9413C30.7993 32.1143 30.0769 31.5892 29.0401 31.5892C27.9903 31.5892 27.2679 32.1143 27.1633 32.9413H30.89ZM29.0007 30.0147C30.9863 29.9138 32.6779 31.4414 32.7784 33.4266C32.784 33.5359 32.7849 33.6456 32.7803 33.7544V34.3055H27.1369C27.204 35.2108 27.9514 35.7887 29.1058 35.7887C29.9389 35.7822 30.7242 35.4011 31.2452 34.7514L32.452 35.9596C31.6055 36.8991 30.383 37.4145 29.1193 37.3636C26.6909 37.3636 25.2212 35.9068 25.2212 33.7021C25.1758 31.7086 26.7548 30.0564 28.7479 30.011C28.8326 30.0101 28.9164 30.011 29.0007 30.0147ZM19.0244 34.4768C19.2999 35.3692 20.0089 35.8151 21.1244 35.8151C22.1348 35.8151 22.7127 35.5924 22.7127 35.2113C22.7127 34.8051 22.2927 34.6208 20.9934 34.4245C18.4474 34.0304 17.5421 33.4136 17.5421 32.1666C17.5421 30.8802 18.8281 30.0152 20.7438 30.0152C22.4895 30.0152 24.0774 30.9075 24.4446 32.1143L22.6729 32.6528C22.3117 31.9239 21.5407 31.4914 20.7308 31.5628C19.9297 31.5628 19.405 31.7994 19.405 32.1666C19.405 32.5347 19.7727 32.6658 21.3082 32.9288C23.6569 33.296 24.5891 33.9392 24.5891 35.1978C24.5891 36.4981 23.1985 37.3645 21.1114 37.3645C20.1992 37.3932 19.2976 37.1617 18.5127 36.6949C17.8445 36.3096 17.3685 35.6627 17.2004 34.9103L19.0244 34.4768ZM12.7633 31.7207C11.676 31.7276 10.8003 32.6148 10.8073 33.7017C10.8142 34.7885 11.701 35.6641 12.7883 35.6572C13.8705 35.6507 14.7443 34.7718 14.7443 33.6892C14.7924 32.65 13.9881 31.7684 12.949 31.7202C12.8865 31.717 12.8244 31.7174 12.7633 31.7207ZM12.7633 30.0147C15.0332 30.0147 16.6868 31.6285 16.6868 33.6892C16.6868 35.7498 15.0337 37.3645 12.7633 37.3645C10.7341 37.5007 8.9777 35.9665 8.8411 33.9383C8.70449 31.9082 10.2386 30.1523 12.2678 30.0156C12.4326 30.0041 12.598 30.0041 12.7633 30.0147ZM5.93582 33.2955C5.93582 32.5083 5.04303 31.785 4.04604 31.785C2.78604 31.785 1.94603 32.5472 1.94603 33.6887C1.87565 34.7019 2.63971 35.5799 3.6529 35.6493C3.75801 35.6567 3.86359 35.6549 3.96778 35.6442C5.05599 35.6442 5.93582 34.9612 5.93582 34.1087V33.2955ZM1.78859 37.5085C2.31927 38.2656 3.20141 38.6958 4.12476 38.65C5.2139 38.65 6.015 37.9545 6.015 37.0093V36.5111H5.98861C5.39125 37.0945 4.57718 37.3992 3.74366 37.3506C1.73626 37.4104 0.0608886 35.8308 0.00161599 33.8239C-0.0576566 31.817 1.52094 30.1411 3.52787 30.0814C3.57788 30.0805 3.62836 30.0796 3.67883 30.0805C4.52763 30.0263 5.36115 30.3203 5.98861 30.8941H6.015V30.2115H7.87792V36.9829C7.87792 38.951 6.316 40.3166 4.12476 40.3166C2.68926 40.3944 1.3033 39.7799 0.397075 38.6634L1.78859 37.5085Z" fill="#313131"/>
</svg>
