<svg width="97" height="21" viewBox="0 0 97 21" fill="none" xmlns="http://www.w3.org/2000/svg">
<path fill-rule="evenodd" clip-rule="evenodd" d="M20.1006 0L14.3075 0.000857094C11.8888 10.7291 10.685 16.0401 10.685 16.0401L2.11559 16.0399L0 20.0524H15.5283L20.1006 0ZM96.1398 12.4561L95.6326 13.8125C94.9379 13.414 93.7522 13.3167 93.2337 13.7348C92.8754 14.0235 92.8033 14.5079 93.2106 14.8874C93.7164 15.323 94.2628 15.4614 94.86 15.9655C95.1219 16.1505 95.4193 16.5182 95.5444 16.827C95.6694 17.1359 95.6963 17.6104 95.6193 18.0175C95.4941 18.6788 95.2367 19.0892 94.6519 19.5349C94.0975 19.9573 93.0749 20.208 92.2145 20.1541C90.7881 20.0646 90.4291 19.7279 90.239 19.6107L90.8084 18.25C91.1334 18.5021 92.0072 18.8369 92.8113 18.7654C93.1757 18.7328 93.4043 18.6448 93.6671 18.4288C94.0009 18.1541 93.9597 17.647 93.8622 17.4903C93.7464 17.2914 93.5401 17.0366 93.0021 16.7446C92.333 16.3818 91.7288 16.0704 91.4295 15.4424C90.9735 14.4855 91.3295 13.3612 92.1398 12.7143C92.6717 12.2894 93.482 12.0822 94.2129 12.0686C95.0479 12.0536 95.6646 12.1954 96.1398 12.4561ZM79.9605 12.1942L84.5845 12.1943L84.3459 13.5819H81.2365L80.9374 15.3317H83.771L83.5335 16.6939L80.703 16.6923L80.3666 18.6515H83.4787L83.235 20.0523H78.452L79.9605 12.1942ZM53.8401 12.1942L58.4641 12.1943L58.2255 13.5819H55.1162L54.817 15.3317H57.6507L57.4132 16.6939L54.5826 16.6923L54.2462 18.6515H57.3583L57.1146 20.0523H52.3316L53.8401 12.1942ZM59.2555 12.1952L60.6347 16.0407L57.6536 20.0536H59.6578L61.4165 17.0452L62.4066 20.0536H64.1714L62.6527 16.0415L65.4929 12.1952H63.565L61.8415 15.0011L60.9635 12.1952H59.2555ZM66.4829 12.3343C67.037 12.2679 67.5853 12.1522 68.1451 12.135C69.2243 12.1022 70.6897 12.274 71.2309 13.3521C71.4598 13.8079 71.5111 14.2648 71.3881 14.9157C71.2054 15.8821 70.5153 16.5833 69.6233 16.9453C69.0885 17.1637 68.6658 17.2164 68.2481 17.2427C67.9074 17.264 67.5363 17.284 67.1656 17.1933L66.6408 20.0521L65.0409 20.0531L66.4829 12.3343ZM67.8714 13.5094L67.4299 15.8408C67.5286 15.9231 67.802 15.9334 68.0676 15.9345C68.595 15.9368 68.9217 15.8161 69.1279 15.6491C69.3776 15.4483 69.671 15.2583 69.7569 14.8053C69.8209 14.4663 69.8029 14.1918 69.7029 13.9818C69.6029 13.7718 69.4023 13.6398 69.2596 13.5544C69.0037 13.401 68.0206 13.4051 67.8714 13.5094ZM73.0977 12.3423C73.9518 12.1956 74.9199 12.0837 75.6776 12.1589C77.0116 12.291 77.4662 12.6753 77.7881 13.0815C78.0907 13.4629 78.2271 14.0502 78.0261 14.7612C77.789 15.5997 77.1933 15.9777 76.2872 16.3691C76.5135 16.4602 76.7586 16.6689 76.8828 16.9887C77.1973 17.799 77.196 19.7433 77.3737 20.0526H75.7061C75.3841 19.1893 75.7211 17.4994 74.9816 17.0436C74.678 16.8563 73.8285 16.9092 73.8285 16.9092L73.252 20.0527H71.6496L73.0977 12.3423ZM74.4869 13.5582L74.0811 15.7004C74.6902 15.7058 75.2369 15.735 75.655 15.5473C75.9531 15.4134 76.3235 15.0259 76.3938 14.6302C76.5637 13.6738 75.7593 13.4118 75.1857 13.4262C74.8173 13.4357 74.5201 13.4068 74.4869 13.5582ZM90.1729 12.4561C89.6979 12.1954 89.0809 12.0536 88.2461 12.0687C87.5152 12.0823 86.7049 12.2896 86.173 12.7144C85.3627 13.3612 85.0067 14.4855 85.4629 15.4425C85.762 16.0705 86.3664 16.3819 87.0353 16.7448C87.5734 17.0367 87.7796 17.2916 87.8954 17.4904C87.9929 17.6473 88.0343 18.1543 87.7003 18.429C87.4375 18.6451 87.209 18.7331 86.8445 18.7655C86.0403 18.8371 85.1666 18.5021 84.8416 18.2501L84.2722 19.6109C84.4623 19.7279 84.8213 20.0647 86.2477 20.1543C87.1081 20.2081 88.1309 19.9574 88.6851 19.535C89.2701 19.0893 89.5273 18.6789 89.6525 18.0177C89.7295 17.6106 89.7026 17.136 89.5776 16.8272C89.4525 16.5183 89.1551 16.1507 88.8932 15.9657C88.2961 15.4615 87.7497 15.3231 87.2439 14.8876C86.8366 14.508 86.9086 14.0236 87.2669 13.7349C87.7856 13.3168 88.9711 13.4141 89.6658 13.8126L90.1729 12.4561ZM38.9442 0.00642821L35.9817 5.45426H44.7809L41.1729 20.0524H46.8149L50.4274 5.45198H56.9241L58.4687 3.89492L52.5356 3.89449L53.3068 3.11854L59.2403 3.11997L60.2584 2.08617H54.4148L55.2187 1.28807H61.0674L62.336 0.00442832L38.9442 0.00642821ZM32.9318 5.5034C33.0741 4.67388 33.0194 3.91663 32.6781 3.45309C32.1916 2.79256 31.1925 2.66328 30.5887 2.64742C29.472 2.61842 28.0697 3.42381 27.748 4.956C27.3423 6.88761 29.338 8.9732 33.2941 12.3193C33.7662 12.1146 34.1579 9.95115 34.3738 9.07448L38.3477 10.2197C38.0453 12.5027 37.0548 14.5799 36.1637 15.8187L39.6416 20.0531L34.393 20.0533L33.292 18.8454C28.8189 20.9434 23.7507 20.3163 21.1345 18.1924C17.918 14.5596 20.9648 10.4761 24.5399 8.20653C22.7817 6.23007 22.3389 4.45275 22.4604 2.61271C22.5079 2.42286 23.0584 0.00271413 23.0584 0.00271413L35.9625 0.00685675L32.9318 5.5034ZM27.2433 11.2884C25.785 12.2874 25.0334 12.8971 24.7286 13.8592C24.5052 14.5643 24.8793 15.2927 25.3101 15.7531C26.4546 16.9759 28.5644 17.1137 30.9405 15.7288L27.2433 11.2884Z" fill="#313131"/>
</svg>
