<svg width="57" height="23" viewBox="0 0 57 23" fill="none" xmlns="http://www.w3.org/2000/svg">
<path fill-rule="evenodd" clip-rule="evenodd" d="M54.1531 0.0292969H40.9922L37.4366 16.8438L50.5468 16.8581L51.4355 12.706H44.7806L46.5997 4.10366H53.1617L54.1531 0.0292969Z" fill="#313131"/>
<path fill-rule="evenodd" clip-rule="evenodd" d="M0 16.981C8.23247 14.0786 24.7997 5.84256 56.5222 5.60547L55.3315 11.2039C42.8944 10.4369 23.997 11.1474 0 16.981Z" fill="#C7C7C7"/>
<path fill-rule="evenodd" clip-rule="evenodd" d="M35.0774 22.6183L35.5644 18.8733H37.3659L37.2728 19.5898H36.0657L35.9744 20.3117H37.1374L37.0458 21.0073H35.8812L35.7677 21.8807H37.0696L36.9716 22.6183H35.0774ZM37.8506 22.6183L38.0082 22.3244L38.0694 22.2146L38.2377 21.9001L38.4303 21.519L38.4507 21.4782C38.461 21.5226 38.4911 21.6305 38.5406 21.8023L38.7928 22.6183H39.4243L38.8412 20.8173L39.9159 18.8733H39.1897L39.0085 19.208L38.9405 19.3335C38.889 19.4243 38.7719 19.6423 38.5896 19.9884L38.5658 20.0344C38.5638 20.0275 38.5608 20.0178 38.5576 20.0049C38.5544 19.9926 38.5405 19.9465 38.5153 19.868L38.4759 19.7425L38.2017 18.8734H37.5823L38.1764 20.6718L37.1047 22.6184H37.8506V22.6183ZM40.4621 21.2113L40.2777 22.6183H39.68L40.1706 18.8733H41.1646C41.3057 18.8733 41.4168 18.8907 41.4999 18.9247C41.5822 18.9587 41.6531 19.0162 41.7132 19.0981C41.7731 19.1766 41.8192 19.2814 41.8517 19.4128C41.8844 19.5436 41.9006 19.6865 41.9006 19.8417C41.9006 20.0457 41.8748 20.2375 41.8237 20.4163C41.772 20.5958 41.7011 20.7484 41.6106 20.874C41.5203 21.0004 41.4192 21.0858 41.3069 21.1319C41.2206 21.1659 41.1469 21.1875 41.0861 21.1972C41.0249 21.2068 40.92 21.2111 40.771 21.2111H40.4621V21.2113ZM40.5487 20.5365H40.716C40.8591 20.5365 40.9623 20.5226 41.0263 20.4957C41.0527 20.4868 41.0869 20.466 41.1301 20.4321C41.1893 20.3753 41.2355 20.2994 41.2688 20.2035C41.3028 20.1068 41.3196 20.0066 41.3196 19.9028C41.3196 19.8314 41.3107 19.7695 41.2942 19.7162C41.2776 19.6639 41.2549 19.6265 41.2264 19.6037C41.1792 19.5663 41.0908 19.5481 40.9616 19.5481H40.681L40.5487 20.5365ZM42.5334 22.6183H41.9363L42.4232 18.8733H43.5952C43.7068 18.8733 43.7946 18.8838 43.8573 18.9039C43.9203 18.9247 43.9766 18.9595 44.0273 19.0094C44.1134 19.0888 44.1795 19.2021 44.2247 19.3476C44.2701 19.4932 44.2927 19.6632 44.2927 19.8575C44.2927 19.9848 44.2813 20.1086 44.2587 20.2281C44.2361 20.3466 44.2043 20.4547 44.1641 20.5506C44.1238 20.6473 44.0747 20.724 44.0178 20.7825C43.9479 20.8619 43.886 20.9176 43.8323 20.948C43.7784 20.9785 43.6967 21.0065 43.5863 21.0318C43.6422 21.1082 43.6876 21.1781 43.7213 21.2401C43.7558 21.302 43.7869 21.3768 43.8155 21.4649C43.8435 21.5531 43.8843 21.7012 43.9365 21.9095C43.9892 22.1179 44.0404 22.328 44.0898 22.5389C44.0952 22.5615 44.1013 22.5878 44.1087 22.6183H43.4761C43.4639 22.5572 43.4256 22.3985 43.3626 22.1432C43.2965 21.8739 43.2519 21.6995 43.2293 21.6192C43.2066 21.5391 43.1804 21.4615 43.1502 21.3847C43.1087 21.2652 43.0647 21.1851 43.0168 21.1433C42.9688 21.1013 42.9006 21.0805 42.8112 21.0805C42.7762 21.0805 42.7506 21.0823 42.7339 21.0858L42.5334 22.6183ZM42.8138 20.4477H43.008H43.1068C43.2082 20.4441 43.2823 20.4398 43.3302 20.4338C43.3782 20.4276 43.4206 20.4164 43.4571 20.4007C43.4939 20.3841 43.5261 20.3614 43.5535 20.3325C43.6034 20.2828 43.6428 20.2201 43.6719 20.1424C43.7002 20.0648 43.7148 19.9838 43.7148 19.8985C43.7148 19.7059 43.6503 19.5994 43.5218 19.5794C43.4871 19.5723 43.4373 19.5689 43.3721 19.5689H42.9305L42.8138 20.4477ZM44.3576 22.6183L44.8445 18.8733H46.646L46.5529 19.5898H45.3459L45.2543 20.3117H46.4175L46.3259 21.0073H45.1614L45.0477 21.8807H46.3496L46.2518 22.6183H44.3576ZM46.6878 21.3953L47.2499 21.3369C47.2511 21.4544 47.2547 21.5391 47.2607 21.5922C47.2672 21.6445 47.2811 21.703 47.3031 21.7658C47.3622 21.9158 47.4806 21.9906 47.6593 21.9906C47.7389 21.9906 47.8083 21.9732 47.8674 21.9383C47.9261 21.9035 47.972 21.853 48.0042 21.7874C48.037 21.7221 48.053 21.6462 48.053 21.5617C48.053 21.471 48.0317 21.3944 47.989 21.3298C47.9465 21.2661 47.8729 21.199 47.7679 21.1277C47.5705 20.9997 47.4274 20.8984 47.3382 20.8242C47.249 20.7503 47.1757 20.6702 47.118 20.5828C47.0696 20.5098 47.031 20.4147 47.0019 20.2969C46.9734 20.1793 46.959 20.0589 46.959 19.9342C46.959 19.7076 46.995 19.5097 47.0675 19.3407C47.1404 19.1715 47.244 19.0408 47.379 18.9483C47.514 18.8568 47.6707 18.8105 47.8492 18.8105C48.1348 18.8105 48.3565 18.9055 48.5141 19.0964C48.6717 19.2874 48.7601 19.5664 48.7787 19.9342L48.2173 19.9778C48.1984 19.6317 48.0694 19.4592 47.8296 19.4592C47.7353 19.4592 47.6602 19.4897 47.604 19.5515C47.5485 19.6126 47.5208 19.6971 47.5208 19.8044C47.5208 19.8837 47.5384 19.9507 47.5745 20.003C47.6078 20.0493 47.6379 20.0833 47.6648 20.1068C47.6918 20.1294 47.7519 20.1739 47.8456 20.2384C48.0122 20.3545 48.122 20.4321 48.1747 20.472C48.2274 20.5122 48.2727 20.5505 48.3103 20.5881C48.3726 20.6526 48.4189 20.7126 48.449 20.7668C48.5657 20.9505 48.6245 21.1826 48.6245 21.4615C48.6245 21.5599 48.6159 21.6576 48.5992 21.7535C48.5825 21.8493 48.5568 21.9436 48.5217 22.0341C48.4873 22.1257 48.4458 22.2077 48.3981 22.2818C48.3502 22.3558 48.2973 22.4194 48.2392 22.4719C48.1522 22.5466 48.0623 22.6 47.9704 22.6323C47.8779 22.6644 47.7687 22.6811 47.6427 22.6811C47.4911 22.6811 47.3561 22.6539 47.2372 22.6009C47.1176 22.5467 47.017 22.4685 46.9353 22.3638C46.8534 22.2591 46.7917 22.1302 46.7502 21.9786C46.7087 21.8259 46.6879 21.6542 46.6879 21.4616V21.3953H46.6878ZM48.9412 21.3953L49.5034 21.3369C49.5044 21.4544 49.5081 21.5391 49.514 21.5922C49.5205 21.6445 49.5345 21.703 49.5564 21.7658C49.6156 21.9158 49.734 21.9906 49.9127 21.9906C49.9922 21.9906 50.0617 21.9732 50.1208 21.9383C50.1794 21.9035 50.2253 21.853 50.2575 21.7874C50.2904 21.7221 50.3063 21.6462 50.3063 21.5617C50.3063 21.471 50.2849 21.3944 50.2425 21.3298C50.1999 21.2661 50.1261 21.199 50.0213 21.1277C49.8239 20.9997 49.6808 20.8984 49.5916 20.8242C49.5023 20.7503 49.429 20.6702 49.3713 20.5828C49.323 20.5098 49.2843 20.4147 49.2552 20.2969C49.2267 20.1793 49.2123 20.0589 49.2123 19.9342C49.2123 19.7076 49.2484 19.5097 49.3209 19.3407C49.3935 19.1715 49.4973 19.0408 49.6324 18.9483C49.7674 18.8568 49.9239 18.8105 50.1025 18.8105C50.3883 18.8105 50.6098 18.9055 50.7674 19.0964C50.925 19.2873 51.0134 19.5664 51.0322 19.9342L50.4707 19.9778C50.4517 19.6317 50.3228 19.4592 50.0826 19.4592C49.9887 19.4592 49.9133 19.4897 49.8574 19.5515C49.8019 19.6126 49.7742 19.6971 49.7742 19.8044C49.7742 19.8837 49.7918 19.9507 49.8278 20.003C49.8613 20.0493 49.8914 20.0833 49.9183 20.1068C49.9452 20.1294 50.0053 20.1739 50.0991 20.2384C50.2657 20.3545 50.3755 20.4321 50.4282 20.472C50.4808 20.5122 50.5262 20.5505 50.5638 20.5881C50.6261 20.6526 50.6724 20.7126 50.7024 20.7668C50.8192 20.9505 50.8779 21.1826 50.8779 21.4615C50.8779 21.5599 50.8693 21.6576 50.8525 21.7535C50.8358 21.8493 50.8102 21.9436 50.7752 22.0341C50.7408 22.1257 50.6992 22.2077 50.6515 22.2818C50.6036 22.3558 50.5507 22.4194 50.4926 22.4719C50.4056 22.5466 50.3158 22.6 50.2238 22.6323C50.1314 22.6644 50.0221 22.6811 49.8961 22.6811C49.7445 22.6811 49.6095 22.6539 49.4906 22.6009C49.3711 22.5467 49.2705 22.4685 49.1888 22.3638C49.1069 22.2591 49.0453 22.1302 49.0037 21.9786C48.9622 21.8259 48.9413 21.6542 48.9413 21.4616V21.3953H48.9412Z" fill="#313131"/>
<path fill-rule="evenodd" clip-rule="evenodd" d="M14.0156 0H20.2582L17.657 11.8586C17.01 14.809 14.4718 16.856 11.4512 16.864L5.84131 16.8786L6.85059 11.8305H9.79246C10.8393 11.8305 11.7194 11.1135 11.9312 10.0883L14.0156 0ZM17.9948 16.8494L24.3783 16.8365L26.1983 8.90216L29.9957 16.8507H36.0249L39.7011 0.042583H33.5731L31.8669 7.80602L28.0198 0.0558291H21.6776L17.9948 16.8494Z" fill="#313131"/>
</svg>
