<svg width="87" height="26" viewBox="0 0 87 26" fill="none" xmlns="http://www.w3.org/2000/svg">
<path fill-rule="evenodd" clip-rule="evenodd" d="M8.24971 0.0736174L24.635 7.02881C25.1065 7.22889 25.3285 7.77819 25.1283 8.24971L18.1731 24.635C17.973 25.1064 17.4235 25.3284 16.9522 25.1283L0.566886 18.1731C0.0955368 17.973 -0.126459 17.4235 0.0736174 16.9522L7.02881 0.566886C7.22905 0.0955368 7.77836 -0.126459 8.24971 0.0736174Z" fill="#313131"/>
<path fill-rule="evenodd" clip-rule="evenodd" d="M24.2271 7.9043C24.2619 7.99033 24.264 8.08987 24.225 8.18167L17.4967 24.0325C17.4188 24.2161 17.2048 24.3026 17.0213 24.2245L1.17058 17.4964C1.07879 17.4575 1.01138 17.3843 0.97644 17.2983L24.2271 7.9043Z" fill="#313131"/>
<path fill-rule="evenodd" clip-rule="evenodd" d="M8.26315 1.51652L23.5892 8.02212C23.6824 8.06151 23.7262 8.16995 23.6866 8.26323L17.1812 23.5892C17.1416 23.6821 17.0332 23.7261 16.9401 23.6866L1.61416 17.181C1.52104 17.1416 1.47721 17.0331 1.51676 16.9398L8.02203 1.61392C8.06159 1.5208 8.17003 1.47696 8.26315 1.51652Z" fill="#313131"/>
<path fill-rule="evenodd" clip-rule="evenodd" d="M23.6868 8.12109C23.7044 8.16477 23.7056 8.2152 23.6858 8.26184L17.1804 23.5878C17.1408 23.6807 17.0324 23.7245 16.9392 23.6852L1.61333 17.1796C1.56668 17.1599 1.53257 17.1229 1.51477 17.0792L23.6868 8.12109Z" fill="#313131"/>
<path fill-rule="evenodd" clip-rule="evenodd" d="M20.8728 8.57812L11.3623 13.3724L10.4176 9.12364L20.8728 8.57812Z" fill="white"/>
<path fill-rule="evenodd" clip-rule="evenodd" d="M4.56787 16.7981L14.0782 12.0039L15.0231 16.2526L4.56787 16.7981Z" fill="white"/>
<path fill-rule="evenodd" clip-rule="evenodd" d="M11.3598 13.3726L14.0747 12.0039L14.2747 12.9034L11.3596 13.3726H11.3598Z" fill="white"/>
<path fill-rule="evenodd" clip-rule="evenodd" d="M28.7376 15.0196C28.9754 15.0954 29.2248 15.1548 29.4842 15.1975C29.7004 15.2517 29.9468 15.294 30.2224 15.3258C30.4981 15.3575 30.7765 15.373 31.0575 15.3717C31.5545 15.3695 31.8024 15.182 31.8007 14.8085C31.8002 14.6663 31.7238 14.5208 31.572 14.3733C31.4197 14.2257 31.2274 14.0621 30.9943 13.8821C30.7613 13.7022 30.512 13.5029 30.246 13.2842C29.9803 13.0663 29.7306 12.8148 29.4972 12.5305C29.2632 12.2461 29.0702 11.9259 28.9174 11.5697C28.7643 11.2141 28.6872 10.8052 28.6852 10.3444C28.6829 9.82869 28.7727 9.37267 28.9548 8.97664C29.1366 8.58077 29.3893 8.25049 29.7123 7.98565C30.0357 7.72097 30.4157 7.51908 30.8528 7.37998C31.2902 7.24088 31.7569 7.17018 32.2543 7.16804C32.5135 7.16689 32.7731 7.17974 33.0325 7.20578C33.2919 7.23215 33.5245 7.25605 33.73 7.27681C33.9676 7.30879 34.2002 7.34076 34.4273 7.37273L34.4406 10.451C34.3539 10.4408 34.2567 10.4301 34.1489 10.4194C34.0622 10.4091 33.9647 10.3984 33.8569 10.3882C33.7484 10.3778 33.6349 10.3724 33.5164 10.3729C33.4515 10.3732 33.3702 10.3763 33.2731 10.3821C33.1761 10.3884 33.0839 10.4024 32.9977 10.4245C32.9112 10.4474 32.8359 10.4858 32.7713 10.541C32.7065 10.5964 32.6747 10.673 32.675 10.7717C32.6754 10.8597 32.7487 10.9687 32.8954 11.1C33.0416 11.2309 33.2207 11.384 33.432 11.5587C33.6438 11.7335 33.8768 11.9353 34.1319 12.1647C34.3867 12.3939 34.6203 12.6565 34.8325 12.9518C35.0445 13.2471 35.2241 13.5814 35.3716 13.9535C35.5193 14.3263 35.5938 14.7429 35.5958 15.2039C35.5979 15.6868 35.5244 16.14 35.3746 16.5629C35.2253 16.9863 34.9917 17.3546 34.6743 17.6689C34.3566 17.9832 33.9497 18.2316 33.4533 18.4148C32.957 18.5979 32.3685 18.6914 31.6877 18.6942C31.2765 18.696 30.8956 18.6782 30.5444 18.6414C30.1929 18.6045 29.8817 18.5594 29.6114 18.5055C29.2976 18.4519 29.0112 18.3875 28.7513 18.3118L28.7376 15.0196Z" fill="#313131"/>
<path d="M36.7456 18.7091L40.4098 18.6934L40.3601 7.13427L36.6959 7.15002L36.7456 18.7091Z" fill="#313131"/>
<path fill-rule="evenodd" clip-rule="evenodd" d="M41.6842 12.9076C41.6804 12.0296 41.8282 11.2359 42.1278 10.5269C42.4271 9.81759 42.8355 9.20978 43.3523 8.70267C43.869 8.19589 44.4724 7.80628 45.1629 7.53402C45.8531 7.26242 46.5878 7.12464 47.3659 7.12118C47.9819 7.11854 48.5304 7.17672 49.0122 7.29538C49.4936 7.41421 49.9076 7.54935 50.2541 7.70147C50.6548 7.87534 51.0014 8.06618 51.2942 8.27318L49.6051 11.3262C49.4316 11.195 49.2419 11.0698 49.0362 10.9498C48.852 10.8631 48.6324 10.7787 48.3783 10.6975C48.1242 10.6164 47.8348 10.5767 47.5106 10.5778C47.1754 10.5793 46.8678 10.6411 46.5872 10.7629C46.3063 10.885 46.0614 11.0507 45.8516 11.2598C45.642 11.4693 45.4779 11.7145 45.3605 11.9945C45.2423 12.275 45.1848 12.5743 45.186 12.8926C45.1871 13.2108 45.2504 13.5096 45.376 13.7888C45.5016 14.0683 45.6728 14.3119 45.8897 14.5197C46.1068 14.727 46.3616 14.8907 46.6541 15.01C46.9463 15.1298 47.2654 15.1885 47.6113 15.187C47.9572 15.1855 48.2649 15.1404 48.5349 15.0512C48.8047 14.9624 49.0311 14.8628 49.2145 14.7521C49.4301 14.6306 49.6187 14.4871 49.78 14.3219L51.4955 17.36C51.2046 17.6029 50.8598 17.8183 50.4607 18.0067C50.1154 18.1616 49.7002 18.3062 49.2142 18.4398C48.7285 18.5736 48.172 18.6422 47.5455 18.6447C46.7022 18.6483 45.9235 18.5117 45.2091 18.235C44.4943 17.9582 43.8766 17.5686 43.3556 17.0658C42.8347 16.5636 42.4266 15.9588 42.1321 15.2519C41.8374 14.5449 41.6879 13.7634 41.6842 12.9076Z" fill="#313131"/>
<path fill-rule="evenodd" clip-rule="evenodd" d="M52.2607 7.1408L58.632 7.11328L58.645 10.1217L55.7266 10.1342L55.7322 11.4065L58.6019 11.3941L58.6142 14.2476L55.7446 14.26L55.7502 15.5837L58.782 15.5707L58.7949 18.5793L52.3102 18.6071L52.2607 7.1408Z" fill="#313131"/>
<path fill-rule="evenodd" clip-rule="evenodd" d="M63.8683 12.7287L64.0217 12.728C64.4978 12.7258 64.8398 12.6123 65.0488 12.3868C65.2577 12.1617 65.3612 11.8478 65.3594 11.4445C65.3576 11.0418 65.2516 10.7282 65.0405 10.5046C64.8297 10.2811 64.4868 10.1707 64.0105 10.1727L63.8572 10.1733L63.8683 12.7287ZM69.0668 11.4285C69.0702 12.2229 68.9369 12.8997 68.6673 13.4592C68.3975 14.0189 68.028 14.4721 67.5594 14.8194C67.0901 15.1666 66.5416 15.4226 65.9128 15.5864C65.2846 15.7506 64.6072 15.8336 63.8818 15.8369L63.8936 18.5826L60.2713 18.5983L60.2216 7.08021L63.8439 7.06455C64.5693 7.06126 65.2474 7.13938 65.8771 7.29776C66.5071 7.45614 67.0579 7.70681 67.5301 8.05043C68.0016 8.39372 68.3751 8.84398 68.6498 9.40103C68.9244 9.95857 69.0635 10.6341 69.0668 11.4285Z" fill="#313131"/>
<path fill-rule="evenodd" clip-rule="evenodd" d="M80.9678 9.97792L78.9738 9.98666L78.9608 6.95239L86.5154 6.91992L86.5286 9.95402L84.5344 9.96276L84.5713 18.4932L81.0048 18.5085L80.9678 9.97792Z" fill="#313131"/>
<path fill-rule="evenodd" clip-rule="evenodd" d="M74.0736 6.58984L71.9967 10.1456L75.3527 8.61368L74.0736 6.58984Z" fill="#313131"/>
<path fill-rule="evenodd" clip-rule="evenodd" d="M76.8295 15.1811L71.921 17.9366L80.5729 17.8994L76.2431 10.5371L74.6453 12.0425L75.7441 13.6099L76.8295 15.1811Z" fill="#313131"/>
<path fill-rule="evenodd" clip-rule="evenodd" d="M71.2909 11.8672L68.0394 17.9543L69.9458 17.9461L72.9769 14.2129L71.2909 11.8672Z" fill="#313131"/>
<path fill-rule="evenodd" clip-rule="evenodd" d="M74.682 12.0469L72.7915 14.5112L75.1375 12.6989L74.682 12.0469Z" fill="#313131"/>
</svg>
