<svg width="74" height="23" viewBox="0 0 74 23" fill="none" xmlns="http://www.w3.org/2000/svg">
<path d="M40.1229 10.9485C44.7556 8.84722 45.4407 1.99023 38.8511 1.99023H31.2199L28.3997 7.52006H29.7269L26.3536 20.7363H35.2013C41.6562 20.7915 44.5591 13.1907 40.1229 10.9485ZM35.2013 15.9254H32.9894L33.8188 12.9394H35.9201C38.4085 13.4369 36.8604 16.0359 35.2013 15.9254ZM36.5285 9.56598H34.6484L35.2013 6.967H37.3026C39.333 7.46473 37.5793 9.67666 36.5285 9.56598Z" fill="#606060"/>
<path d="M58.2392 9.05358L61.1362 3.93934L57.2161 1.89453L56.7048 2.52561C54.59 1.40616 43.5163 2.95182 42.8229 13.8756C43.2374 23.0393 53.5056 21.3909 54.5128 20.8095L57.337 14.9714C54.571 16.7933 48.9075 17.6679 48.6679 12.1952C49.1647 7.68218 54.493 5.99683 58.2392 9.05358ZM72.6959 1.99125H63.7896L60.9587 7.35555H62.413L55.7011 20.7373H62.1978L63.5316 17.5097H67.5196L67.619 20.7373H73.5995L72.6959 1.99125ZM65.3384 13.164L67.5195 7.95792L67.6189 13.164H65.3384Z" fill="#606060"/>
<path d="M17.0766 19.8415L17.4225 19.7412L17.0431 19.2168L17.0766 19.8415ZM11.3966 19.7523L11.3297 20.221C11.5019 20.2041 11.7138 20.3526 11.7984 20.0201C11.792 19.761 11.5948 19.7467 11.3966 19.7523ZM14.153 19.7412C14.1243 19.6135 14.0177 19.5195 13.7512 19.6073L13.8405 20.087C14.0594 20.0385 14.172 19.9089 14.153 19.7412ZM7.92613 19.3486L7.81958 19.7748C7.99083 19.7819 8.19141 19.9208 8.3051 19.6682C8.31271 19.51 8.31921 19.3524 7.92613 19.3486ZM13.9186 20.4442L13.9968 20.9353C14.1796 20.9399 14.3464 20.83 14.2981 20.6005C14.2515 20.3798 14.0661 20.4147 13.9186 20.4442Z" fill="#606060"/>
<path d="M21.1768 2.24276C15.2677 -0.767518 8.21061 -0.683797 2.58041 2.11147C-0.32285 7.22237 -0.415291 14.3733 2.58041 20.7069C8.78318 23.8458 15.6435 23.639 21.2204 20.8382C23.8414 15.4609 24.2743 8.99033 21.1768 2.24276ZM11.197 17.5039L10.8467 17.5079C10.76 16.5401 10.5286 15.7266 10.0323 15.1041C7.75649 12.2502 3.1043 14.3988 4.29969 9.54862C4.92125 7.06904 12.011 5.60664 11.197 17.5039ZM4.3081 12.7135C4.80503 13.725 7.91838 13.8907 8.99914 14.6649C10.7135 15.893 10.4674 17.5084 10.4674 17.5084H10.0631C9.2671 15.0686 7.03313 17.0004 5.24377 16.3433C4.12036 15.9437 3.30472 14.2117 4.3081 12.7135ZM9.98047 20.6671L10.1479 19.3391L10.4492 19.3615L10.3152 20.8233C10.1801 21.4672 9.22001 21.3811 9.09887 20.7674L9.25505 19.2499L9.61213 19.3058L9.45595 20.5778C9.47577 20.9988 9.89802 20.9736 9.98047 20.6671ZM8.37726 21.0297L8.03381 20.9468C8.07409 20.663 8.41071 20.0855 7.74539 20.0855L7.56019 20.8402L7.18123 20.7692L7.58382 18.9573C8.56785 19.0645 8.65395 19.3383 8.67345 19.6323C8.6346 19.8603 8.57387 20.0195 8.37742 20.0585C8.60733 20.2672 8.38011 20.7045 8.37726 21.0297ZM6.19593 19.0003C6.10127 19.1259 5.91179 19.5646 5.88436 19.9142C5.85518 20.2848 6.21115 20.2068 6.29979 20.1635C6.3713 20.1288 6.42442 19.8311 6.42442 19.8311L6.17516 19.7481L6.25824 19.499L6.81923 19.6859L6.5492 20.6208L6.32072 20.5583L6.34149 20.4129C6.06179 20.5404 5.54979 20.4448 5.4897 20.1221C5.4296 19.8629 5.61163 19.0769 5.90513 18.7096C6.19038 18.3526 6.88535 18.7016 6.90232 18.9174C6.91913 19.1324 6.8343 19.3743 6.8343 19.3743L6.57267 19.325C6.57267 19.325 6.58869 19.2473 6.61152 19.1249C6.63562 18.9952 6.29741 18.8654 6.19593 19.0003ZM11.2973 20.5218L11.2304 21.3254L10.9515 21.3143L11.0519 19.406C11.7484 19.4205 12.1477 19.5169 12.1344 20.0087C12.0928 20.6807 11.5486 20.5296 11.2973 20.5218ZM11.9917 17.5082H11.525C11.4836 15.8557 11.8014 12.8331 10.9331 10.6086C10.2752 8.92231 8.61034 8.16375 8.24137 6.80155C7.65723 4.64544 8.65141 2.31253 11.9917 2.13288C14.8875 2.43018 15.7772 4.66573 15.2832 6.74717C14.434 8.82828 13.5846 8.52923 12.5271 10.6023C11.6634 12.8245 11.9923 15.7358 11.9917 17.5082ZM17.167 20.5666L16.8433 20.6782L16.7428 18.7588L17.1222 18.6584L18.0597 20.2429L17.8029 20.4104L17.4904 19.9642L17.1333 20.098L17.167 20.5666ZM13.3914 17.5082H13.0182C13.3258 13.2642 18.659 14.1862 19.1464 12.7135C19.9893 14.1735 19.6863 15.4046 18.8062 16.0357C16.619 17.6045 14.5217 14.8747 13.3914 17.5082ZM15.3705 19.6517L15.5379 20.5333C15.6421 20.7364 15.7128 20.6988 15.8726 20.6783C16.058 20.5442 16.0193 20.4135 15.9842 20.2431L16.3079 20.1985C16.3922 20.8372 16.0886 20.9024 15.8615 20.9461C15.3746 20.981 15.2791 20.8862 15.1474 20.2543C15.0706 19.7135 14.9381 19.1424 15.3928 19.038C16.1393 18.924 16.0952 19.26 16.1628 19.4955L15.8392 19.5514C15.7875 19.3491 15.7131 19.2689 15.549 19.2838C15.3995 19.3525 15.3381 19.4636 15.3705 19.6517ZM14.6897 20.5666C14.7053 20.8445 14.6109 21.0291 14.433 21.0911L13.6742 21.2473L13.3729 19.406C13.5286 19.3807 14.2921 19.101 14.4776 19.6071C14.5691 19.9161 14.4743 20.027 14.366 20.1649C14.5713 20.2309 14.6406 20.3907 14.6897 20.5666ZM12.741 11.3267C14.4316 6.56672 18.3 7.40789 19.158 9.54878C20.3334 13.8447 16.5486 12.6666 14.1242 14.4282C13.2078 15.2251 12.7256 16.1394 12.7185 17.5254H12.3031C12.2782 14.7337 12.233 12.7569 12.741 11.3267Z" fill="#606060"/>
</svg>
