<svg width="64" height="19" viewBox="0 0 64 19" fill="none" xmlns="http://www.w3.org/2000/svg">
<path d="M6.97172 11.7023L8.81973 10.2105C8.50958 9.82153 8.21562 9.42888 7.93836 9.02388C5.80057 5.93128 4.53457 2.78454 5.44882 0H0V3.00523L6.97172 11.7023Z" fill="#606060"/>
<path d="M9.88664 7.20825C10.002 6.22646 10.2998 4.37514 12.1003 2.99984C13.6594 1.81285 15.6103 1.58451 17.3377 2.31828V0H7.71874C7.08382 2.82092 8.75152 5.92066 9.88664 7.20825Z" fill="#606060"/>
<path d="M12.2198 4.37942L12.2131 4.38465C10.4029 5.85567 10.8481 8.16403 12.5332 10.2341C13.8311 11.8319 15.5677 12.9534 17.3375 12.103V5.28707C15.7476 3.65853 13.8394 3.0619 12.2198 4.37942Z" fill="#606060"/>
<path d="M0 6.56055V17.336H0.00243663L5.2478 13.0931L0 6.56055Z" fill="#606060"/>
<path d="M9.53969 11.0645C9.02452 11.4877 8.38786 12.006 7.68176 12.583L8.3635 13.4316C9.34824 14.6639 10.7902 16.7984 12.5759 16.2207L12.6415 16.3016L11.3731 17.3351H17.3371V13.236C14.2685 14.9034 11.63 13.3859 9.53969 11.0645Z" fill="#606060"/>
<path d="M6.66192 14.855L5.95565 13.9766C4.50847 15.1387 2.98888 16.3568 1.75525 17.3365H8.42883C7.99563 16.4168 7.20843 15.5358 6.66192 14.855Z" fill="#606060"/>
<path d="M31.7777 7.24149C33.3754 6.96232 34.4152 5.58267 34.4152 3.8222C34.4152 1.47625 32.3846 0 28.9096 0H22.0322V0.0798866C23.4373 0.85021 23.4047 2.09376 23.4047 3.28162V14.0289C23.4047 15.2371 23.4373 16.4934 22.0322 17.2517V17.3297H25.3441C28.5796 17.3297 31.0615 17.3852 32.9126 16.5141C34.8802 15.5899 36.0726 13.93 36.0726 11.9073C36.0728 9.32481 34.1513 7.74082 31.7777 7.24149ZM26.1023 1.59843L28.279 1.63411C29.8931 1.63411 31.5436 2.42445 31.5436 4.24235C31.5436 6.40224 30.0825 6.9799 28.0018 6.9799L26.1023 6.98234V6.9799V1.59843ZM28.2002 15.5488L26.1023 15.5518V8.71896V8.62201L28.3579 8.61174C30.983 8.61174 33.1504 9.58657 33.1504 12.1426C33.1504 14.6454 30.8751 15.5488 28.2002 15.5488Z" fill="#606060"/>
<path d="M41.345 14.0298C41.345 15.5086 41.3189 16.5581 42.7149 17.3794V17.4534H38.0531V17.3794C39.4475 16.5581 39.4239 15.5086 39.4239 14.0298V3.49883C39.4239 2.0311 39.4475 0.867614 38.0547 0.081105V0H41.9246V0.0259327C42.0274 0.340084 42.1988 0.516914 42.3181 0.686433C42.4427 0.850558 42.6863 1.21048 42.6863 1.21048L51.564 13.1757V3.39649C51.564 1.92215 51.5868 0.867788 50.1953 0.081279V0H54.8295V0.081105C53.4606 0.867614 53.4606 1.92198 53.4606 3.39631V18.3168C52.6142 17.9815 50.2543 16.016 48.5736 13.7555C45.557 9.7037 41.3452 4.069 41.3452 4.069V14.0298H41.345Z" fill="#606060"/>
<path d="M59.1513 3.14186C59.1513 1.93068 59.1306 0.850732 57.7845 0.0818011V0H63.2391V0.0818011C61.888 0.82741 61.8756 1.95452 61.8756 3.14186V14.2188C61.8756 15.4025 61.844 16.6023 63.2391 17.3742V17.4522H57.7845V17.3742C59.1875 16.5912 59.1513 15.4127 59.1513 14.2263V3.14186Z" fill="#606060"/>
</svg>
