<svg width="84" height="20" viewBox="0 0 84 20" fill="none" xmlns="http://www.w3.org/2000/svg">
<path d="M25.2771 12.905H26.0514C27.0072 12.905 28.0054 12.7642 28.0054 11.7665C28.0054 10.6982 26.9793 10.5997 26.0789 10.5997H25.2773V12.905H25.2771ZM25.2771 8.8282H26.009C26.8665 8.8282 27.7527 8.61699 27.7527 7.78714C27.7527 6.88799 26.909 6.80355 26.037 6.80355H25.2773V8.8282H25.2771ZM22.6631 4.94727H27.1762C29.0036 4.94727 30.3666 5.74856 30.3666 7.43595C30.3666 8.67288 29.7351 9.3617 28.6374 9.72787V9.75556C29.9453 10.0225 30.6208 10.7259 30.6208 11.9204C30.6208 14.2685 28.5533 14.7608 26.796 14.7608H22.6631V4.94727Z" fill="#606060"/>
<path d="M35.6579 6.97457H35.629L34.3644 10.8127H36.8248L35.6579 6.97457ZM34.0549 4.94922H37.2605L41.0423 14.7629H38.1743L37.4435 12.6679H33.7603L32.9869 14.7629H30.329L34.0549 4.94922Z" fill="#606060"/>
<path d="M41.4003 4.94922H44.7324L48.0507 11.6134H48.0775L48.0356 4.94922H50.4266V14.7629H47.1775L43.7477 8.05637H43.7204L43.804 14.7629H41.4003V4.94922Z" fill="#606060"/>
<path d="M51.3191 4.94922H53.9335V8.95691H53.9619L56.9141 4.94922H60.0628L56.4364 9.51879L60.3449 14.7629H57.0117L53.9619 10.3062H53.9335V14.7629H51.3191V4.94922Z" fill="#606060"/>
<path d="M66.1965 12.905H66.9703C67.9255 12.905 68.9247 12.7642 68.9247 11.7665C68.9247 10.6982 67.8981 10.5997 66.9986 10.5997H66.1965V12.905ZM66.1965 8.8282H66.9283C67.7858 8.8282 68.6711 8.61699 68.6711 7.78714C68.6711 6.88799 67.8283 6.80355 66.9562 6.80355H66.1965V8.8282ZM63.5819 4.94727H68.0951C69.9221 4.94727 71.2865 5.74856 71.2865 7.43595C71.2865 8.67288 70.6543 9.3617 69.5568 9.72787V9.75556C70.8649 10.0225 71.5397 10.7259 71.5397 11.9204C71.5397 14.2685 69.4727 14.7608 67.7153 14.7608H63.5819V4.94727Z" fill="#606060"/>
<path d="M74.7322 9.02426H75.4214C76.2654 9.02426 77.3339 8.99605 77.3339 7.88569C77.3339 6.97261 76.4196 6.80337 75.4214 6.80337H74.7322V9.02426ZM72.1177 4.94727H76.7855C78.5282 4.94727 79.9483 5.7348 79.9483 7.42219C79.9483 8.72947 79.3304 9.60111 78.0649 9.89589V9.92375C78.9076 10.1496 78.9639 10.8946 79.4566 12.0894L80.4123 14.7609H77.6858L77.1232 12.9896C76.5885 11.3028 76.2507 10.8802 75.2809 10.8802H74.7324V14.7609H72.1179V4.94727H72.1177Z" fill="#606060"/>
<path d="M83.7536 4.94922H81.1387V14.7624H83.7536V4.94922Z" fill="#606060"/>
<path d="M17.4451 15.6124L11.7915 9.85077L14.4842 7.11345C15.0322 6.42846 15.3804 5.39611 15.3804 4.24206C15.3804 3.17767 15.0832 2.21618 14.6079 1.53555L15.8131 1.57177C16.7168 1.57177 17.4497 2.31491 17.4497 3.23095L17.4451 15.6124ZM15.7926 18.1256L9.02597 18.1219C9.02597 18.1219 9.80794 16.4316 9.80794 15.3846C9.80794 14.1081 9.38169 12.9675 8.71377 12.2139L6.39869 9.85356L8.76131 7.41328C9.4644 6.7525 9.93208 5.57894 9.93208 4.24188C9.93208 3.18359 9.63869 2.24631 9.16857 1.56602H10.8076C12.1833 1.56602 13.2992 2.76222 13.2992 4.17189C13.2992 4.87062 13.0257 5.5032 12.583 5.96426L8.78447 9.85303L16.6741 17.8978C16.4243 18.0558 16.1086 18.1256 15.7926 18.1256ZM4.63417 18.138L3.88772 18.1454C2.9844 18.1454 2.2517 17.4026 2.2517 16.4863L2.247 16.3558V3.83949L2.25223 3.16583C2.28583 2.27904 2.96002 1.5662 3.84141 1.5662H5.35938C6.73509 1.5662 7.84997 2.76239 7.84997 4.17206C7.84997 4.8708 7.57695 5.50337 7.13382 5.96444L3.26159 9.89378L6.89145 13.59C7.3593 14.0723 7.64225 14.7061 7.64225 15.3998C7.64207 16.9115 6.29561 18.138 4.63417 18.138ZM16.6931 0H3.0079C1.34646 0 0 1.37989 0 3.08312V3.11429V16.6346C0 18.3213 1.32139 19.6913 2.96176 19.7167H16.686C18.3476 19.7167 19.6949 18.3371 19.6949 16.6346L19.701 3.08295C19.701 1.37989 18.354 0 16.6931 0Z" fill="#606060"/>
</svg>
