<svg width="39" height="30" viewBox="0 0 39 30" fill="none" xmlns="http://www.w3.org/2000/svg">
<path d="M35.0518 10.25H15.015C13.075 10.25 11.4847 11.8402 11.4847 13.7803V26.4703C11.4847 28.4103 13.075 30.0005 15.015 30.0005H35.0518C36.9919 30.0005 38.5821 28.4103 38.5821 26.4703V13.7803C38.5901 11.8323 36.9919 10.25 35.0518 10.25ZM36.6818 26.518C36.6818 27.2177 36.1093 27.7981 35.4017 27.7981H14.9753C14.2756 27.7981 13.6951 27.2256 13.6951 26.518V17.5889H36.6818V26.518ZM36.6818 14.2256H13.6951V13.7405C13.6951 13.0408 14.2676 12.4604 14.9753 12.4604H35.4017C36.1014 12.4604 36.6818 13.0329 36.6818 13.7405V14.2256Z" fill="#606060"/>
<path d="M14.7597 8.07125H27.1873L24.6588 2.95074C23.7922 1.20149 21.6692 0.485894 19.92 1.35256L1.96636 10.226C0.217119 11.0927 -0.498481 13.2156 0.36819 14.9649L5.99757 26.3429C6.75293 27.8775 8.49422 28.6249 10.0924 28.1876C9.61533 27.3845 9.34499 26.4542 9.34499 25.4603V13.4939C9.33704 10.5122 11.778 8.07125 14.7597 8.07125Z" fill="#606060"/>
<path d="M17.313 26.4216C18.0047 26.4216 18.6329 26.1115 19.0463 25.6186C19.4677 26.1115 20.0879 26.4216 20.7797 26.4216C22.0439 26.4216 23.0696 25.3959 23.0696 24.1317C23.0696 22.8675 22.0439 21.8418 20.7797 21.8418C20.0879 21.8418 19.4598 22.1519 19.0463 22.6449C18.6249 22.1519 18.0047 21.8418 17.313 21.8418C16.0488 21.8418 15.0231 22.8675 15.0231 24.1317C15.0231 25.3959 16.0488 26.4216 17.313 26.4216Z" fill="#606060"/>
</svg>
