<svg width="100" height="30" viewBox="0 0 100 30" fill="none" xmlns="http://www.w3.org/2000/svg">
<path d="M0.105124 20.0578C0.105124 18.6084 0.0774812 17.3919 0 16.3086H2.74191L2.87003 18.1696H2.94651C3.56696 17.1859 4.70658 16.0215 6.82622 16.0215C8.48177 16.0215 9.77413 16.9561 10.3165 18.3518H10.3702C10.8106 17.6522 11.3268 17.1371 11.9208 16.7737C12.6181 16.2834 13.4212 16.0215 14.4577 16.0215C16.5487 16.0215 18.6677 17.444 18.6677 21.4809V28.9003H15.5657V21.9446C15.5657 19.8508 14.8423 18.6086 13.3189 18.6086C12.2305 18.6086 11.4275 19.3853 11.0937 20.2912C11.0152 20.6007 10.9376 20.9884 10.9376 21.3485V28.9003H7.83448V21.6086C7.83448 19.8508 7.13614 18.6086 5.66359 18.6086C4.47212 18.6086 3.67289 19.5394 3.38819 20.4171C3.25926 20.7297 3.20417 21.0915 3.20417 21.453V28.9003H0.105124V20.0578Z" fill="#606060"/>
<path d="M27.6528 22.7484C25.4022 22.6948 23.2572 23.1851 23.2572 25.0999C23.2572 26.3402 24.0596 26.9102 25.0675 26.9102C26.3326 26.9102 27.2654 26.0831 27.5477 25.1782C27.6258 24.9457 27.6528 24.6865 27.6528 24.4811V22.7484ZM30.7547 25.8761C30.7547 27.0131 30.8077 28.1209 30.9385 28.9007H28.0672L27.8602 27.5036H27.7805C27.0055 28.4869 25.6875 29.184 24.06 29.184C21.5251 29.184 20.1036 27.3513 20.1036 25.4348C20.1036 22.2535 22.92 20.6528 27.5751 20.6786V20.4708C27.5751 19.6433 27.2382 18.2723 25.0164 18.2723C23.7743 18.2723 22.4791 18.6629 21.6282 19.2051L21.0064 17.1373C21.9374 16.5663 23.5679 16.0215 25.5588 16.0215C29.5929 16.0215 30.7549 18.5842 30.7549 21.3243V25.8761H30.7547Z" fill="#606060"/>
<path d="M32.9553 20.0578C32.9553 18.6084 32.9268 17.3919 32.8516 16.3086H35.6417L35.7971 18.195H35.8737C36.4167 17.2144 37.789 16.0215 39.8814 16.0215C42.0815 16.0215 44.3569 17.444 44.3569 21.4268V28.9003H41.1747V21.7904C41.1747 19.9797 40.5022 18.6086 38.7712 18.6086C37.5041 18.6086 36.6268 19.5126 36.2884 20.47C36.1875 20.7559 36.1596 21.1445 36.1596 21.5025V28.9003H32.9551V20.0578H32.9553Z" fill="#606060"/>
<path d="M54.9634 21.5555C54.9634 21.2982 54.9376 20.9877 54.8868 20.7294C54.6013 19.4875 53.5948 18.4804 52.1449 18.4804C50.1033 18.4804 48.9659 20.2916 48.9659 22.644C48.9659 24.9457 50.1033 26.6273 52.1215 26.6273C53.4118 26.6273 54.5504 25.7481 54.8599 24.3761C54.9376 24.092 54.9634 23.78 54.9634 23.4427V21.5555ZM58.1426 11.248V25.3573C58.1426 26.6488 58.1963 28.0469 58.2469 28.8994H55.4029L55.276 26.9101H55.2221C54.4733 28.3044 52.9437 29.1843 51.1104 29.1843C48.1116 29.1843 45.7325 26.6273 45.7325 22.748C45.7075 18.5315 48.3455 16.0214 51.3704 16.0214C53.1011 16.0214 54.343 16.7468 54.9118 17.681H54.9634V11.248H58.1426Z" fill="#606060"/>
<path d="M63.6035 16.3086H60.3925V28.8997H63.6035V16.3086Z" fill="#606060"/>
<path d="M65.8473 20.3681C65.8473 18.6619 65.8215 17.445 65.7438 16.309H68.5111L68.6132 18.7113H68.7185C69.3384 16.927 70.8138 16.309 72.1576 16.309C72.4681 16.309 72.6493 16.2553 72.908 16.309V19.1028C72.6493 19.0495 72.3652 18.9983 71.9752 18.9983C70.451 18.9983 69.4171 19.9799 69.1334 21.402C69.0817 21.6857 69.0299 22.0243 69.0299 22.3875V28.8997H65.8473V20.3681Z" fill="#606060"/>
<path d="M77.5875 16.3086H74.3821V28.8997H77.5875V16.3086Z" fill="#606060"/>
<path d="M97.3722 3.00548C95.7902 1.20324 94.1101 2.01719 92.7703 2.68143C92.2086 2.95968 90.1698 4.316 88.1501 5.26273C86.7106 5.93685 84.6442 5.73266 83.5115 4.33376C83.4429 4.24942 81.6116 2.03011 81.4173 1.7563C80.228 0.265189 77.219 -0.972493 73.6238 1.085C71.698 2.2 67.1591 4.8047 65.4624 5.77342C64.4305 6.29985 62.0361 6.53007 60.6842 4.7026C60.6616 4.67274 58.8854 2.45545 58.8137 2.3703C58.7609 2.30997 57.6132 0.608003 55.0557 0.555945C54.679 0.546664 52.8001 0.535768 50.9647 1.57733C48.5289 2.97037 42.8617 6.21046 42.8617 6.21046C42.8576 6.21046 42.8576 6.21308 42.8576 6.21308C40.5284 7.54661 38.7118 8.58231 38.7118 8.58231L40.8567 11.2189C41.8607 12.4626 44.1224 13.4279 46.0844 12.3012C46.0844 12.3012 53.3352 8.1031 53.3602 8.0916C56.4964 6.37047 58.9164 6.37047 60.5199 7.01211C61.9622 7.61884 63.2152 9.13538 63.2152 9.13538C63.2152 9.13538 64.8557 11.1674 65.144 11.523C66.0758 12.6703 67.6183 12.2207 67.6183 12.2207C67.6183 12.2207 68.188 12.1539 69.0536 11.643C69.0536 11.643 76.0737 7.57203 76.0779 7.57122C78.3089 6.26292 80.3547 6.01877 81.3979 6.11421C84.6711 6.41183 85.6886 8.69914 87.1097 10.293C87.9457 11.2332 88.6981 11.7653 89.8506 11.7381C90.6109 11.7215 91.4656 11.2625 91.5925 11.1812L100 6.32729C100 6.32749 99.1387 5.02927 97.3722 3.00548Z" fill="#606060"/>
</svg>
