<svg width="86" height="22" viewBox="0 0 86 22" fill="none" xmlns="http://www.w3.org/2000/svg">
<path d="M49.6668 18.8622C49.6579 18.0354 49.3592 17.4499 48.7625 17.1223C48.5813 17.0306 48.3512 16.9594 48.0746 16.9087C47.7986 16.8583 47.4937 16.833 47.1606 16.8322H45.9614V20.9767H47.1606C48.0295 20.9802 48.6647 20.818 49.056 20.4784C49.2536 20.3147 49.4043 20.0941 49.5088 19.816C49.6131 19.5383 49.6649 19.2195 49.6668 18.8622ZM45.9614 12.985V16.5353H47.2082C48.658 16.5267 49.4089 15.9247 49.4167 14.7187C49.427 13.5477 48.6361 12.9763 47.1014 12.985H45.9614ZM44.9779 20.4147C44.9846 20.2814 44.9926 20.0686 44.9996 19.7778V14.1827L44.9812 13.64C44.9768 13.525 44.9713 13.4466 44.9657 13.4049C44.9598 13.3613 44.9505 13.3238 44.9378 13.2898C44.8955 13.1523 44.8026 13.0547 44.6633 12.9955C44.5344 12.9414 44.3435 12.9152 44.0966 12.9135V12.7237L47.2915 12.7227C47.7562 12.7246 48.1753 12.754 48.5499 12.8149C48.9245 12.8741 49.226 12.9569 49.4569 13.0625C50.1244 13.3796 50.4546 13.9128 50.4508 14.6707C50.459 15.7553 49.7458 16.4472 48.2695 16.6257L48.0219 16.6657C48.354 16.6779 48.8025 16.7877 49.0117 16.8366C49.2189 16.8846 49.422 16.9603 49.6217 17.0639C50.4048 17.4577 50.7908 18.0866 50.783 18.958C50.787 20.0149 50.2717 20.7013 49.2256 21.0262C48.9974 21.0917 48.7105 21.1429 48.3643 21.1804C48.0164 21.2179 47.6397 21.2371 47.2323 21.2377H44.0966V21.047C44.4661 21.0426 44.72 20.9859 44.8323 20.8536C44.8791 20.8092 44.9126 20.7594 44.9343 20.7028C44.9568 20.6457 44.9705 20.5471 44.9779 20.4147Z" fill="#606060"/>
<path d="M52.3438 19.686C52.3483 20.0739 52.4424 20.3883 52.6304 20.6253C52.8192 20.864 53.0737 20.9868 53.3884 20.9921C53.7066 20.9877 54.0074 20.9049 54.2881 20.7445C54.5685 20.5834 54.79 20.3682 54.9499 20.1015C55.0474 19.9315 55.1188 19.713 55.1633 19.4473C55.2077 19.1842 55.2294 18.8557 55.2294 18.4628V17.8528C54.6597 17.9025 54.2523 17.9565 53.9567 18.0193C53.6583 18.082 53.3952 18.1718 53.1655 18.2902C52.6215 18.5607 52.3483 19.0293 52.3438 19.686ZM55.3592 20.9957C55.2943 20.8676 55.2486 20.715 55.2294 20.3246L55.2236 20.2096L55.1469 20.2968C55.0552 20.3986 54.9657 20.4892 54.8787 20.565C54.7902 20.6415 54.6878 20.7201 54.5729 20.7993C54.3212 20.9849 54.0778 21.1156 53.845 21.1912C53.612 21.2671 53.3495 21.3037 53.057 21.301C52.5474 21.3037 52.1561 21.1826 51.8763 20.9447C51.7204 20.8044 51.5972 20.6276 51.507 20.4133C51.4181 20.1989 51.3719 19.9692 51.3702 19.7216C51.3755 18.8104 51.9349 18.2232 53.0791 17.9626C53.3819 17.892 53.7015 17.8345 54.038 17.79C54.3751 17.7447 54.7579 17.7072 55.1852 17.6786L55.2297 16.8841C55.2297 16.6123 55.217 16.3917 55.1905 16.2244C55.1639 16.0546 55.1199 15.9065 55.0579 15.7817C54.8883 15.4507 54.5422 15.2923 54.0422 15.2923C53.2397 15.2879 52.805 15.6703 52.7597 16.4292C52.7553 16.5503 52.7442 16.6357 52.7279 16.6862C52.7128 16.7351 52.6866 16.7707 52.65 16.7968C52.5699 16.851 52.4429 16.8813 52.2606 16.8841C51.8668 16.8891 51.7196 16.7726 51.7261 16.5756C51.7286 16.3698 51.7971 16.1705 51.9338 15.9787C52.0714 15.7862 52.2627 15.618 52.5096 15.476C52.9538 15.2295 53.5229 15.1039 54.2202 15.1014C54.9838 15.1042 55.4958 15.2765 55.7753 15.6075C55.8887 15.7461 55.9728 15.9187 56.0267 16.1268C56.0815 16.3342 56.1091 16.5982 56.1087 16.9188L56.1076 16.9858L56.1017 17.297L56.0851 18.1179L56.0728 19.2459L56.061 19.7922C56.0623 20.0493 56.0728 20.2452 56.0912 20.4647C56.1082 20.6782 56.1847 20.9169 56.356 20.9795C56.5338 21.0456 56.7053 21.0717 57.0321 21.0736C57.2719 21.0692 57.4564 21.0414 57.5814 20.9883C57.7238 20.9283 57.8119 20.7993 57.85 20.6162C57.8867 20.4384 57.9023 20.1666 57.8987 19.8034V16.6194C57.9065 16.1856 57.8561 15.8808 57.7329 15.7213C57.6122 15.5662 57.3873 15.499 57.0789 15.5026V15.3325L58.7777 15.2097V16.5628L58.8662 16.4043C59.1173 15.9572 59.4028 15.6401 59.7207 15.4503C60.038 15.2605 60.4358 15.1653 60.9149 15.1707C61.6359 15.1602 62.1371 15.4016 62.4306 15.8843C62.5387 16.0464 62.6167 16.2404 62.6632 16.4688C62.7098 16.697 62.7338 16.9881 62.7319 17.3434V19.8038C62.7275 20.1706 62.7429 20.4441 62.7783 20.6219C62.8149 20.8048 62.9011 20.9331 63.0444 20.9913C63.1632 21.041 63.4392 21.0671 63.6743 21.0732C63.8951 21.0673 64.0654 21.0393 64.1823 20.9889C64.3212 20.9278 64.4059 20.7991 64.4413 20.6169C64.4758 20.4382 64.491 20.1673 64.4866 19.804V14.0189C64.491 13.687 64.4771 13.4414 64.444 13.2827C64.4092 13.1171 64.3239 13.004 64.1844 12.9541C64.0635 12.9115 63.8817 12.8915 63.6436 12.8904V12.7215L65.4104 12.6309C65.3883 13.0236 65.3714 13.4245 65.3599 13.8347C65.3485 14.2624 65.3426 14.6364 65.3426 14.956V18.8424L67.2887 16.7098C67.5641 16.405 67.7147 16.1488 67.7173 15.9431C67.7308 15.6574 67.443 15.5283 66.9689 15.5049V15.3357H69.4987V15.5072C69.3465 15.5247 69.2144 15.5527 69.1017 15.5908C68.9797 15.6326 68.8542 15.6926 68.7263 15.7704C68.5965 15.8487 68.4869 15.9212 68.3991 15.9863C68.3093 16.0533 68.2033 16.1492 68.082 16.2729C67.9604 16.3967 67.7834 16.584 67.5517 16.8358L66.9095 17.5275L68.5908 20.1736C68.7829 20.4871 68.9595 20.7083 69.1219 20.8339C69.2766 20.9542 69.4744 21.0315 69.7123 21.0682V21.2407H68.174C68.1319 21.1554 68.0733 21.0437 67.9994 20.907L67.7548 20.4601L67.5673 20.1236L66.3231 18.0955L65.3447 19.1905L65.3422 19.803C65.3377 20.1664 65.3525 20.4382 65.3879 20.6158C65.4241 20.7987 65.5094 20.9268 65.6506 20.9879C65.7743 21.041 65.9576 21.069 66.1967 21.0732V21.2405H60.9977V21.0732C61.3498 21.0635 61.5919 21.0062 61.6886 20.8771C61.7274 20.8276 61.7569 20.7707 61.7779 20.707C61.7984 20.6434 61.811 20.5608 61.8171 20.4597C61.8241 20.3803 61.831 20.2652 61.839 20.1146C61.8479 19.9629 61.8521 19.8592 61.8529 19.8034V17.4148C61.8552 16.8259 61.792 16.3896 61.6587 16.1123C61.4556 15.676 61.0898 15.4573 60.5709 15.4554C59.9919 15.4537 59.5305 15.7291 59.1885 16.2735C59.0598 16.4793 58.9595 16.7136 58.887 16.9749C58.8156 17.2361 58.7781 17.4942 58.7773 17.7468V19.8038C58.7728 20.1706 58.7882 20.4441 58.8234 20.6219C58.8601 20.8048 58.9462 20.9331 59.0897 20.9913C59.2151 21.0435 59.4013 21.0698 59.6443 21.0743V21.2416H57.0871C56.8606 21.2494 56.4281 21.2607 56.214 21.258C55.9894 21.2544 55.8813 21.231 55.6765 21.2154C55.4956 21.1619 55.4193 21.1151 55.3592 20.9957Z" fill="#606060"/>
<path d="M2.31542 17.3255H2.86321C3.5212 17.3228 4.00516 17.1679 4.31592 16.8584C4.48469 16.6798 4.61258 16.4446 4.70022 16.1545C4.78724 15.8652 4.83127 15.5342 4.8319 15.1613C4.82832 13.7588 4.21395 13.0565 2.98963 13.0546H2.31542V17.3255ZM2.31542 17.6559V19.774C2.31099 20.1136 2.33059 20.3664 2.37378 20.531C2.4176 20.6955 2.51157 20.8047 2.65716 20.8578C2.80211 20.9108 3.02566 20.9414 3.32631 20.9467V21.2429H-0.000488281V20.9467C0.282679 20.9416 0.492316 20.9108 0.629054 20.8578C0.764949 20.8047 0.852807 20.6955 0.893049 20.531C0.93308 20.3664 0.95141 20.1138 0.946986 19.774V14.205C0.950989 13.8652 0.933502 13.6125 0.894735 13.4478C0.855968 13.2822 0.77127 13.1724 0.641274 13.1176C0.511068 13.0626 0.311123 13.0306 0.0412284 13.0209V12.7247H3.21001C4.27842 12.7203 5.06092 12.9086 5.55773 13.2902C6.05475 13.6719 6.30042 14.2722 6.29473 15.0939C6.29852 16.2474 5.84912 17.0028 4.94715 17.3599C4.71202 17.4515 4.412 17.5236 4.0475 17.5758C3.68238 17.6281 3.27701 17.6553 2.83098 17.6561H2.31542V17.6559Z" fill="#606060"/>
<path d="M7.79076 17.6834H10.212C10.2023 17.333 10.1836 17.0507 10.1558 16.8373C10.1286 16.6228 10.0848 16.4321 10.026 16.264C9.82118 15.6681 9.50725 15.3728 9.08376 15.3778C8.60887 15.3822 8.25449 15.7151 8.02083 16.3771C7.96099 16.5486 7.91338 16.737 7.87672 16.9409C7.84069 17.1449 7.81183 17.3922 7.79076 17.6834ZM11.6506 18.0117H7.78022C7.78422 18.4246 7.80824 18.7712 7.85249 19.051C7.89631 19.3299 7.96753 19.5851 8.06486 19.8168C8.38638 20.5663 8.88297 20.9409 9.55508 20.9409C9.93558 20.9381 10.2803 20.8267 10.5904 20.6044C10.8997 20.3823 11.1574 20.0627 11.3626 19.647L11.6367 19.8282C11.3672 20.3649 11.0379 20.7586 10.649 21.0104C10.2605 21.2611 9.7862 21.3859 9.22619 21.3833C8.34508 21.372 7.53477 21.0905 7.02743 20.5391C6.51966 19.9875 6.26093 19.2313 6.25061 18.2729C6.26072 17.3067 6.51102 16.5427 7.0013 15.9798C7.49116 15.417 8.27345 15.1296 9.11663 15.1172C9.67728 15.1182 10.2188 15.2461 10.603 15.5006C10.9873 15.7541 11.2707 16.1262 11.4536 16.6158C11.513 16.7778 11.5587 16.9633 11.5893 17.1733C11.6198 17.3827 11.6403 17.6623 11.6506 18.0117Z" fill="#606060"/>
<path d="M11.8977 15.28L14.0446 15.1319C14.0562 15.3464 14.0646 15.5257 14.0705 15.6713C14.0764 15.8177 14.0792 15.9458 14.0792 16.0573V16.3996C14.5456 15.5468 15.1092 15.1163 15.7693 15.1094C16.0546 15.1146 16.2866 15.1983 16.4646 15.3586C16.6428 15.5198 16.7347 15.7263 16.74 15.9774C16.736 16.1864 16.6589 16.3537 16.5088 16.4801C16.359 16.6055 16.1618 16.6708 15.9179 16.6735C15.6246 16.683 15.4459 16.5621 15.3812 16.3086C15.3389 16.1517 15.2953 16.0455 15.2498 15.9888C15.2047 15.9319 15.1383 15.9058 15.0498 15.9085H15.0273C14.8025 15.9277 14.5897 16.1062 14.3876 16.4462C14.2966 16.6152 14.2279 16.8016 14.1824 17.0062C14.1365 17.211 14.1137 17.4472 14.1137 17.7137V19.8263C14.1093 20.1636 14.1257 20.4116 14.1628 20.5722C14.1999 20.7314 14.2842 20.8359 14.4148 20.8857C14.5461 20.9343 14.7498 20.9621 15.0273 20.9685V21.2421H11.8522V20.9685C12.1109 20.9693 12.3028 20.9442 12.4271 20.8928C12.5521 20.8414 12.6328 20.7342 12.6699 20.5724C12.7074 20.4084 12.7238 20.1603 12.7204 19.8265V16.662C12.7305 16.1915 12.6838 15.8856 12.5788 15.7446C12.4739 15.6034 12.247 15.5398 11.8977 15.5548V15.28Z" fill="#606060"/>
<path d="M19.2922 15.1322L19.3038 16.263C19.7665 15.5017 20.4287 15.1172 21.291 15.1094C22.1679 15.1044 22.7088 15.5032 22.9125 16.3091C23.1603 15.8934 23.4436 15.5894 23.7618 15.3968C24.0797 15.2026 24.4514 15.1067 24.8765 15.1094C25.5486 15.113 26.0436 15.3342 26.3615 15.7716C26.4854 15.9381 26.5743 16.1401 26.6267 16.3799C26.6798 16.6203 26.7055 16.9313 26.7041 17.3139V19.8266C26.6999 20.1603 26.7169 20.4085 26.754 20.5714C26.7911 20.7342 26.8724 20.8415 26.9965 20.8929C27.1217 20.9443 27.3132 20.9694 27.5719 20.9677V21.2422H24.4767V20.9677C24.7242 20.9694 24.9079 20.9443 25.0278 20.8929C25.1479 20.8415 25.2261 20.7342 25.2615 20.5714C25.2981 20.4085 25.3141 20.1603 25.3108 19.8266V17.3251C25.3133 16.7248 25.2394 16.2918 25.0893 16.0261C24.9391 15.7594 24.6968 15.6296 24.3622 15.6349C23.9607 15.6271 23.6217 15.8363 23.3461 16.263C23.1084 16.6186 22.9902 17.0037 22.9919 17.4167V19.8266C22.9883 20.1603 23.0046 20.4085 23.0408 20.5714C23.0775 20.7342 23.1565 20.8415 23.2778 20.8929C23.3996 20.9443 23.5856 20.9694 23.8372 20.9677V21.2422H20.7767V20.9677C21.0241 20.9694 21.208 20.9443 21.3281 20.8929C21.448 20.8415 21.5259 20.7342 21.5618 20.5714C21.598 20.4085 21.6144 20.1603 21.6104 19.8266V17.3139C21.6163 16.1831 21.3081 15.6237 20.6853 15.6349C20.298 15.6488 19.9734 15.8327 19.7119 16.1856C19.45 16.5394 19.3139 16.9802 19.3038 17.5079V19.8264C19.3002 20.1637 19.3164 20.4144 19.3525 20.5766C19.3883 20.7393 19.4662 20.8457 19.5861 20.8954C19.706 20.9451 19.8897 20.9696 20.1373 20.9679V21.2424H17.0422V20.9679C17.3014 20.9696 17.4927 20.9453 17.6176 20.8954C17.7419 20.8459 17.8233 20.7395 17.8601 20.5766C17.8976 20.4144 17.9141 20.1637 17.9101 19.8264V16.6517C17.9223 16.1865 17.8753 15.8858 17.77 15.7482C17.665 15.6098 17.4301 15.5462 17.0652 15.5548V15.2803L19.2922 15.1322Z" fill="#606060"/>
<path d="M35.6892 15.6547V19.4691C35.6888 19.7175 35.698 19.9229 35.7164 20.086C35.7347 20.2486 35.7636 20.3856 35.8034 20.497C35.8516 20.6243 35.9264 20.7263 36.0271 20.8029C36.1283 20.8786 36.2404 20.9178 36.3626 20.9197C36.6067 20.9161 36.8728 20.7977 37.1623 20.5659L37.3222 20.8508C36.8636 21.2359 36.3421 21.4257 35.7577 21.4224C35.1273 21.4129 34.6975 21.2028 34.4668 20.7943C34.4219 20.7037 34.3867 20.6009 34.3614 20.4842C34.3368 20.3683 34.3191 20.2124 34.3096 20.0145C34.2999 19.8173 34.2951 19.5519 34.2955 19.2181V15.6547H33.6447V15.3124C33.8937 15.3027 34.1042 15.2504 34.2771 15.1554C34.4503 15.0597 34.601 14.9108 34.7299 14.7068C34.8308 14.5518 34.9143 14.3792 34.9794 14.1902C35.0451 14.0012 35.1024 13.7659 35.1524 13.4844L35.7233 13.4277C35.7157 13.5784 35.709 13.7318 35.7041 13.8879C35.6993 14.0427 35.6953 14.2303 35.6928 14.4487C35.6902 14.6674 35.6888 14.9481 35.6888 15.2886H37.0709V15.6545H35.6892V15.6547Z" fill="#606060"/>
<path d="M31.5108 18.8246V17.9457C30.6931 18.0006 30.1131 18.1519 29.7705 18.3986C29.4285 18.646 29.2621 19.0311 29.2724 19.5547C29.276 19.9657 29.3603 20.2917 29.5252 20.5331C29.6898 20.7746 29.9142 20.8974 30.1973 20.9025C30.4297 20.9008 30.6444 20.8338 30.8412 20.7013C31.038 20.5698 31.1924 20.385 31.3051 20.149C31.3787 20.0043 31.4314 19.8284 31.464 19.6192C31.4958 19.4102 31.5116 19.1453 31.5108 18.8246ZM33.6415 21.0011V21.2425C33.3076 21.2644 33.1725 21.2644 32.8213 21.2644C32.5425 21.2644 32.2539 21.26 32.0143 21.1703C31.8662 21.1144 31.7836 21.0666 31.673 20.9507C31.5959 20.8279 31.5468 20.8209 31.5224 20.4805C31.2274 20.7992 30.9206 21.0327 30.6017 21.1835C30.282 21.3333 29.9382 21.4073 29.5695 21.4058C29.0213 21.3997 28.5925 21.2489 28.2828 20.9518C27.9733 20.6549 27.8163 20.2462 27.8104 19.727C27.8087 18.7469 28.4176 18.1378 29.6375 17.8999C30.1879 17.7929 30.8119 17.7204 31.5108 17.6823V16.94C31.5165 16.3459 31.4535 15.934 31.3224 15.7047C31.1907 15.4755 30.9567 15.366 30.62 15.3763C30.262 15.3683 30.0071 15.4981 29.8548 15.764C29.7996 15.8562 29.7589 15.9609 29.7334 16.0802C29.7081 16.1986 29.6875 16.3634 29.6719 16.5751C29.663 16.7791 29.6038 16.9236 29.4947 17.0091C29.3858 17.0953 29.2128 17.137 28.9751 17.1355C28.4461 17.1311 28.1798 16.9558 28.1758 16.6101C28.1775 16.408 28.24 16.2146 28.3631 16.0317C28.4857 15.8478 28.6597 15.6866 28.8841 15.5474C29.3596 15.2545 29.9841 15.11 30.7574 15.1133C31.543 15.1098 32.1066 15.2659 32.4473 15.5821C32.6009 15.7269 32.7136 15.9112 32.7855 16.1354C32.8577 16.36 32.8933 16.6478 32.8923 16.9988L32.8807 17.992L32.8695 18.9852C32.8603 19.3111 32.856 19.5166 32.8579 19.6021C32.8537 20.0142 32.8668 20.3149 32.8967 20.5039C32.927 20.6937 32.9597 20.7773 33.084 20.8801C33.3025 21.0036 33.4896 21.0002 33.6415 21.0011Z" fill="#606060"/>
<path d="M41.3436 18.8251V17.945C40.5259 18.0009 39.9459 18.1523 39.6033 18.3989C39.2607 18.6464 39.0949 19.0313 39.1053 19.5549C39.1088 19.9662 39.1931 20.2919 39.3581 20.5334C39.5226 20.7748 39.747 20.8976 40.0302 20.9027C40.2628 20.901 40.4773 20.834 40.6741 20.7015C40.8708 20.57 41.0253 20.3852 41.1378 20.1493C41.2115 20.0045 41.2642 19.8288 41.2967 19.6194C41.3287 19.4104 41.3445 19.1455 41.3436 18.8251ZM43.4743 21.0005V21.2419C43.1402 21.2638 43.0053 21.2644 42.6539 21.2644C42.3752 21.2644 42.0869 21.26 41.847 21.1703C41.6989 21.1146 41.6163 21.0677 41.5061 20.9499C41.4285 20.8279 41.3792 20.8209 41.355 20.4803C41.06 20.7982 40.7533 21.0325 40.4343 21.1833C40.1147 21.3323 39.7708 21.4071 39.4021 21.4056C38.8539 21.3995 38.4252 21.2478 38.1154 20.9518C37.8059 20.6547 37.649 20.246 37.6431 19.7268C37.6414 18.7467 38.2503 18.1378 39.4702 17.8999C40.0205 17.7927 40.6446 17.7202 41.3434 17.6821V16.9398C41.3491 16.3459 41.2861 15.9338 41.1551 15.7037C41.0234 15.4745 40.7893 15.3658 40.4526 15.3761C40.0947 15.3683 39.8397 15.4981 39.6874 15.7637C39.632 15.856 39.5915 15.9607 39.566 16.08C39.5408 16.1984 39.5201 16.3632 39.5049 16.5749C39.4957 16.778 39.4365 16.9225 39.3273 17.0089C39.2184 17.0951 39.0454 17.1368 38.8078 17.1353C38.2787 17.1309 38.0124 16.9558 38.0084 16.6101C38.0101 16.4078 38.0727 16.2144 38.1957 16.0315C38.3183 15.8478 38.4924 15.6864 38.7167 15.548C39.1923 15.2543 39.8168 15.1098 40.5898 15.1133C41.3757 15.1098 41.9393 15.2659 42.2799 15.5821C42.4335 15.7269 42.5463 15.9114 42.6181 16.1354C42.6902 16.36 42.726 16.6478 42.7249 16.998L42.7133 17.992L42.7022 18.9852C42.6929 19.3111 42.6887 19.5166 42.6906 19.6021C42.6864 20.0142 42.6994 20.3149 42.7293 20.5039C42.7597 20.6937 42.7923 20.7775 42.9167 20.8801C43.1351 21.0038 43.3226 20.9996 43.4743 21.0005Z" fill="#606060"/>
<path d="M66.9896 6.95406L66.9668 7.39419L75.4056 17.2941L75.7088 17.3428L75.7471 17.3238L75.8952 17.0501L72.2962 5.00349L71.6854 4.5918L66.9896 6.95406Z" fill="#606060"/>
<path d="M66.9668 7.39453L75.4056 17.2944L75.7083 17.3431L69.4852 7.87533L66.9668 7.39453Z" fill="#606060"/>
<path d="M71.684 4.5918L69.5326 7.12429L70.4112 7.5088L72.2947 5.00391V5.00349L71.684 4.5918Z" fill="#606060"/>
<path d="M66.9668 7.39416L69.4852 7.87495L69.5336 7.12426L66.9887 6.95508L66.9668 7.39416Z" fill="#606060"/>
<path d="M70.4128 7.50838L75.7482 17.3234L75.8963 17.0489L72.2977 5.00391L70.4128 7.50838Z" fill="#606060"/>
<path d="M80.5307 4.35352L85.9876 6.8622L85.9977 7.57012L77.0428 21.1348L76.6342 21.242L76.5738 21.2148L76.4463 20.9091L80.0554 4.61793L80.5307 4.35352Z" fill="#606060"/>
<path d="M82.3633 7.88003L76.6355 21.2422L77.0432 21.135L85.9986 7.57031L82.3633 7.88003Z" fill="#606060"/>
<path d="M80.0554 4.61914L76.4463 20.9091L76.5742 21.2148L81.3328 7.31345L80.0554 4.61914Z" fill="#606060"/>
<path d="M82.1584 6.913L82.3649 7.88092L85.9998 7.57078L85.9896 6.86328H85.9892L82.1584 6.913Z" fill="#606060"/>
<path d="M80.0564 4.61751L81.3323 7.31119L82.1574 6.91193L80.5317 4.35352L80.0564 4.61751Z" fill="#606060"/>
<path d="M72.197 0.493437L72.4151 0.0752164L79.4005 0L79.852 0.468364L76.5054 11.6512L76.2928 11.774L76.2863 11.7732L76.0571 11.6187L72.197 0.493437Z" fill="#606060"/>
<path d="M72.197 0.493128L74.9036 1.84134L75.4067 1.24592L72.414 0.0761719L72.197 0.493128Z" fill="#606060"/>
<path d="M72.197 0.494562L76.0571 11.6199L76.285 11.7743L74.904 1.84151L72.197 0.494141V0.494562Z" fill="#606060"/>
<path d="M76.2153 1.84266L76.291 11.7744L76.5036 11.6507L79.8497 0.46875L76.2153 1.84266Z" fill="#606060"/>
<path d="M79.3998 0L75.407 1.24623L76.2165 1.84228L79.8509 0.468786L79.3998 0Z" fill="#606060"/>
</svg>
