<svg width="65" height="64" viewBox="0 0 65 64" fill="none" xmlns="http://www.w3.org/2000/svg">
<path d="M13.3333 24.0006C16.2788 24.0006 18.6667 21.6128 18.6667 18.6673C18.6667 15.7218 16.2788 13.334 13.3333 13.334C10.3878 13.334 8 15.7218 8 18.6673C8 21.6128 10.3878 24.0006 13.3333 24.0006Z" fill="#ECE2F7"/>
<path d="M25.3333 46.6666C25.3333 36.272 32.8106 27.6026 42.6666 25.7226V7.99999C42.6666 3.58933 39.0773 0 34.6666 0H7.99999C3.58933 0 0 3.58933 0 7.99999V45.3333C0 49.744 3.58933 53.3333 7.99999 53.3333H26.416C25.7226 51.232 25.3333 48.9973 25.3333 46.6666ZM12.64 32.48C10.88 30.72 7.78666 30.72 6.02666 32.48L5.33333 33.1706V7.99999C5.33333 6.528 6.528 5.33333 7.99999 5.33333H34.6666C36.1386 5.33333 37.3333 6.528 37.3333 7.99999V25.1707L35.3066 23.144C33.4826 21.32 30.5146 21.32 28.6933 23.144L16 35.8373L12.64 32.48Z" fill="#ECE2F7"/>
<path d="M46.6693 29.334C37.1119 29.334 29.3359 37.11 29.3359 46.6673C29.3359 56.2246 37.1119 64.0006 46.6693 64.0006C56.2266 64.0006 64.0026 56.2246 64.0026 46.6673C64.0026 37.11 56.2266 29.334 46.6693 29.334ZM54.0026 49.334H49.3359V54.0006C49.3359 55.4753 48.1439 56.6673 46.6693 56.6673C45.1946 56.6673 44.0026 55.4753 44.0026 54.0006V49.334H39.3359C37.8613 49.334 36.6693 48.142 36.6693 46.6673C36.6693 45.1926 37.8613 44.0006 39.3359 44.0006H44.0026V39.334C44.0026 37.8593 45.1946 36.6673 46.6693 36.6673C48.1439 36.6673 49.3359 37.8593 49.3359 39.334V44.0006H54.0026C55.4773 44.0006 56.6693 45.1926 56.6693 46.6673C56.6693 48.142 55.4773 49.334 54.0026 49.334Z" fill="#ECE2F7"/>
</svg>
