<svg width="18" height="18" viewBox="0 0 18 18" fill="none" xmlns="http://www.w3.org/2000/svg">
<path d="M14.7857 8.99945C14.4307 8.99945 14.1428 9.28727 14.1428 9.64232V16.0709C14.1428 16.4259 13.855 16.7137 13.5 16.7137H1.92857C1.57352 16.7137 1.2857 16.4259 1.2857 16.0709V3.21373C1.2857 2.85868 1.57352 2.57086 1.92857 2.57086H9.64287C9.99792 2.57086 10.2857 2.28304 10.2857 1.92799C10.2857 1.57294 9.99792 1.28516 9.64287 1.28516H1.92857C0.863451 1.28516 0 2.14861 0 3.21373V16.0709C0 17.136 0.863451 17.9994 1.92857 17.9994H13.5C14.5651 17.9994 15.4286 17.136 15.4286 16.0709V9.64228C15.4286 9.28726 15.1408 8.99945 14.7857 8.99945Z" fill="#7A7A7A"/>
<path d="M17.2796 0.72089C16.818 0.259237 16.1919 -6.51642e-05 15.5391 1.01706e-05C14.8859 -0.0018732 14.2592 0.257881 13.7989 0.721304L5.33117 9.18834C5.26092 9.25912 5.20793 9.34515 5.17625 9.4397L3.89055 13.2968C3.77833 13.6337 3.96046 13.9977 4.29732 14.1099C4.36267 14.1317 4.43111 14.1428 4.49997 14.1429C4.56897 14.1427 4.63757 14.1317 4.70311 14.1101L8.56025 12.8244C8.65499 12.7927 8.74106 12.7395 8.81161 12.6688L17.2793 4.2011C18.2404 3.24013 18.2405 1.68197 17.2796 0.72089Z" fill="#7A7A7A"/>
</svg>
