<svg width="5" height="18" viewBox="0 0 5 18" fill="none" xmlns="http://www.w3.org/2000/svg">
<path d="M4.5 9C4.5 10.2427 3.49269 11.25 2.25 11.25C1.00731 11.25 0 10.2427 0 9C0 7.75731 1.00731 6.75 2.25 6.75C3.49269 6.75 4.5 7.75731 4.5 9Z" fill="#7A7A7A"/>
<path d="M4.5 2.25C4.5 3.49269 3.49269 4.5 2.25 4.5C1.00731 4.5 0 3.49269 0 2.25C0 1.00731 1.00731 0 2.25 0C3.49269 0 4.5 1.00731 4.5 2.25Z" fill="#7A7A7A"/>
<path d="M4.5 15.75C4.5 16.9927 3.49269 18 2.25 18C1.00731 18 0 16.9927 0 15.75C0 14.5073 1.00731 13.5 2.25 13.5C3.49269 13.5 4.5 14.5073 4.5 15.75Z" fill="#7A7A7A"/>
</svg>
