<svg width="19" height="24" viewBox="0 0 19 24" fill="none" xmlns="http://www.w3.org/2000/svg">
<path d="M7.32983 1.44873H11.3409V2.12366H12.7895V1.35425C12.7897 0.607544 12.1825 0 11.4362 0H7.23462C6.48828 0 5.8811 0.607544 5.8811 1.35425V2.12366H7.32983V1.44873Z" fill="#7A7A7A"/>
<path d="M16.1346 7.86328H2.53575C2.16313 7.86328 1.86979 8.18115 1.89982 8.55267L3.03672 22.6108C3.10008 23.3956 3.75468 24 4.54112 24H14.1291C14.9155 24 15.5701 23.3956 15.6335 22.6106L16.7704 8.55267C16.8006 8.18115 16.5072 7.86328 16.1346 7.86328ZM5.82853 22.5005C5.81333 22.5015 5.79814 22.502 5.78312 22.502C5.40336 22.502 5.08457 22.2063 5.06095 21.8221L4.34849 10.2812C4.32396 9.88184 4.62773 9.53815 5.0269 9.51361C5.42478 9.48944 5.76994 9.79248 5.79447 10.192L6.50675 21.733C6.53147 22.1323 6.2277 22.4758 5.82853 22.5005ZM10.0676 21.7776C10.0676 22.1776 9.74333 22.5018 9.34324 22.5018C8.94316 22.5018 8.61888 22.1776 8.61888 21.7776V10.2365C8.61888 9.83643 8.94316 9.51215 9.34324 9.51215C9.74314 9.51215 10.0676 9.83643 10.0676 10.2365V21.7776ZM14.3219 10.2792L13.6416 21.8201C13.6191 22.205 13.2998 22.5018 12.9193 22.5018C12.905 22.5018 12.8905 22.5015 12.8761 22.5007C12.4767 22.4771 12.172 22.1343 12.1957 21.735L12.8757 10.1938C12.8991 9.79449 13.2408 9.48981 13.6413 9.51343C14.0406 9.53687 14.3453 9.87982 14.3219 10.2792Z" fill="#7A7A7A"/>
<path d="M18.6397 5.62781L18.164 4.20178C18.0386 3.82587 17.6867 3.57227 17.2903 3.57227H1.38041C0.984167 3.57227 0.632056 3.82587 0.506811 4.20178L0.0311033 5.62781C-0.0606326 5.90283 0.0587522 6.18335 0.281592 6.32324C0.372412 6.38019 0.479895 6.41443 0.597998 6.41443H18.0729C18.191 6.41443 18.2986 6.38019 18.3893 6.32306C18.6121 6.18317 18.7315 5.90265 18.6397 5.62781Z" fill="#7A7A7A"/>
</svg>
