<svg width="22" height="21" viewBox="0 0 22 21" fill="none" xmlns="http://www.w3.org/2000/svg">
<path d="M3.1221 11.8844L13.121 11.7338C13.6732 11.7255 14.1141 11.2711 14.1058 10.7189C14.0975 10.1666 13.6431 9.72572 13.0909 9.73403L3.09199 9.88458C2.53976 9.8929 2.09884 10.3473 2.10716 10.8995C2.11547 11.4517 2.56987 11.8927 3.1221 11.8844Z" fill="#FF785B"/>
<path d="M10.2149 2.01492L10.3654 12.0138C10.3738 12.566 10.8282 13.0069 11.3804 12.9986C11.9326 12.9903 12.3735 12.5359 12.3652 11.9837L12.2147 1.98481C12.2063 1.43259 11.7519 0.991663 11.1997 0.999977C10.6475 1.00829 10.2066 1.4627 10.2149 2.01492Z" fill="#FF785B"/>
<path d="M19.3691 9.71875L9.36914 9.71875C8.81686 9.71875 8.36914 10.1665 8.36914 10.7187C8.36914 11.271 8.81686 11.7187 9.36914 11.7187L19.3691 11.7188C19.9214 11.7188 20.3691 11.271 20.3691 10.7188C20.3691 10.1665 19.9214 9.71875 19.3691 9.71875Z" fill="#FF785B"/>
<path d="M12.3691 18.9805L12.3691 8.98047C12.3691 8.42818 11.9214 7.98047 11.3691 7.98047C10.8169 7.98047 10.3691 8.42818 10.3691 8.98047L10.3691 18.9805C10.3691 19.5328 10.8169 19.9805 11.3691 19.9805C11.9214 19.9805 12.3691 19.5328 12.3691 18.9805Z" fill="#FF785B"/>
</svg>
