<svg width="744" height="256" viewBox="0 0 744 256" fill="none" xmlns="http://www.w3.org/2000/svg">
<rect width="744" height="255" rx="10" fill="url(#paint0_radial)"/>
<path opacity="0.5" fill-rule="evenodd" clip-rule="evenodd" d="M410.616 33.2412L189.764 254.31H562.567C574.235 238.987 586.461 224.138 597.615 210.592L597.615 210.591C622.453 180.426 641.969 156.722 638.148 148.648C631.798 135.228 620.624 143.305 608.479 152.083C597.689 159.883 586.133 168.236 576.512 162.557C564.615 155.534 579.694 134.429 595.071 112.907C610.703 91.0278 626.643 68.7177 614.858 60.3359C595.881 46.839 572.124 75.9435 549.767 103.333C544.583 109.683 539.475 115.942 534.519 121.555C530.486 126.123 526.552 130.903 522.697 135.589C504.202 158.063 487.505 178.353 470.289 162.557C454.818 148.362 470.86 130.08 486.933 111.764C492.475 105.449 498.02 99.1301 502.279 92.9728C518.889 68.957 520.488 40.6306 499.818 20.9253C479.148 1.21998 437.684 6.76219 410.616 33.2412ZM561.814 208.005C556.241 215.976 545.262 217.919 537.291 212.346C529.32 206.773 527.376 195.794 532.95 187.823C538.523 179.852 554.936 170.137 562.907 175.71C570.877 181.283 567.387 200.034 561.814 208.005ZM457.306 183.192C445.114 172.17 435.508 181.317 429.434 187.686C423.36 194.055 418.221 210.869 425.259 217.581C432.298 224.293 448.849 218.362 454.923 211.993C460.996 205.624 469.498 194.213 457.306 183.192Z" fill="url(#paint1_linear)" fill-opacity="0.5"/>
<path opacity="0.5" fill-rule="evenodd" clip-rule="evenodd" d="M356.013 221.069L576.865 0.000152588L204.062 0.000185179C192.394 15.3227 180.167 30.1722 169.014 43.7184L169.014 43.7186C144.176 73.8845 124.66 97.5877 128.48 105.662C134.831 119.082 146.005 111.005 158.15 102.227C168.94 94.4273 180.496 86.0739 190.116 91.7529C202.014 98.7762 186.935 119.881 171.558 141.403C155.926 163.282 139.986 185.592 151.771 193.974C170.748 207.471 194.505 178.367 216.862 150.977C222.046 144.627 227.154 138.368 232.11 132.755C236.143 128.187 240.077 123.407 243.932 118.721C262.427 96.2472 279.124 75.9566 296.34 91.7529C311.811 105.948 295.768 124.23 279.696 142.546C274.154 148.861 268.609 155.18 264.35 161.337C247.74 185.353 246.141 213.68 266.811 233.385C287.481 253.09 328.945 247.548 356.013 221.069ZM204.818 46.3051C210.391 38.3344 221.37 36.3907 229.341 41.9638C237.312 47.5369 239.256 58.5164 233.683 66.4872C228.109 74.4579 211.696 84.1729 203.726 78.5998C195.755 73.0267 199.245 54.2759 204.818 46.3051ZM309.326 71.1185C321.518 82.1397 331.124 72.9927 337.197 66.6238C343.271 60.2548 348.41 43.4409 341.372 36.7288C334.333 30.0167 317.782 35.9481 311.709 42.317C305.635 48.686 297.134 60.0971 309.326 71.1185Z" fill="url(#paint2_linear)" fill-opacity="0.5"/>
<path fill-rule="evenodd" clip-rule="evenodd" d="M568.808 117.984L431.609 255.317H663.203C670.451 245.798 678.047 236.573 684.976 228.158C700.405 209.418 712.529 194.693 710.156 189.678C706.211 181.341 699.269 186.358 691.725 191.812C685.021 196.657 677.842 201.846 671.866 198.318C664.475 193.955 673.843 180.844 683.395 167.475C693.106 153.883 703.008 140.023 695.687 134.816C683.898 126.431 669.14 144.512 655.251 161.527L655.251 161.527C652.031 165.472 648.858 169.36 645.779 172.847C643.274 175.685 640.83 178.654 638.435 181.564L638.435 181.565C626.945 195.526 616.573 208.131 605.878 198.318C596.267 189.5 606.233 178.143 616.218 166.764C619.66 162.841 623.105 158.916 625.75 155.091C636.069 140.172 637.063 122.575 624.222 110.333C611.381 98.092 585.623 101.535 568.808 117.984ZM662.732 226.551C659.27 231.503 652.45 232.71 647.498 229.248C642.546 225.786 641.339 218.965 644.801 214.014C648.263 209.062 658.459 203.027 663.411 206.489C668.363 209.951 666.195 221.6 662.732 226.551ZM597.81 211.137C590.236 204.29 584.269 209.972 580.496 213.929C576.723 217.885 573.53 228.331 577.903 232.5C582.275 236.67 592.557 232.985 596.33 229.029C600.103 225.072 605.384 217.983 597.81 211.137Z" fill="url(#paint3_linear)"/>
<path fill-rule="evenodd" clip-rule="evenodd" d="M188.771 137.333L325.969 -6.10352e-05L94.3752 -4.07886e-05C87.1267 9.51867 79.5313 18.7435 72.6025 27.1587C57.1728 45.8984 45.0487 60.6235 47.4223 65.6393C51.3676 73.9763 58.3091 68.9587 65.8535 63.5054C72.5566 58.6601 79.7357 53.4709 85.7119 56.9988C93.1027 61.3618 83.7354 74.4726 74.1832 87.8423C64.4721 101.434 54.5699 115.294 61.891 120.501C73.68 128.885 88.4383 110.805 102.327 93.7901L102.327 93.79C105.547 89.845 108.721 85.9572 111.799 82.4699C114.304 79.6324 116.748 76.663 119.143 73.7525L119.143 73.7522C130.633 59.7908 141.006 47.1858 151.7 56.9988C161.311 65.8172 151.345 77.174 141.36 88.5525C137.918 92.4755 134.473 96.4011 131.828 100.226C121.509 115.145 120.516 132.742 133.356 144.984C146.197 157.225 171.955 153.782 188.771 137.333ZM94.8456 28.7655C98.3078 23.8139 105.128 22.6064 110.08 26.0686C115.032 29.5307 116.239 36.3514 112.777 41.303C109.315 46.2547 99.1187 52.2898 94.1671 48.8277C89.2155 45.3655 91.3835 33.7172 94.8456 28.7655ZM159.768 44.1804C167.342 51.0271 173.309 45.3447 177.082 41.3882C180.855 37.4316 184.048 26.9865 179.675 22.8168C175.303 18.6471 165.021 22.3318 161.248 26.2883C157.475 30.2448 152.194 37.3337 159.768 44.1804Z" fill="url(#paint4_linear)"/>
<path d="M267.348 67.2H249.876V112H256.276V98.432H267.348C278.996 98.432 286.036 92.544 286.036 82.816C286.036 73.088 278.996 67.2 267.348 67.2ZM267.156 92.864H256.276V72.768H267.156C275.348 72.768 279.636 76.416 279.636 82.816C279.636 89.216 275.348 92.864 267.156 92.864ZM332.367 112L321.743 96.96C328.015 94.72 331.599 89.728 331.599 82.816C331.599 73.088 324.559 67.2 312.911 67.2H295.439V112H301.839V98.368H312.911C313.871 98.368 314.831 98.304 315.727 98.24L325.391 112H332.367ZM312.719 92.928H301.839V72.768H312.719C320.911 72.768 325.199 76.416 325.199 82.816C325.199 89.216 320.911 92.928 312.719 92.928ZM362.163 112.512C375.795 112.512 385.907 102.784 385.907 89.6C385.907 76.416 375.795 66.688 362.163 66.688C348.403 66.688 338.291 76.48 338.291 89.6C338.291 102.72 348.403 112.512 362.163 112.512ZM362.163 106.816C352.115 106.816 344.691 99.52 344.691 89.6C344.691 79.68 352.115 72.384 362.163 72.384C372.083 72.384 379.507 79.68 379.507 89.6C379.507 99.52 372.083 106.816 362.163 106.816ZM443.369 112L443.305 67.2H438.057L419.625 98.688L400.937 67.2H395.689V112H401.833V79.552L418.025 106.56H420.969L437.161 79.36L437.225 112H443.369ZM477.038 112.512C490.67 112.512 500.782 102.784 500.782 89.6C500.782 76.416 490.67 66.688 477.038 66.688C463.278 66.688 453.166 76.48 453.166 89.6C453.166 102.72 463.278 112.512 477.038 112.512ZM477.038 106.816C466.99 106.816 459.566 99.52 459.566 89.6C459.566 79.68 466.99 72.384 477.038 72.384C486.958 72.384 494.382 79.68 494.382 89.6C494.382 99.52 486.958 106.816 477.038 106.816ZM212.27 166.768C215.79 165.04 218.286 161.648 218.286 156.784C218.286 149.552 212.526 145.2 202.222 145.2H182.126V190H203.502C214.83 190 220.654 185.584 220.654 177.904C220.654 171.952 217.326 168.176 212.27 166.768ZM201.646 150.384C208.174 150.384 211.886 152.816 211.886 157.552C211.886 162.288 208.174 164.72 201.646 164.72H188.526V150.384H201.646ZM203.246 184.816H188.526V169.904H203.246C210.35 169.904 214.19 172.208 214.19 177.392C214.19 182.576 210.35 184.816 203.246 184.816ZM249.124 190.512C260.964 190.512 268.068 183.664 268.068 170.672V145.2H261.86V170.416C261.86 180.336 257.252 184.816 249.188 184.816C241.124 184.816 236.58 180.336 236.58 170.416V145.2H230.18V170.672C230.18 183.664 237.348 190.512 249.124 190.512ZM281.189 190H311.845V184.432H287.589V145.2H281.189V190ZM352.848 190H359.568L339.216 145.2H332.88L312.592 190H319.184L324.112 178.8H347.92L352.848 190ZM326.352 173.68L336.016 151.728L345.68 173.68H326.352ZM398.379 145.2V178.608L371.499 145.2H366.251V190H372.651V156.592L399.531 190H404.779V145.2H398.379ZM435.376 190H441.776V145.2H435.376V190ZM487.317 145.2V178.608L460.437 145.2H455.189V190H461.589V156.592L488.469 190H493.717V145.2H487.317ZM507.126 190H513.526V145.2H507.126V190ZM526.363 175.856H531.227L532.443 145.2H525.211L526.363 175.856ZM528.859 190.384C531.227 190.384 532.955 188.528 532.955 186.288C532.955 183.984 531.227 182.192 528.859 182.192C526.427 182.192 524.635 183.984 524.635 186.288C524.635 188.528 526.427 190.384 528.859 190.384ZM543.488 175.856H548.352L549.568 145.2H542.336L543.488 175.856ZM545.984 190.384C548.352 190.384 550.08 188.528 550.08 186.288C550.08 183.984 548.352 182.192 545.984 182.192C543.552 182.192 541.76 183.984 541.76 186.288C541.76 188.528 543.552 190.384 545.984 190.384ZM560.613 175.856H565.477L566.693 145.2H559.461L560.613 175.856ZM563.109 190.384C565.477 190.384 567.205 188.528 567.205 186.288C567.205 183.984 565.477 182.192 563.109 182.192C560.677 182.192 558.885 183.984 558.885 186.288C558.885 188.528 560.677 190.384 563.109 190.384Z" fill="white"/>
<path d="M249.876 67.2V61.2C246.563 61.2 243.876 63.8863 243.876 67.2H249.876ZM249.876 112H243.876C243.876 115.314 246.563 118 249.876 118V112ZM256.276 112V118C259.59 118 262.276 115.314 262.276 112H256.276ZM256.276 98.432V92.432C252.963 92.432 250.276 95.1183 250.276 98.432H256.276ZM256.276 92.864H250.276C250.276 96.1777 252.963 98.864 256.276 98.864V92.864ZM256.276 72.768V66.768C252.963 66.768 250.276 69.4543 250.276 72.768H256.276ZM267.348 61.2H249.876V73.2H267.348V61.2ZM243.876 67.2V112H255.876V67.2H243.876ZM249.876 118H256.276V106H249.876V118ZM262.276 112V98.432H250.276V112H262.276ZM256.276 104.432H267.348V92.432H256.276V104.432ZM267.348 104.432C274.116 104.432 280.304 102.724 284.908 98.8757C289.647 94.9152 292.036 89.2401 292.036 82.816H280.036C280.036 86.1199 278.906 88.2528 277.212 89.6683C275.384 91.1964 272.228 92.432 267.348 92.432V104.432ZM292.036 82.816C292.036 76.3919 289.647 70.7168 284.908 66.7563C280.304 62.9084 274.116 61.2 267.348 61.2V73.2C272.228 73.2 275.384 74.4356 277.212 75.9637C278.906 77.3792 280.036 79.5121 280.036 82.816H292.036ZM267.156 86.864H256.276V98.864H267.156V86.864ZM262.276 92.864V72.768H250.276V92.864H262.276ZM256.276 78.768H267.156V66.768H256.276V78.768ZM267.156 78.768C270.474 78.768 272.038 79.5206 272.673 80.0389C273.113 80.3988 273.636 81.052 273.636 82.816H285.636C285.636 78.18 284.015 73.8092 280.264 70.7451C276.706 67.8394 272.03 66.768 267.156 66.768V78.768ZM273.636 82.816C273.636 84.58 273.113 85.2332 272.673 85.5931C272.038 86.1114 270.474 86.864 267.156 86.864V98.864C272.03 98.864 276.706 97.7926 280.264 94.8869C284.015 91.8228 285.636 87.452 285.636 82.816H273.636ZM332.367 112V118C334.609 118 336.663 116.75 337.695 114.759C338.726 112.769 338.561 110.369 337.267 108.538L332.367 112ZM321.743 96.96L319.725 91.3095C317.958 91.9405 316.588 93.3616 316.022 95.1503C315.456 96.939 315.76 98.8894 316.842 100.422L321.743 96.96ZM295.439 67.2V61.2C292.125 61.2 289.439 63.8863 289.439 67.2H295.439ZM295.439 112H289.439C289.439 115.314 292.125 118 295.439 118V112ZM301.839 112V118C305.152 118 307.839 115.314 307.839 112H301.839ZM301.839 98.368V92.368C298.525 92.368 295.839 95.0543 295.839 98.368H301.839ZM315.727 98.24L320.637 94.7916C319.426 93.0678 317.4 92.1052 315.299 92.2552L315.727 98.24ZM325.391 112L320.481 115.448C321.604 117.048 323.436 118 325.391 118V112ZM301.839 92.928H295.839C295.839 96.2417 298.525 98.928 301.839 98.928V92.928ZM301.839 72.768V66.768C298.525 66.768 295.839 69.4543 295.839 72.768H301.839ZM337.267 108.538L326.643 93.4983L316.842 100.422L327.466 115.462L337.267 108.538ZM323.761 102.61C327.909 101.129 331.45 98.6237 333.933 95.0885C336.415 91.5536 337.599 87.3333 337.599 82.816H325.599C325.599 85.2107 324.99 86.9424 324.113 88.1915C323.236 89.4403 321.849 90.5511 319.725 91.3095L323.761 102.61ZM337.599 82.816C337.599 76.3919 335.209 70.7168 330.471 66.7563C325.867 62.9084 319.679 61.2 312.911 61.2V73.2C317.791 73.2 320.947 74.4356 322.775 75.9637C324.468 77.3792 325.599 79.5121 325.599 82.816H337.599ZM312.911 61.2H295.439V73.2H312.911V61.2ZM289.439 67.2V112H301.439V67.2H289.439ZM295.439 118H301.839V106H295.439V118ZM307.839 112V98.368H295.839V112H307.839ZM301.839 104.368H312.911V92.368H301.839V104.368ZM312.911 104.368C314.109 104.368 315.263 104.288 316.154 104.225L315.299 92.2552C314.399 92.3196 313.633 92.368 312.911 92.368V104.368ZM310.817 101.688L320.481 115.448L330.301 108.552L320.637 94.7916L310.817 101.688ZM325.391 118H332.367V106H325.391V118ZM312.719 86.928H301.839V98.928H312.719V86.928ZM307.839 92.928V72.768H295.839V92.928H307.839ZM301.839 78.768H312.719V66.768H301.839V78.768ZM312.719 78.768C316.037 78.768 317.601 79.5206 318.235 80.0389C318.676 80.3988 319.199 81.052 319.199 82.816H331.199C331.199 78.18 329.578 73.8092 325.826 70.7451C322.269 67.8394 317.593 66.768 312.719 66.768V78.768ZM319.199 82.816C319.199 84.584 318.672 85.2649 318.214 85.6425C317.575 86.1693 316.015 86.928 312.719 86.928V98.928C317.615 98.928 322.295 97.8307 325.847 94.9015C329.582 91.8231 331.199 87.448 331.199 82.816H319.199ZM362.163 118.512C378.9 118.512 391.907 106.303 391.907 89.6H379.907C379.907 99.2653 372.69 106.512 362.163 106.512V118.512ZM391.907 89.6C391.907 72.8973 378.9 60.688 362.163 60.688V72.688C372.69 72.688 379.907 79.9347 379.907 89.6H391.907ZM362.163 60.688C345.308 60.688 332.291 72.9513 332.291 89.6H344.291C344.291 80.0087 351.497 72.688 362.163 72.688V60.688ZM332.291 89.6C332.291 106.249 345.308 118.512 362.163 118.512V106.512C351.497 106.512 344.291 99.1913 344.291 89.6H332.291ZM362.163 100.816C355.34 100.816 350.691 96.1187 350.691 89.6H338.691C338.691 102.921 348.889 112.816 362.163 112.816V100.816ZM350.691 89.6C350.691 83.0813 355.34 78.384 362.163 78.384V66.384C348.889 66.384 338.691 76.2787 338.691 89.6H350.691ZM362.163 78.384C368.828 78.384 373.507 83.0523 373.507 89.6H385.507C385.507 76.3077 375.338 66.384 362.163 66.384V78.384ZM373.507 89.6C373.507 96.1477 368.828 100.816 362.163 100.816V112.816C375.338 112.816 385.507 102.892 385.507 89.6H373.507ZM443.369 112V118C444.962 118 446.489 117.367 447.614 116.24C448.74 115.113 449.371 113.584 449.369 111.991L443.369 112ZM443.305 67.2L449.305 67.1914C449.3 63.8811 446.615 61.2 443.305 61.2V67.2ZM438.057 67.2V61.2C435.926 61.2 433.955 62.33 432.879 64.1689L438.057 67.2ZM419.625 98.688L414.465 101.75C415.549 103.577 417.519 104.694 419.643 104.688C421.767 104.682 423.73 103.552 424.803 101.719L419.625 98.688ZM400.937 67.2L406.096 64.1377C405.016 62.3165 403.055 61.2 400.937 61.2V67.2ZM395.689 67.2V61.2C392.375 61.2 389.689 63.8863 389.689 67.2H395.689ZM395.689 112H389.689C389.689 115.314 392.375 118 395.689 118V112ZM401.833 112V118C405.146 118 407.833 115.314 407.833 112H401.833ZM401.833 79.552L406.979 76.4668C405.592 74.1534 402.832 73.0499 400.232 73.7694C397.633 74.489 395.833 76.8547 395.833 79.552H401.833ZM418.025 106.56L412.879 109.645C413.963 111.453 415.916 112.56 418.025 112.56V106.56ZM420.969 106.56V112.56C423.084 112.56 425.043 111.446 426.124 109.629L420.969 106.56ZM437.161 79.36L443.161 79.3482C443.155 76.6497 441.349 74.2867 438.747 73.5734C436.144 72.8601 433.385 73.9721 432.005 76.2909L437.161 79.36ZM437.225 112L431.225 112.012C431.231 115.321 433.916 118 437.225 118V112ZM449.369 111.991L449.305 67.1914L437.305 67.2086L437.369 112.009L449.369 111.991ZM443.305 61.2H438.057V73.2H443.305V61.2ZM432.879 64.1689L414.447 95.6569L424.803 101.719L443.235 70.2311L432.879 64.1689ZM424.784 95.6257L406.096 64.1377L395.777 70.2623L414.465 101.75L424.784 95.6257ZM400.937 61.2H395.689V73.2H400.937V61.2ZM389.689 67.2V112H401.689V67.2H389.689ZM395.689 118H401.833V106H395.689V118ZM407.833 112V79.552H395.833V112H407.833ZM396.687 82.6372L412.879 109.645L423.171 103.475L406.979 76.4668L396.687 82.6372ZM418.025 112.56H420.969V100.56H418.025V112.56ZM426.124 109.629L442.316 82.4291L432.005 76.2909L415.813 103.491L426.124 109.629ZM431.161 79.3718L431.225 112.012L443.225 111.988L443.161 79.3482L431.161 79.3718ZM437.225 118H443.369V106H437.225V118ZM477.038 118.512C493.775 118.512 506.782 106.303 506.782 89.6H494.782C494.782 99.2653 487.565 106.512 477.038 106.512V118.512ZM506.782 89.6C506.782 72.8973 493.775 60.688 477.038 60.688V72.688C487.565 72.688 494.782 79.9347 494.782 89.6H506.782ZM477.038 60.688C460.183 60.688 447.166 72.9513 447.166 89.6H459.166C459.166 80.0087 466.372 72.688 477.038 72.688V60.688ZM447.166 89.6C447.166 106.249 460.183 118.512 477.038 118.512V106.512C466.372 106.512 459.166 99.1913 459.166 89.6H447.166ZM477.038 100.816C470.215 100.816 465.566 96.1187 465.566 89.6H453.566C453.566 102.921 463.764 112.816 477.038 112.816V100.816ZM465.566 89.6C465.566 83.0813 470.215 78.384 477.038 78.384V66.384C463.764 66.384 453.566 76.2787 453.566 89.6H465.566ZM477.038 78.384C483.703 78.384 488.382 83.0523 488.382 89.6H500.382C500.382 76.3077 490.213 66.384 477.038 66.384V78.384ZM488.382 89.6C488.382 96.1477 483.703 100.816 477.038 100.816V112.816C490.213 112.816 500.382 102.892 500.382 89.6H488.382ZM212.27 166.768L209.626 161.382C207.391 162.479 206.066 164.842 206.296 167.321C206.525 169.8 208.262 171.88 210.661 172.548L212.27 166.768ZM182.126 145.2V139.2C178.813 139.2 176.126 141.886 176.126 145.2H182.126ZM182.126 190H176.126C176.126 193.314 178.813 196 182.126 196V190ZM188.526 164.72H182.526C182.526 168.034 185.213 170.72 188.526 170.72V164.72ZM188.526 150.384V144.384C185.213 144.384 182.526 147.07 182.526 150.384H188.526ZM188.526 184.816H182.526C182.526 188.13 185.213 190.816 188.526 190.816V184.816ZM188.526 169.904V163.904C185.213 163.904 182.526 166.59 182.526 169.904H188.526ZM214.914 172.154C220.407 169.457 224.286 164.025 224.286 156.784H212.286C212.286 159.271 211.173 160.623 209.626 161.382L214.914 172.154ZM224.286 156.784C224.286 151.369 222.024 146.623 217.657 143.434C213.536 140.425 208.103 139.2 202.222 139.2V151.2C206.645 151.2 209.245 152.151 210.58 153.126C211.669 153.921 212.286 154.967 212.286 156.784H224.286ZM202.222 139.2H182.126V151.2H202.222V139.2ZM176.126 145.2V190H188.126V145.2H176.126ZM182.126 196H203.502V184H182.126V196ZM203.502 196C209.802 196 215.527 194.795 219.828 191.704C224.433 188.395 226.654 183.463 226.654 177.904H214.654C214.654 180.025 213.963 181.141 212.825 181.96C211.382 182.997 208.53 184 203.502 184V196ZM226.654 177.904C226.654 173.768 225.478 169.983 223.077 166.926C220.695 163.893 217.421 161.974 213.88 160.988L210.661 172.548C212.175 172.97 213.093 173.643 213.64 174.338C214.167 175.009 214.654 176.088 214.654 177.904H226.654ZM201.646 156.384C204.319 156.384 205.483 156.908 205.813 157.135C205.92 157.208 205.883 157.207 205.845 157.132C205.814 157.07 205.886 157.162 205.886 157.552H217.886C217.886 153.372 216.116 149.658 212.615 147.249C209.458 145.076 205.502 144.384 201.646 144.384V156.384ZM205.886 157.552C205.886 157.942 205.814 158.034 205.845 157.972C205.883 157.897 205.92 157.896 205.813 157.969C205.483 158.196 204.319 158.72 201.646 158.72V170.72C205.502 170.72 209.458 170.028 212.615 167.855C216.116 165.446 217.886 161.732 217.886 157.552H205.886ZM201.646 158.72H188.526V170.72H201.646V158.72ZM194.526 164.72V150.384H182.526V164.72H194.526ZM188.526 156.384H201.646V144.384H188.526V156.384ZM203.246 178.816H188.526V190.816H203.246V178.816ZM194.526 184.816V169.904H182.526V184.816H194.526ZM188.526 175.904H203.246V163.904H188.526V175.904ZM203.246 175.904C206.348 175.904 207.673 176.444 208.069 176.706C208.182 176.781 208.143 176.778 208.109 176.711C208.09 176.673 208.19 176.838 208.19 177.392H220.19C220.19 173.072 218.446 169.186 214.695 166.702C211.396 164.516 207.248 163.904 203.246 163.904V175.904ZM208.19 177.392C208.19 177.946 208.09 178.101 208.116 178.049C208.157 177.967 208.207 177.955 208.099 178.026C207.703 178.285 206.373 178.816 203.246 178.816V190.816C207.223 190.816 211.365 190.227 214.665 188.07C218.438 185.604 220.19 181.719 220.19 177.392H208.19ZM268.068 145.2H274.068C274.068 141.886 271.381 139.2 268.068 139.2V145.2ZM261.86 145.2V139.2C258.546 139.2 255.86 141.886 255.86 145.2H261.86ZM236.58 145.2H242.58C242.58 141.886 239.893 139.2 236.58 139.2V145.2ZM230.18 145.2V139.2C226.866 139.2 224.18 141.886 224.18 145.2H230.18ZM249.124 196.512C256.191 196.512 262.654 194.445 267.33 189.655C271.987 184.883 274.068 178.23 274.068 170.672H262.068C262.068 176.106 260.596 179.373 258.742 181.273C256.905 183.155 253.896 184.512 249.124 184.512V196.512ZM274.068 170.672V145.2H262.068V170.672H274.068ZM268.068 139.2H261.86V151.2H268.068V139.2ZM255.86 145.2V170.416H267.86V145.2H255.86ZM255.86 170.416C255.86 174.554 254.89 176.446 254.122 177.285C253.443 178.027 252.125 178.816 249.188 178.816V190.816C254.314 190.816 259.333 189.365 262.974 185.387C266.526 181.506 267.86 176.198 267.86 170.416H255.86ZM249.188 178.816C246.252 178.816 244.961 178.028 244.301 177.301C243.543 176.467 242.58 174.574 242.58 170.416H230.58C230.58 176.178 231.888 181.484 235.419 185.371C239.047 189.364 244.06 190.816 249.188 190.816V178.816ZM242.58 170.416V145.2H230.58V170.416H242.58ZM236.58 139.2H230.18V151.2H236.58V139.2ZM224.18 145.2V170.672H236.18V145.2H224.18ZM224.18 170.672C224.18 178.244 226.284 184.894 230.947 189.66C235.625 194.441 242.081 196.512 249.124 196.512V184.512C244.39 184.512 241.375 183.159 239.524 181.268C237.659 179.362 236.18 176.092 236.18 170.672H224.18ZM281.189 190H275.189C275.189 193.314 277.875 196 281.189 196V190ZM311.845 190V196C315.158 196 317.845 193.314 317.845 190H311.845ZM311.845 184.432H317.845C317.845 181.118 315.158 178.432 311.845 178.432V184.432ZM287.589 184.432H281.589C281.589 187.746 284.275 190.432 287.589 190.432V184.432ZM287.589 145.2H293.589C293.589 141.886 290.902 139.2 287.589 139.2V145.2ZM281.189 145.2V139.2C277.875 139.2 275.189 141.886 275.189 145.2H281.189ZM281.189 196H311.845V184H281.189V196ZM317.845 190V184.432H305.845V190H317.845ZM311.845 178.432H287.589V190.432H311.845V178.432ZM293.589 184.432V145.2H281.589V184.432H293.589ZM287.589 139.2H281.189V151.2H287.589V139.2ZM275.189 145.2V190H287.189V145.2H275.189ZM352.848 190L347.356 192.416C348.315 194.594 350.469 196 352.848 196V190ZM359.568 190V196C361.608 196 363.508 194.964 364.613 193.249C365.717 191.534 365.875 189.375 365.031 187.518L359.568 190ZM339.216 145.2L344.679 142.718C343.706 140.576 341.57 139.2 339.216 139.2V145.2ZM332.88 145.2V139.2C330.524 139.2 328.386 140.579 327.415 142.725L332.88 145.2ZM312.592 190L307.127 187.525C306.286 189.382 306.445 191.539 307.55 193.252C308.655 194.965 310.554 196 312.592 196V190ZM319.184 190V196C321.563 196 323.718 194.594 324.676 192.416L319.184 190ZM324.112 178.8V172.8C321.733 172.8 319.579 174.206 318.62 176.384L324.112 178.8ZM347.92 178.8L353.412 176.384C352.454 174.206 350.299 172.8 347.92 172.8V178.8ZM326.352 173.68L320.861 171.262C320.044 173.118 320.219 175.26 321.327 176.958C322.435 178.656 324.325 179.68 326.352 179.68V173.68ZM336.016 151.728L341.508 149.31C340.549 147.133 338.395 145.728 336.016 145.728C333.637 145.728 331.483 147.133 330.525 149.31L336.016 151.728ZM345.68 173.68V179.68C347.708 179.68 349.598 178.656 350.705 176.958C351.813 175.26 351.989 173.118 351.172 171.262L345.68 173.68ZM352.848 196H359.568V184H352.848V196ZM365.031 187.518L344.679 142.718L333.754 147.682L354.106 192.482L365.031 187.518ZM339.216 139.2H332.88V151.2H339.216V139.2ZM327.415 142.725L307.127 187.525L318.058 192.475L338.346 147.675L327.415 142.725ZM312.592 196H319.184V184H312.592V196ZM324.676 192.416L329.604 181.216L318.62 176.384L313.692 187.584L324.676 192.416ZM324.112 184.8H347.92V172.8H324.112V184.8ZM342.428 181.216L347.356 192.416L358.34 187.584L353.412 176.384L342.428 181.216ZM331.844 176.098L341.508 154.146L330.525 149.31L320.861 171.262L331.844 176.098ZM330.525 154.146L340.189 176.098L351.172 171.262L341.508 149.31L330.525 154.146ZM345.68 167.68H326.352V179.68H345.68V167.68ZM398.379 145.2V139.2C395.066 139.2 392.379 141.886 392.379 145.2H398.379ZM398.379 178.608L393.705 182.369C395.3 184.352 397.973 185.113 400.373 184.267C402.774 183.421 404.379 181.153 404.379 178.608H398.379ZM371.499 145.2L376.174 141.439C375.035 140.023 373.316 139.2 371.499 139.2V145.2ZM366.251 145.2V139.2C362.938 139.2 360.251 141.886 360.251 145.2H366.251ZM366.251 190H360.251C360.251 193.314 362.938 196 366.251 196V190ZM372.651 190V196C375.965 196 378.651 193.314 378.651 190H372.651ZM372.651 156.592L377.326 152.831C375.731 150.848 373.058 150.087 370.657 150.933C368.257 151.779 366.651 154.047 366.651 156.592H372.651ZM399.531 190L394.857 193.761C395.995 195.177 397.714 196 399.531 196V190ZM404.779 190V196C408.093 196 410.779 193.314 410.779 190H404.779ZM404.779 145.2H410.779C410.779 141.886 408.093 139.2 404.779 139.2V145.2ZM392.379 145.2V178.608H404.379V145.2H392.379ZM403.054 174.847L376.174 141.439L366.825 148.961L393.705 182.369L403.054 174.847ZM371.499 139.2H366.251V151.2H371.499V139.2ZM360.251 145.2V190H372.251V145.2H360.251ZM366.251 196H372.651V184H366.251V196ZM378.651 190V156.592H366.651V190H378.651ZM367.977 160.353L394.857 193.761L404.206 186.239L377.326 152.831L367.977 160.353ZM399.531 196H404.779V184H399.531V196ZM410.779 190V145.2H398.779V190H410.779ZM404.779 139.2H398.379V151.2H404.779V139.2ZM435.376 190H429.376C429.376 193.314 432.063 196 435.376 196V190ZM441.776 190V196C445.09 196 447.776 193.314 447.776 190H441.776ZM441.776 145.2H447.776C447.776 141.886 445.09 139.2 441.776 139.2V145.2ZM435.376 145.2V139.2C432.063 139.2 429.376 141.886 429.376 145.2H435.376ZM435.376 196H441.776V184H435.376V196ZM447.776 190V145.2H435.776V190H447.776ZM441.776 139.2H435.376V151.2H441.776V139.2ZM429.376 145.2V190H441.376V145.2H429.376ZM487.317 145.2V139.2C484.003 139.2 481.317 141.886 481.317 145.2H487.317ZM487.317 178.608L482.642 182.369C484.237 184.352 486.91 185.113 489.311 184.267C491.711 183.421 493.317 181.153 493.317 178.608H487.317ZM460.437 145.2L465.111 141.439C463.973 140.023 462.254 139.2 460.437 139.2V145.2ZM455.189 145.2V139.2C451.875 139.2 449.189 141.886 449.189 145.2H455.189ZM455.189 190H449.189C449.189 193.314 451.875 196 455.189 196V190ZM461.589 190V196C464.902 196 467.589 193.314 467.589 190H461.589ZM461.589 156.592L466.263 152.831C464.668 150.848 461.995 150.087 459.595 150.933C457.194 151.779 455.589 154.047 455.589 156.592H461.589ZM488.469 190L483.794 193.761C484.933 195.177 486.652 196 488.469 196V190ZM493.717 190V196C497.03 196 499.717 193.314 499.717 190H493.717ZM493.717 145.2H499.717C499.717 141.886 497.03 139.2 493.717 139.2V145.2ZM481.317 145.2V178.608H493.317V145.2H481.317ZM491.991 174.847L465.111 141.439L455.762 148.961L482.642 182.369L491.991 174.847ZM460.437 139.2H455.189V151.2H460.437V139.2ZM449.189 145.2V190H461.189V145.2H449.189ZM455.189 196H461.589V184H455.189V196ZM467.589 190V156.592H455.589V190H467.589ZM456.914 160.353L483.794 193.761L493.143 186.239L466.263 152.831L456.914 160.353ZM488.469 196H493.717V184H488.469V196ZM499.717 190V145.2H487.717V190H499.717ZM493.717 139.2H487.317V151.2H493.717V139.2ZM507.126 190H501.126C501.126 193.314 503.813 196 507.126 196V190ZM513.526 190V196C516.84 196 519.526 193.314 519.526 190H513.526ZM513.526 145.2H519.526C519.526 141.886 516.84 139.2 513.526 139.2V145.2ZM507.126 145.2V139.2C503.813 139.2 501.126 141.886 501.126 145.2H507.126ZM507.126 196H513.526V184H507.126V196ZM519.526 190V145.2H507.526V190H519.526ZM513.526 139.2H507.126V151.2H513.526V139.2ZM501.126 145.2V190H513.126V145.2H501.126ZM526.363 175.856L520.367 176.081C520.488 179.305 523.137 181.856 526.363 181.856V175.856ZM531.227 175.856V181.856C534.448 181.856 537.094 179.312 537.222 176.094L531.227 175.856ZM532.443 145.2L538.438 145.438C538.503 143.807 537.9 142.219 536.769 141.042C535.637 139.865 534.075 139.2 532.443 139.2V145.2ZM525.211 145.2V139.2C523.58 139.2 522.02 139.863 520.889 141.038C519.758 142.212 519.154 143.796 519.215 145.425L525.211 145.2ZM526.363 181.856H531.227V169.856H526.363V181.856ZM537.222 176.094L538.438 145.438L526.447 144.962L525.231 175.618L537.222 176.094ZM532.443 139.2H525.211V151.2H532.443V139.2ZM519.215 145.425L520.367 176.081L532.359 175.631L531.207 144.975L519.215 145.425ZM528.859 196.384C534.663 196.384 538.955 191.718 538.955 186.288H526.955C526.955 185.846 527.132 185.362 527.506 184.98C527.899 184.579 528.417 184.384 528.859 184.384V196.384ZM538.955 186.288C538.955 180.732 534.602 176.192 528.859 176.192V188.192C528.479 188.192 527.955 188.027 527.529 187.595C527.112 187.174 526.955 186.667 526.955 186.288H538.955ZM528.859 176.192C523.235 176.192 518.635 180.549 518.635 186.288H530.635C530.635 186.736 530.442 187.262 530.032 187.664C529.621 188.066 529.152 188.192 528.859 188.192V176.192ZM518.635 186.288C518.635 191.902 523.174 196.384 528.859 196.384V184.384C529.213 184.384 529.677 184.537 530.055 184.911C530.421 185.273 530.635 185.777 530.635 186.288H518.635ZM543.488 175.856L537.492 176.081C537.613 179.305 540.262 181.856 543.488 181.856V175.856ZM548.352 175.856V181.856C551.573 181.856 554.219 179.312 554.347 176.094L548.352 175.856ZM549.568 145.2L555.563 145.438C555.628 143.807 555.025 142.219 553.894 141.042C552.762 139.865 551.2 139.2 549.568 139.2V145.2ZM542.336 145.2V139.2C540.705 139.2 539.145 139.863 538.014 141.038C536.883 142.212 536.279 143.796 536.34 145.425L542.336 145.2ZM543.488 181.856H548.352V169.856H543.488V181.856ZM554.347 176.094L555.563 145.438L543.572 144.962L542.356 175.618L554.347 176.094ZM549.568 139.2H542.336V151.2H549.568V139.2ZM536.34 145.425L537.492 176.081L549.484 175.631L548.332 144.975L536.34 145.425ZM545.984 196.384C551.788 196.384 556.08 191.718 556.08 186.288H544.08C544.08 185.846 544.257 185.362 544.631 184.98C545.024 184.579 545.542 184.384 545.984 184.384V196.384ZM556.08 186.288C556.08 180.732 551.727 176.192 545.984 176.192V188.192C545.604 188.192 545.08 188.027 544.654 187.595C544.237 187.174 544.08 186.667 544.08 186.288H556.08ZM545.984 176.192C540.36 176.192 535.76 180.549 535.76 186.288H547.76C547.76 186.736 547.567 187.262 547.157 187.664C546.746 188.066 546.277 188.192 545.984 188.192V176.192ZM535.76 186.288C535.76 191.902 540.299 196.384 545.984 196.384V184.384C546.338 184.384 546.802 184.537 547.18 184.911C547.546 185.273 547.76 185.777 547.76 186.288H535.76ZM560.613 175.856L554.617 176.081C554.738 179.305 557.387 181.856 560.613 181.856V175.856ZM565.477 175.856V181.856C568.698 181.856 571.344 179.312 571.472 176.094L565.477 175.856ZM566.693 145.2L572.688 145.438C572.753 143.807 572.15 142.219 571.019 141.042C569.887 139.865 568.325 139.2 566.693 139.2V145.2ZM559.461 145.2V139.2C557.83 139.2 556.27 139.863 555.139 141.038C554.008 142.212 553.404 143.796 553.465 145.425L559.461 145.2ZM560.613 181.856H565.477V169.856H560.613V181.856ZM571.472 176.094L572.688 145.438L560.697 144.962L559.481 175.618L571.472 176.094ZM566.693 139.2H559.461V151.2H566.693V139.2ZM553.465 145.425L554.617 176.081L566.609 175.631L565.457 144.975L553.465 145.425ZM563.109 196.384C568.913 196.384 573.205 191.718 573.205 186.288H561.205C561.205 185.846 561.382 185.362 561.756 184.98C562.149 184.579 562.667 184.384 563.109 184.384V196.384ZM573.205 186.288C573.205 180.732 568.852 176.192 563.109 176.192V188.192C562.729 188.192 562.205 188.027 561.779 187.595C561.362 187.174 561.205 186.667 561.205 186.288H573.205ZM563.109 176.192C557.485 176.192 552.885 180.549 552.885 186.288H564.885C564.885 186.736 564.692 187.262 564.282 187.664C563.871 188.066 563.402 188.192 563.109 188.192V176.192ZM552.885 186.288C552.885 191.902 557.424 196.384 563.109 196.384V184.384C563.463 184.384 563.927 184.537 564.305 184.911C564.671 185.273 564.885 185.777 564.885 186.288H552.885Z" fill="#24248A"/>
<defs>
<radialGradient id="paint0_radial" cx="0" cy="0" r="1" gradientUnits="userSpaceOnUse" gradientTransform="translate(372 127.5) rotate(90) scale(127.5 372)">
<stop stop-color="#5252A4"/>
<stop offset="1" stop-color="#2A2A79"/>
</radialGradient>
<linearGradient id="paint1_linear" x1="246.976" y1="254.31" x2="606.361" y2="95.0814" gradientUnits="userSpaceOnUse">
<stop stop-color="#323273"/>
<stop offset="1" stop-color="#BC5F4B"/>
</linearGradient>
<linearGradient id="paint2_linear" x1="519.653" y1="0.000218297" x2="160.268" y2="159.229" gradientUnits="userSpaceOnUse">
<stop stop-color="#323273"/>
<stop offset="1" stop-color="#BC5F4B"/>
</linearGradient>
<linearGradient id="paint3_linear" x1="467.151" y1="255.317" x2="690.409" y2="156.401" gradientUnits="userSpaceOnUse">
<stop stop-color="#323273"/>
<stop offset="1" stop-color="#BC5F4B"/>
</linearGradient>
<linearGradient id="paint4_linear" x1="290.427" y1="-4.95645e-06" x2="67.1695" y2="98.9163" gradientUnits="userSpaceOnUse">
<stop stop-color="#323273"/>
<stop offset="1" stop-color="#BC5F4B"/>
</linearGradient>
</defs>
</svg>
