<svg width="21" height="32" viewBox="0 0 21 32" fill="none" xmlns="http://www.w3.org/2000/svg">
<path d="M20.2286 21.6491C19.6011 18.0114 17.4991 8.97163 16.7925 7.18432C16.5313 6.52376 15.7118 6.7271 15.9612 8.51441C16.3928 11.6075 18.0296 17.1479 18.566 20.596C18.9539 23.0899 18.3562 23.9295 17.4575 24.4755C13.0794 27.1357 7.81435 29.4078 4.82164 30.6272C2.81669 31.444 5.21052 31.7737 5.65295 31.6248C9.97575 30.1697 16.3688 26.6388 18.0672 25.8056C20.2702 24.7249 20.4166 22.7399 20.2286 21.6491Z" fill="#FF785B"/>
<path d="M5.22951 4.2105C5.22951 4.2105 4.76165 1.31821 7.01616 0.828738C8.11914 0.589488 8.82857 1.26617 9.08511 1.98941C9.17174 2.23381 9.98991 2.71963 9.89763 1.67484C9.80935 0.679269 8.78402 -0.186788 7.13803 0.0350052C4.51907 0.38748 4.05869 3.11816 4.36312 4.08414C4.66771 5.04995 5.22951 4.2105 5.22951 4.2105Z" fill="#FF785B"/>
<path d="M16.9587 21.4829C16.9587 19.7874 16.9489 22.7581 13.6335 4.19171C13.6335 4.19171 13.3009 2.2797 11.4721 2.69536C10.2918 2.96354 3.32523 6.35311 3.32523 6.35311C3.32523 6.35311 2.32766 7.01816 1.99514 8.01573C1.66262 9.0133 0 29.131 0 29.131C0 29.131 0 30.2948 1.66262 29.796C3.32523 29.2972 15.1298 23.9768 15.1298 23.9768C15.1298 23.9768 16.9587 23.1455 16.9587 21.4829ZM7.6635 18.9715C6.47389 19.6321 5.30225 19.8183 4.67345 19.4969L5.0753 18.2684C5.65921 18.5502 6.65263 18.437 7.65335 17.8814C8.99841 17.1347 9.57068 16.2109 9.56337 15.4288C9.54258 13.236 4.8422 17.2378 4.81061 13.9037C4.79748 12.5188 5.72006 10.8204 7.76558 9.68466C8.67719 9.17856 9.62472 8.93615 10.2743 9.09111L9.91734 10.3208C9.2345 10.1971 8.46521 10.3923 7.77605 10.7748C6.45311 11.5092 5.89231 12.4652 5.89963 13.2475C5.92041 15.4401 10.6208 11.4514 10.652 14.7472C10.6649 16.1192 9.71999 17.8298 7.6635 18.9715Z" fill="#FF785B"/>
</svg>
